G75*
G70*
%OFA0B0*%
%FSLAX24Y24*%
%IPPOS*%
%LPD*%
%AMOC8*
5,1,8,0,0,1.08239X$1,22.5*
%
%ADD10C,0.0079*%
%ADD11C,0.0000*%
D10*
X002130Y000171D02*
X032051Y000171D01*
X032145Y000173D01*
X032238Y000180D01*
X032331Y000191D01*
X032424Y000207D01*
X032515Y000227D01*
X032606Y000251D01*
X032695Y000279D01*
X032783Y000312D01*
X032869Y000349D01*
X032953Y000390D01*
X033036Y000435D01*
X033116Y000484D01*
X033193Y000536D01*
X033268Y000592D01*
X033340Y000652D01*
X033410Y000715D01*
X033476Y000781D01*
X033539Y000851D01*
X033599Y000923D01*
X033655Y000998D01*
X033707Y001075D01*
X033756Y001156D01*
X033801Y001238D01*
X033842Y001322D01*
X033879Y001408D01*
X033912Y001496D01*
X033940Y001585D01*
X033964Y001676D01*
X033984Y001767D01*
X034000Y001860D01*
X034011Y001953D01*
X034018Y002046D01*
X034020Y002140D01*
X034020Y032061D01*
X034018Y032155D01*
X034011Y032248D01*
X034000Y032341D01*
X033984Y032434D01*
X033964Y032525D01*
X033940Y032616D01*
X033912Y032705D01*
X033879Y032793D01*
X033842Y032879D01*
X033801Y032963D01*
X033756Y033045D01*
X033707Y033126D01*
X033655Y033203D01*
X033599Y033278D01*
X033539Y033350D01*
X033476Y033420D01*
X033410Y033486D01*
X033340Y033549D01*
X033268Y033609D01*
X033193Y033665D01*
X033116Y033717D01*
X033035Y033766D01*
X032953Y033811D01*
X032869Y033852D01*
X032783Y033889D01*
X032695Y033922D01*
X032606Y033950D01*
X032515Y033974D01*
X032424Y033994D01*
X032331Y034010D01*
X032238Y034021D01*
X032145Y034028D01*
X032051Y034030D01*
X002130Y034030D01*
X002036Y034028D01*
X001943Y034021D01*
X001850Y034010D01*
X001757Y033994D01*
X001666Y033974D01*
X001575Y033950D01*
X001486Y033922D01*
X001398Y033889D01*
X001312Y033852D01*
X001228Y033811D01*
X001145Y033766D01*
X001065Y033717D01*
X000988Y033665D01*
X000913Y033609D01*
X000841Y033549D01*
X000771Y033486D01*
X000705Y033420D01*
X000642Y033350D01*
X000582Y033278D01*
X000526Y033203D01*
X000474Y033126D01*
X000425Y033046D01*
X000380Y032963D01*
X000339Y032879D01*
X000302Y032793D01*
X000269Y032705D01*
X000241Y032616D01*
X000217Y032525D01*
X000197Y032434D01*
X000181Y032341D01*
X000170Y032248D01*
X000163Y032155D01*
X000161Y032061D01*
X000161Y002140D01*
X000163Y002046D01*
X000170Y001953D01*
X000181Y001860D01*
X000197Y001767D01*
X000217Y001676D01*
X000241Y001585D01*
X000269Y001496D01*
X000302Y001408D01*
X000339Y001322D01*
X000380Y001238D01*
X000425Y001156D01*
X000474Y001075D01*
X000526Y000998D01*
X000582Y000923D01*
X000642Y000851D01*
X000705Y000781D01*
X000771Y000715D01*
X000841Y000652D01*
X000913Y000592D01*
X000988Y000536D01*
X001065Y000484D01*
X001145Y000435D01*
X001228Y000390D01*
X001312Y000349D01*
X001398Y000312D01*
X001486Y000279D01*
X001575Y000251D01*
X001666Y000227D01*
X001757Y000207D01*
X001850Y000191D01*
X001943Y000180D01*
X002036Y000173D01*
X002130Y000171D01*
D11*
X000909Y002337D02*
X000911Y002387D01*
X000917Y002437D01*
X000927Y002486D01*
X000941Y002534D01*
X000958Y002581D01*
X000979Y002626D01*
X001004Y002670D01*
X001032Y002711D01*
X001064Y002750D01*
X001098Y002787D01*
X001135Y002821D01*
X001175Y002851D01*
X001217Y002878D01*
X001261Y002902D01*
X001307Y002923D01*
X001354Y002939D01*
X001402Y002952D01*
X001452Y002961D01*
X001501Y002966D01*
X001552Y002967D01*
X001602Y002964D01*
X001651Y002957D01*
X001700Y002946D01*
X001748Y002931D01*
X001794Y002913D01*
X001839Y002891D01*
X001882Y002865D01*
X001923Y002836D01*
X001962Y002804D01*
X001998Y002769D01*
X002030Y002731D01*
X002060Y002691D01*
X002087Y002648D01*
X002110Y002604D01*
X002129Y002558D01*
X002145Y002510D01*
X002157Y002461D01*
X002165Y002412D01*
X002169Y002362D01*
X002169Y002312D01*
X002165Y002262D01*
X002157Y002213D01*
X002145Y002164D01*
X002129Y002116D01*
X002110Y002070D01*
X002087Y002026D01*
X002060Y001983D01*
X002030Y001943D01*
X001998Y001905D01*
X001962Y001870D01*
X001923Y001838D01*
X001882Y001809D01*
X001839Y001783D01*
X001794Y001761D01*
X001748Y001743D01*
X001700Y001728D01*
X001651Y001717D01*
X001602Y001710D01*
X001552Y001707D01*
X001501Y001708D01*
X001452Y001713D01*
X001402Y001722D01*
X001354Y001735D01*
X001307Y001751D01*
X001261Y001772D01*
X001217Y001796D01*
X001175Y001823D01*
X001135Y001853D01*
X001098Y001887D01*
X001064Y001924D01*
X001032Y001963D01*
X001004Y002004D01*
X000979Y002048D01*
X000958Y002093D01*
X000941Y002140D01*
X000927Y002188D01*
X000917Y002237D01*
X000911Y002287D01*
X000909Y002337D01*
X000161Y002140D02*
X000122Y002140D01*
X000909Y031864D02*
X000911Y031914D01*
X000917Y031964D01*
X000927Y032013D01*
X000941Y032061D01*
X000958Y032108D01*
X000979Y032153D01*
X001004Y032197D01*
X001032Y032238D01*
X001064Y032277D01*
X001098Y032314D01*
X001135Y032348D01*
X001175Y032378D01*
X001217Y032405D01*
X001261Y032429D01*
X001307Y032450D01*
X001354Y032466D01*
X001402Y032479D01*
X001452Y032488D01*
X001501Y032493D01*
X001552Y032494D01*
X001602Y032491D01*
X001651Y032484D01*
X001700Y032473D01*
X001748Y032458D01*
X001794Y032440D01*
X001839Y032418D01*
X001882Y032392D01*
X001923Y032363D01*
X001962Y032331D01*
X001998Y032296D01*
X002030Y032258D01*
X002060Y032218D01*
X002087Y032175D01*
X002110Y032131D01*
X002129Y032085D01*
X002145Y032037D01*
X002157Y031988D01*
X002165Y031939D01*
X002169Y031889D01*
X002169Y031839D01*
X002165Y031789D01*
X002157Y031740D01*
X002145Y031691D01*
X002129Y031643D01*
X002110Y031597D01*
X002087Y031553D01*
X002060Y031510D01*
X002030Y031470D01*
X001998Y031432D01*
X001962Y031397D01*
X001923Y031365D01*
X001882Y031336D01*
X001839Y031310D01*
X001794Y031288D01*
X001748Y031270D01*
X001700Y031255D01*
X001651Y031244D01*
X001602Y031237D01*
X001552Y031234D01*
X001501Y031235D01*
X001452Y031240D01*
X001402Y031249D01*
X001354Y031262D01*
X001307Y031278D01*
X001261Y031299D01*
X001217Y031323D01*
X001175Y031350D01*
X001135Y031380D01*
X001098Y031414D01*
X001064Y031451D01*
X001032Y031490D01*
X001004Y031531D01*
X000979Y031575D01*
X000958Y031620D01*
X000941Y031667D01*
X000927Y031715D01*
X000917Y031764D01*
X000911Y031814D01*
X000909Y031864D01*
X029931Y021274D02*
X029933Y021307D01*
X029939Y021339D01*
X029948Y021370D01*
X029961Y021400D01*
X029978Y021428D01*
X029998Y021454D01*
X030021Y021478D01*
X030046Y021498D01*
X030074Y021516D01*
X030103Y021530D01*
X030134Y021540D01*
X030166Y021547D01*
X030199Y021550D01*
X030232Y021549D01*
X030264Y021544D01*
X030295Y021535D01*
X030326Y021523D01*
X030354Y021507D01*
X030381Y021488D01*
X030405Y021466D01*
X030426Y021441D01*
X030445Y021414D01*
X030460Y021385D01*
X030471Y021355D01*
X030479Y021323D01*
X030483Y021290D01*
X030483Y021258D01*
X030479Y021225D01*
X030471Y021193D01*
X030460Y021163D01*
X030445Y021134D01*
X030426Y021107D01*
X030405Y021082D01*
X030381Y021060D01*
X030354Y021041D01*
X030326Y021025D01*
X030295Y021013D01*
X030264Y021004D01*
X030232Y020999D01*
X030199Y020998D01*
X030166Y021001D01*
X030134Y021008D01*
X030103Y021018D01*
X030074Y021032D01*
X030046Y021050D01*
X030021Y021070D01*
X029998Y021094D01*
X029978Y021120D01*
X029961Y021148D01*
X029948Y021178D01*
X029939Y021209D01*
X029933Y021241D01*
X029931Y021274D01*
X032012Y031864D02*
X032014Y031914D01*
X032020Y031964D01*
X032030Y032013D01*
X032044Y032061D01*
X032061Y032108D01*
X032082Y032153D01*
X032107Y032197D01*
X032135Y032238D01*
X032167Y032277D01*
X032201Y032314D01*
X032238Y032348D01*
X032278Y032378D01*
X032320Y032405D01*
X032364Y032429D01*
X032410Y032450D01*
X032457Y032466D01*
X032505Y032479D01*
X032555Y032488D01*
X032604Y032493D01*
X032655Y032494D01*
X032705Y032491D01*
X032754Y032484D01*
X032803Y032473D01*
X032851Y032458D01*
X032897Y032440D01*
X032942Y032418D01*
X032985Y032392D01*
X033026Y032363D01*
X033065Y032331D01*
X033101Y032296D01*
X033133Y032258D01*
X033163Y032218D01*
X033190Y032175D01*
X033213Y032131D01*
X033232Y032085D01*
X033248Y032037D01*
X033260Y031988D01*
X033268Y031939D01*
X033272Y031889D01*
X033272Y031839D01*
X033268Y031789D01*
X033260Y031740D01*
X033248Y031691D01*
X033232Y031643D01*
X033213Y031597D01*
X033190Y031553D01*
X033163Y031510D01*
X033133Y031470D01*
X033101Y031432D01*
X033065Y031397D01*
X033026Y031365D01*
X032985Y031336D01*
X032942Y031310D01*
X032897Y031288D01*
X032851Y031270D01*
X032803Y031255D01*
X032754Y031244D01*
X032705Y031237D01*
X032655Y031234D01*
X032604Y031235D01*
X032555Y031240D01*
X032505Y031249D01*
X032457Y031262D01*
X032410Y031278D01*
X032364Y031299D01*
X032320Y031323D01*
X032278Y031350D01*
X032238Y031380D01*
X032201Y031414D01*
X032167Y031451D01*
X032135Y031490D01*
X032107Y031531D01*
X032082Y031575D01*
X032061Y031620D01*
X032044Y031667D01*
X032030Y031715D01*
X032020Y031764D01*
X032014Y031814D01*
X032012Y031864D01*
X032012Y002337D02*
X032014Y002387D01*
X032020Y002437D01*
X032030Y002486D01*
X032044Y002534D01*
X032061Y002581D01*
X032082Y002626D01*
X032107Y002670D01*
X032135Y002711D01*
X032167Y002750D01*
X032201Y002787D01*
X032238Y002821D01*
X032278Y002851D01*
X032320Y002878D01*
X032364Y002902D01*
X032410Y002923D01*
X032457Y002939D01*
X032505Y002952D01*
X032555Y002961D01*
X032604Y002966D01*
X032655Y002967D01*
X032705Y002964D01*
X032754Y002957D01*
X032803Y002946D01*
X032851Y002931D01*
X032897Y002913D01*
X032942Y002891D01*
X032985Y002865D01*
X033026Y002836D01*
X033065Y002804D01*
X033101Y002769D01*
X033133Y002731D01*
X033163Y002691D01*
X033190Y002648D01*
X033213Y002604D01*
X033232Y002558D01*
X033248Y002510D01*
X033260Y002461D01*
X033268Y002412D01*
X033272Y002362D01*
X033272Y002312D01*
X033268Y002262D01*
X033260Y002213D01*
X033248Y002164D01*
X033232Y002116D01*
X033213Y002070D01*
X033190Y002026D01*
X033163Y001983D01*
X033133Y001943D01*
X033101Y001905D01*
X033065Y001870D01*
X033026Y001838D01*
X032985Y001809D01*
X032942Y001783D01*
X032897Y001761D01*
X032851Y001743D01*
X032803Y001728D01*
X032754Y001717D01*
X032705Y001710D01*
X032655Y001707D01*
X032604Y001708D01*
X032555Y001713D01*
X032505Y001722D01*
X032457Y001735D01*
X032410Y001751D01*
X032364Y001772D01*
X032320Y001796D01*
X032278Y001823D01*
X032238Y001853D01*
X032201Y001887D01*
X032167Y001924D01*
X032135Y001963D01*
X032107Y002004D01*
X032082Y002048D01*
X032061Y002093D01*
X032044Y002140D01*
X032030Y002188D01*
X032020Y002237D01*
X032014Y002287D01*
X032012Y002337D01*
M02*
