%
M48
M72
T01C0.0118
T02C0.0236
T03C0.0276
T04C0.0394
T05C0.0400
T06C0.0551
T07C0.1260
%
T01
X3901Y1510
X4827Y1156
X6244Y2888
X7130Y2356
X5004Y3459
X5102Y3951
X3252Y5683
X3724Y6411
X3311Y7278
X4197Y7278
X5220Y7868
X5634Y6352
X7779Y6352
X7799Y5860
X7779Y6845
X7779Y7849
X9512Y7337
X10437Y7160
X10614Y7632
X10555Y8341
X10555Y8813
X10693Y10073
X12090Y8577
X13429Y9817
X14709Y10998
X15102Y10998
X14138Y11963
X13783Y12356
X14295Y12868
X14649Y12474
X15083Y12612
X15476Y12612
X17523Y13203
X18921Y13400
X19827Y14345
X19453Y14719
X18764Y15585
X17425Y15309
X14846Y15329
X14433Y16077
X13882Y16077
X13744Y17061
X13449Y17494
X10929Y17337
X10142Y17219
X9295Y18104
X7523Y16116
X7031Y16471
X6657Y16136
X5653Y15250
X4551Y15250
X4118Y17219
X4905Y17494
X5811Y17219
X4157Y19207
X3941Y19541
X2858Y18971
X2287Y18656
X1933Y18892
X1067Y18242
X575Y18675
X4059Y23478
X6027Y20230
X11520Y20860
X16382Y19148
X19295Y19187
X21618Y18656
X20358Y15486
X20673Y14837
X21460Y14463
X22858Y14286
X23783Y13518
X24334Y13478
X24512Y14246
X25043Y14226
X25417Y15191
X24275Y15604
X26323Y17100
X26323Y17514
X26323Y17908
X26303Y18341
X26303Y18715
X26303Y19148
X26342Y19620
X27228Y20939
X28882Y20014
X29354Y19876
X28311Y19128
X28311Y18734
X28311Y18341
X28291Y17908
X28271Y17514
X28271Y17100
X29413Y17730
X31027Y18951
X32563Y20329
X31106Y15821
X29866Y14600
X29354Y13459
X29827Y13203
X30319Y12691
X29807Y11707
X29472Y11195
X28705Y9679
X28350Y9856
X28429Y9266
X29512Y9423
X30023Y8813
X30614Y8557
X29984Y8045
X29610Y8045
X30181Y7337
X31401Y6904
X30516Y5762
X30870Y5486
X30023Y5211
X28882Y5486
X28370Y5762
X27858Y5211
X26697Y5486
X26205Y5762
X25693Y5211
X24551Y5486
X24039Y5762
X23547Y5408
X23535Y4648
X22189Y5467
X22327Y5919
X21067Y7160
X20634Y7160
X20457Y7494
X20535Y6707
X21953Y7691
X23803Y9167
X24177Y10152
X23803Y10506
X23527Y10880
X24000Y11372
X24472Y10860
X26480Y10486
X26460Y11333
X27937Y10919
X26953Y8872
X28370Y8026
X28409Y7652
X27858Y6943
X26716Y6982
X24472Y8163
X24177Y8045
X21992Y10349
X20378Y11372
X20161Y12140
X17563Y9384
X17287Y9167
X18291Y9049
X17622Y7494
X16579Y6845
X16008Y7160
X15850Y6549
X14905Y6057
X14886Y5663
X14689Y5073
X15397Y4679
X16205Y3262
X16815Y3223
X18744Y4679
X19059Y6982
X16008Y7868
X15653Y8223
X15850Y8537
X15575Y8872
X14472Y7494
X14098Y6234
X11972Y5860
X12720Y4167
X13331Y3301
X13803Y3695
X14157Y3282
X12838Y2435
X12976Y2100
X12169Y2140
X12346Y1471
X11894Y1490
X11953Y2908
X10161Y2671
X10083Y3971
X7799Y9797
X5397Y12691
X4748Y12868
X4177Y12652
X3311Y12652
X3665Y9384
X3390Y9089
X3646Y8813
X1697Y6333
X1953Y6057
X2287Y5565
X2642Y4187
X9984Y14128
X12720Y12356
X13232Y12415
X13055Y14915
X13449Y14915
X20909Y3242
X21677Y3223
X22760Y2297
X24453Y2770
X28764Y2750
X32031Y8301
X32701Y8400
X30358Y9502
X32051Y10919
X31106Y13793
X31894Y14266
X27858Y13990
X26894Y13459
X27720Y23813
X16146Y1293
T02
X25437Y12474
X25437Y18715
X25023Y20408
X24840Y21844
X24340Y21844
X23840Y21844
X23340Y21844
X22840Y21844
X22340Y21844
X21840Y21844
X21340Y21844
X20840Y21844
X20340Y21844
X19840Y21844
X19340Y21844
X18840Y21844
X18340Y21844
X17840Y21844
X17340Y21844
X16840Y21844
X16340Y21844
X15840Y21844
X15340Y21844
X14840Y21844
X14340Y21844
X13840Y21844
X13340Y21844
X12840Y21844
X12340Y21844
X11840Y21844
X11340Y21844
X10840Y21844
X10340Y21844
X9840Y21844
X9340Y21844
X8840Y21844
X8340Y21844
X7840Y21844
X7340Y21844
X6840Y21844
X6340Y21844
X5840Y21844
X5340Y21844
X4840Y21844
X4840Y22594
X5340Y22594
X5840Y22594
X6340Y22594
X6840Y22594
X7340Y22594
X7840Y22594
X8340Y22594
X8840Y22594
X9340Y22594
X9840Y22594
X10340Y22594
X10840Y22594
X11340Y22594
X11840Y22594
X12340Y22594
X12840Y22594
X13340Y22594
X13840Y22594
X14340Y22594
X14840Y22594
X15340Y22594
X15840Y22594
X16340Y22594
X16840Y22594
X17340Y22594
X17840Y22594
X18340Y22594
X18840Y22594
X19340Y22594
X19840Y22594
X20340Y22594
X20840Y22594
X21340Y22594
X21840Y22594
X22340Y22594
X22840Y22594
X23340Y22594
X23840Y22594
X24340Y22594
X24840Y22594
X25340Y22594
X25840Y22594
X26340Y22594
X26840Y22594
X27340Y22594
X27840Y22594
X28340Y22594
X28840Y22594
X29340Y22594
X29340Y21844
X28840Y21844
X28340Y21844
X27840Y21844
X27340Y21844
X26840Y21844
X26340Y21844
X25840Y21844
X25340Y21844
X26657Y20408
X4433Y2455
T03
X17071Y16156
X17071Y16746
X17071Y17337
T04
X17161Y24171
X16161Y24171
X15161Y24171
X14161Y24171
X13161Y24171
X12161Y24171
X11161Y24171
X10161Y24171
X9161Y24171
X8161Y24171
X7161Y24171
X6161Y24171
X6161Y25171
X7161Y25171
X8161Y25171
X9161Y25171
X10161Y25171
X11161Y25171
X12161Y25171
X13161Y25171
X14161Y25171
X15161Y25171
X16161Y25171
X17161Y25171
X18161Y25171
X18161Y24171
X19161Y24171
X20161Y24171
X21161Y24171
X22161Y24171
X22161Y25171
X21161Y25171
X20161Y25171
X19161Y25171
X19161Y26171
X20161Y26171
X21161Y26171
X22161Y26171
X22161Y27171
X21161Y27171
X20161Y27171
X19161Y27171
X18161Y27171
X18161Y26171
X17161Y26171
X16161Y26171
X15161Y26171
X14161Y26171
X13161Y26171
X12161Y26171
X11161Y26171
X10161Y26171
X9161Y26171
X8161Y26171
X7161Y26171
X6161Y26171
X6161Y27171
X7161Y27171
X8161Y27171
X9161Y27171
X10161Y27171
X11161Y27171
X12161Y27171
X13161Y27171
X14161Y27171
X15161Y27171
X16161Y27171
X17161Y27171
X17161Y28171
X16161Y28171
X15161Y28171
X14161Y28171
X13161Y28171
X12161Y28171
X11161Y28171
X10161Y28171
X9161Y28171
X8161Y28171
X7161Y28171
X6161Y28171
X6161Y29171
X7161Y29171
X8161Y29171
X9161Y29171
X10161Y29171
X11161Y29171
X12161Y29171
X13161Y29171
X14161Y29171
X15161Y29171
X16161Y29171
X17161Y29171
X18161Y29171
X18161Y28171
X19161Y28171
X20161Y28171
X21161Y28171
X22161Y28171
X22161Y29171
X21161Y29171
X20161Y29171
X19161Y29171
X19161Y30171
X20161Y30171
X21161Y30171
X22161Y30171
X22161Y31171
X21161Y31171
X20161Y31171
X19161Y31171
X18161Y31171
X18161Y30171
X17161Y30171
X16161Y30171
X15161Y30171
X14161Y30171
X13161Y30171
X12161Y30171
X11161Y30171
X10161Y30171
X9161Y30171
X8161Y30171
X7161Y30171
X6161Y30171
X6161Y31171
X7161Y31171
X8161Y31171
X9161Y31171
X10161Y31171
X11161Y31171
X12161Y31171
X13161Y31171
X14161Y31171
X15161Y31171
X16161Y31171
X17161Y31171
X17161Y32171
X16161Y32171
X15161Y32171
X14161Y32171
X13161Y32171
X12161Y32171
X11161Y32171
X10161Y32171
X9161Y32171
X8161Y32171
X7161Y32171
X6161Y32171
X18161Y32171
X19161Y32171
X20161Y32171
X21161Y32171
X22161Y32171
T05
X32642Y27943
X32642Y26943
X32642Y25943
X27768Y15289
X26768Y15289
X31551Y11589
X32551Y11589
X32551Y10211
X31551Y10211
X21161Y10459
X21161Y11459
X21161Y9459
X21161Y8459
X19571Y2337
X18571Y2337
X17571Y2337
X16571Y2337
X15571Y2337
X14571Y2337
X6173Y18656
X5173Y18656
X5161Y24171
X5161Y25171
X5161Y26171
X5161Y27171
X5161Y28171
X5161Y29171
X5161Y30171
X5161Y31171
X5161Y32171
T06
X30207Y21274
T07
X1539Y2337
X1539Y31864
X32642Y31864
X32642Y2337
M30
