G75*
G70*
%OFA0B0*%
%FSLAX24Y24*%
%IPPOS*%
%LPD*%
%AMOC8*
5,1,8,0,0,1.08239X$1,22.5*
%
%ADD10C,0.1340*%
%ADD11C,0.0434*%
%ADD12C,0.0631*%
%ADD13C,0.0493*%
%ADD14R,0.0493X0.0493*%
%ADD15OC8,0.0680*%
%ADD16C,0.0680*%
%ADD17C,0.0789*%
D10*
X001539Y002337D03*
X001539Y031864D03*
X032642Y031864D03*
X032642Y002337D03*
D11*
X025437Y012474D03*
X025437Y018715D03*
X025023Y020408D03*
X024840Y021844D03*
X024340Y021844D03*
X023840Y021844D03*
X023340Y021844D03*
X022840Y021844D03*
X022340Y021844D03*
X021840Y021844D03*
X021340Y021844D03*
X020840Y021844D03*
X020340Y021844D03*
X019840Y021844D03*
X019340Y021844D03*
X018840Y021844D03*
X018340Y021844D03*
X017840Y021844D03*
X017340Y021844D03*
X016840Y021844D03*
X016340Y021844D03*
X015840Y021844D03*
X015340Y021844D03*
X014840Y021844D03*
X014340Y021844D03*
X013840Y021844D03*
X013340Y021844D03*
X012840Y021844D03*
X012340Y021844D03*
X011840Y021844D03*
X011340Y021844D03*
X010840Y021844D03*
X010340Y021844D03*
X009840Y021844D03*
X009340Y021844D03*
X008840Y021844D03*
X008340Y021844D03*
X007840Y021844D03*
X007340Y021844D03*
X006840Y021844D03*
X006340Y021844D03*
X005840Y021844D03*
X005340Y021844D03*
X004840Y021844D03*
X004840Y022594D03*
X005340Y022594D03*
X005840Y022594D03*
X006340Y022594D03*
X006840Y022594D03*
X007340Y022594D03*
X007840Y022594D03*
X008340Y022594D03*
X008840Y022594D03*
X009340Y022594D03*
X009840Y022594D03*
X010340Y022594D03*
X010840Y022594D03*
X011340Y022594D03*
X011840Y022594D03*
X012340Y022594D03*
X012840Y022594D03*
X013340Y022594D03*
X013840Y022594D03*
X014340Y022594D03*
X014840Y022594D03*
X015340Y022594D03*
X015840Y022594D03*
X016340Y022594D03*
X016840Y022594D03*
X017340Y022594D03*
X017840Y022594D03*
X018340Y022594D03*
X018840Y022594D03*
X019340Y022594D03*
X019840Y022594D03*
X020340Y022594D03*
X020840Y022594D03*
X021340Y022594D03*
X021840Y022594D03*
X022340Y022594D03*
X022840Y022594D03*
X023340Y022594D03*
X023840Y022594D03*
X024340Y022594D03*
X024840Y022594D03*
X025340Y022594D03*
X025840Y022594D03*
X026340Y022594D03*
X026840Y022594D03*
X027340Y022594D03*
X027840Y022594D03*
X028340Y022594D03*
X028840Y022594D03*
X029340Y022594D03*
X029340Y021844D03*
X028840Y021844D03*
X028340Y021844D03*
X027840Y021844D03*
X027340Y021844D03*
X026840Y021844D03*
X026340Y021844D03*
X025840Y021844D03*
X025340Y021844D03*
X026657Y020408D03*
X004433Y002455D03*
D12*
X030207Y021274D03*
D13*
X017071Y016746D03*
X017071Y016156D03*
D14*
X017071Y017337D03*
D15*
X021161Y011459D03*
X026768Y015289D03*
X032551Y011589D03*
X032551Y010211D03*
X032642Y025943D03*
X014571Y002337D03*
X005173Y018656D03*
X005161Y026171D03*
X005161Y028171D03*
X005161Y032171D03*
D16*
X005161Y031171D03*
X005161Y030171D03*
X005161Y029171D03*
X005161Y027171D03*
X005161Y025171D03*
X005161Y024171D03*
X006173Y018656D03*
X021161Y010459D03*
X021161Y009459D03*
X021161Y008459D03*
X019571Y002337D03*
X018571Y002337D03*
X017571Y002337D03*
X016571Y002337D03*
X015571Y002337D03*
X027768Y015289D03*
X031551Y011589D03*
X031551Y010211D03*
X032642Y026943D03*
X032642Y027943D03*
D17*
X022161Y028171D03*
X022161Y027171D03*
X022161Y026171D03*
X022161Y025171D03*
X022161Y024171D03*
X021161Y024171D03*
X020161Y024171D03*
X019161Y024171D03*
X018161Y024171D03*
X017161Y024171D03*
X016161Y024171D03*
X015161Y024171D03*
X014161Y024171D03*
X013161Y024171D03*
X012161Y024171D03*
X011161Y024171D03*
X010161Y024171D03*
X009161Y024171D03*
X008161Y024171D03*
X007161Y024171D03*
X006161Y024171D03*
X006161Y025171D03*
X007161Y025171D03*
X008161Y025171D03*
X009161Y025171D03*
X010161Y025171D03*
X011161Y025171D03*
X012161Y025171D03*
X013161Y025171D03*
X014161Y025171D03*
X015161Y025171D03*
X016161Y025171D03*
X017161Y025171D03*
X018161Y025171D03*
X019161Y025171D03*
X020161Y025171D03*
X021161Y025171D03*
X021161Y026171D03*
X020161Y026171D03*
X019161Y026171D03*
X018161Y026171D03*
X017161Y026171D03*
X016161Y026171D03*
X015161Y026171D03*
X014161Y026171D03*
X013161Y026171D03*
X012161Y026171D03*
X011161Y026171D03*
X010161Y026171D03*
X009161Y026171D03*
X008161Y026171D03*
X007161Y026171D03*
X006161Y026171D03*
X006161Y027171D03*
X007161Y027171D03*
X008161Y027171D03*
X009161Y027171D03*
X010161Y027171D03*
X011161Y027171D03*
X012161Y027171D03*
X013161Y027171D03*
X014161Y027171D03*
X015161Y027171D03*
X016161Y027171D03*
X017161Y027171D03*
X018161Y027171D03*
X019161Y027171D03*
X020161Y027171D03*
X021161Y027171D03*
X021161Y028171D03*
X020161Y028171D03*
X019161Y028171D03*
X018161Y028171D03*
X017161Y028171D03*
X016161Y028171D03*
X015161Y028171D03*
X014161Y028171D03*
X013161Y028171D03*
X012161Y028171D03*
X011161Y028171D03*
X010161Y028171D03*
X009161Y028171D03*
X008161Y028171D03*
X007161Y028171D03*
X006161Y028171D03*
X006161Y029171D03*
X007161Y029171D03*
X008161Y029171D03*
X009161Y029171D03*
X010161Y029171D03*
X011161Y029171D03*
X012161Y029171D03*
X013161Y029171D03*
X014161Y029171D03*
X015161Y029171D03*
X016161Y029171D03*
X017161Y029171D03*
X018161Y029171D03*
X019161Y029171D03*
X020161Y029171D03*
X021161Y029171D03*
X022161Y029171D03*
X022161Y030171D03*
X021161Y030171D03*
X020161Y030171D03*
X019161Y030171D03*
X018161Y030171D03*
X017161Y030171D03*
X016161Y030171D03*
X015161Y030171D03*
X014161Y030171D03*
X013161Y030171D03*
X012161Y030171D03*
X011161Y030171D03*
X010161Y030171D03*
X009161Y030171D03*
X008161Y030171D03*
X007161Y030171D03*
X006161Y030171D03*
X006161Y031171D03*
X007161Y031171D03*
X008161Y031171D03*
X009161Y031171D03*
X010161Y031171D03*
X011161Y031171D03*
X012161Y031171D03*
X013161Y031171D03*
X014161Y031171D03*
X015161Y031171D03*
X016161Y031171D03*
X017161Y031171D03*
X018161Y031171D03*
X019161Y031171D03*
X020161Y031171D03*
X021161Y031171D03*
X022161Y031171D03*
X022161Y032171D03*
X021161Y032171D03*
X020161Y032171D03*
X019161Y032171D03*
X018161Y032171D03*
X017161Y032171D03*
X016161Y032171D03*
X015161Y032171D03*
X014161Y032171D03*
X013161Y032171D03*
X012161Y032171D03*
X011161Y032171D03*
X010161Y032171D03*
X009161Y032171D03*
X008161Y032171D03*
X007161Y032171D03*
X006161Y032171D03*
M02*
