G75*
G70*
%OFA0B0*%
%FSLAX24Y24*%
%IPPOS*%
%LPD*%
%AMOC8*
5,1,8,0,0,1.08239X$1,22.5*
%
%ADD10C,0.0354*%
%ADD11C,0.0413*%
%ADD12R,0.0413X0.0413*%
%ADD13OC8,0.0600*%
%ADD14C,0.0600*%
%ADD15C,0.0236*%
%ADD16C,0.0098*%
%ADD17C,0.0236*%
%ADD18C,0.0079*%
%ADD19C,0.0120*%
%ADD20C,0.0157*%
%ADD21C,0.0709*%
D10*
X004433Y002455D03*
X004840Y021844D03*
X005340Y021844D03*
X005840Y021844D03*
X006340Y021844D03*
X006840Y021844D03*
X007340Y021844D03*
X007840Y021844D03*
X008340Y021844D03*
X008840Y021844D03*
X009340Y021844D03*
X009840Y021844D03*
X010340Y021844D03*
X010840Y021844D03*
X011340Y021844D03*
X011840Y021844D03*
X012340Y021844D03*
X012840Y021844D03*
X013340Y021844D03*
X013840Y021844D03*
X014340Y021844D03*
X014840Y021844D03*
X015340Y021844D03*
X015840Y021844D03*
X016340Y021844D03*
X016840Y021844D03*
X017340Y021844D03*
X017840Y021844D03*
X018340Y021844D03*
X018840Y021844D03*
X019340Y021844D03*
X019840Y021844D03*
X020340Y021844D03*
X020840Y021844D03*
X021340Y021844D03*
X021840Y021844D03*
X022340Y021844D03*
X022840Y021844D03*
X023340Y021844D03*
X023840Y021844D03*
X024340Y021844D03*
X024840Y021844D03*
X025340Y021844D03*
X025840Y021844D03*
X026340Y021844D03*
X026840Y021844D03*
X027340Y021844D03*
X027840Y021844D03*
X028340Y021844D03*
X028840Y021844D03*
X029340Y021844D03*
X029340Y022594D03*
X028840Y022594D03*
X028340Y022594D03*
X027840Y022594D03*
X027340Y022594D03*
X026840Y022594D03*
X026340Y022594D03*
X025840Y022594D03*
X025340Y022594D03*
X024840Y022594D03*
X024340Y022594D03*
X023840Y022594D03*
X023340Y022594D03*
X022840Y022594D03*
X022340Y022594D03*
X021840Y022594D03*
X021340Y022594D03*
X020840Y022594D03*
X020340Y022594D03*
X019840Y022594D03*
X019340Y022594D03*
X018840Y022594D03*
X018340Y022594D03*
X017840Y022594D03*
X017340Y022594D03*
X016840Y022594D03*
X016340Y022594D03*
X015840Y022594D03*
X015340Y022594D03*
X014840Y022594D03*
X014340Y022594D03*
X013840Y022594D03*
X013340Y022594D03*
X012840Y022594D03*
X012340Y022594D03*
X011840Y022594D03*
X011340Y022594D03*
X010840Y022594D03*
X010340Y022594D03*
X009840Y022594D03*
X009340Y022594D03*
X008840Y022594D03*
X008340Y022594D03*
X007840Y022594D03*
X007340Y022594D03*
X006840Y022594D03*
X006340Y022594D03*
X005840Y022594D03*
X005340Y022594D03*
X004840Y022594D03*
X025023Y020408D03*
X026657Y020408D03*
X025437Y018715D03*
X025437Y012474D03*
D11*
X017071Y016156D03*
X017071Y016746D03*
D12*
X017071Y017337D03*
D13*
X021161Y011459D03*
X026768Y015289D03*
X032551Y011589D03*
X032551Y010211D03*
X032642Y025943D03*
X014571Y002337D03*
X005173Y018656D03*
X005161Y026171D03*
X005161Y028171D03*
X005161Y032171D03*
D14*
X005161Y031171D03*
X005161Y030171D03*
X005161Y029171D03*
X005161Y027171D03*
X005161Y025171D03*
X005161Y024171D03*
X006173Y018656D03*
X021161Y010459D03*
X021161Y009459D03*
X021161Y008459D03*
X019571Y002337D03*
X018571Y002337D03*
X017571Y002337D03*
X016571Y002337D03*
X015571Y002337D03*
X027768Y015289D03*
X031551Y011589D03*
X031551Y010211D03*
X032642Y026943D03*
X032642Y027943D03*
D15*
X027720Y023813D03*
X027228Y020939D03*
X026342Y019620D03*
X026303Y019148D03*
X026303Y018715D03*
X026303Y018341D03*
X026323Y017908D03*
X026323Y017514D03*
X026323Y017100D03*
X028271Y017100D03*
X028271Y017514D03*
X028291Y017908D03*
X028311Y018341D03*
X028311Y018734D03*
X028311Y019128D03*
X028882Y020014D03*
X029354Y019876D03*
X031027Y018951D03*
X029413Y017730D03*
X031106Y015821D03*
X029866Y014600D03*
X029354Y013459D03*
X029827Y013203D03*
X030319Y012691D03*
X029807Y011707D03*
X029472Y011195D03*
X028705Y009679D03*
X028350Y009856D03*
X028429Y009266D03*
X029512Y009423D03*
X030023Y008813D03*
X030614Y008557D03*
X029984Y008045D03*
X029610Y008045D03*
X030181Y007337D03*
X031401Y006904D03*
X030516Y005762D03*
X030870Y005486D03*
X030023Y005211D03*
X028882Y005486D03*
X028370Y005762D03*
X027858Y005211D03*
X026697Y005486D03*
X026205Y005762D03*
X025693Y005211D03*
X024551Y005486D03*
X024039Y005762D03*
X023547Y005408D03*
X023535Y004648D03*
X022189Y005467D03*
X022327Y005919D03*
X021067Y007160D03*
X020634Y007160D03*
X020457Y007494D03*
X020535Y006707D03*
X021953Y007691D03*
X023803Y009167D03*
X024177Y010152D03*
X023803Y010506D03*
X023527Y010880D03*
X024000Y011372D03*
X024472Y010860D03*
X026480Y010486D03*
X026460Y011333D03*
X027937Y010919D03*
X026953Y008872D03*
X028370Y008026D03*
X028409Y007652D03*
X027858Y006943D03*
X026716Y006982D03*
X024472Y008163D03*
X024177Y008045D03*
X021992Y010349D03*
X020378Y011372D03*
X020161Y012140D03*
X018921Y013400D03*
X019827Y014345D03*
X019453Y014719D03*
X018764Y015585D03*
X017425Y015309D03*
X017523Y013203D03*
X015476Y012612D03*
X015083Y012612D03*
X014649Y012474D03*
X014295Y012868D03*
X013783Y012356D03*
X014138Y011963D03*
X014709Y010998D03*
X015102Y010998D03*
X013429Y009817D03*
X012090Y008577D03*
X010614Y007632D03*
X010437Y007160D03*
X009512Y007337D03*
X010555Y008341D03*
X010555Y008813D03*
X010693Y010073D03*
X012720Y012356D03*
X013232Y012415D03*
X013055Y014915D03*
X013449Y014915D03*
X013882Y016077D03*
X014433Y016077D03*
X013744Y017061D03*
X013449Y017494D03*
X014846Y015329D03*
X016382Y019148D03*
X019295Y019187D03*
X021618Y018656D03*
X020358Y015486D03*
X020673Y014837D03*
X021460Y014463D03*
X022858Y014286D03*
X023783Y013518D03*
X024334Y013478D03*
X024512Y014246D03*
X025043Y014226D03*
X025417Y015191D03*
X024275Y015604D03*
X026894Y013459D03*
X027858Y013990D03*
X031106Y013793D03*
X031894Y014266D03*
X032051Y010919D03*
X030358Y009502D03*
X032031Y008301D03*
X032701Y008400D03*
X028764Y002750D03*
X024453Y002770D03*
X022760Y002297D03*
X021677Y003223D03*
X020909Y003242D03*
X018744Y004679D03*
X016815Y003223D03*
X016205Y003262D03*
X015397Y004679D03*
X014689Y005073D03*
X014886Y005663D03*
X014905Y006057D03*
X014098Y006234D03*
X014472Y007494D03*
X015653Y008223D03*
X015850Y008537D03*
X015575Y008872D03*
X016008Y007868D03*
X016008Y007160D03*
X015850Y006549D03*
X016579Y006845D03*
X017622Y007494D03*
X019059Y006982D03*
X018291Y009049D03*
X017563Y009384D03*
X017287Y009167D03*
X012720Y004167D03*
X013331Y003301D03*
X013803Y003695D03*
X014157Y003282D03*
X012838Y002435D03*
X012976Y002100D03*
X012169Y002140D03*
X012346Y001471D03*
X011894Y001490D03*
X011953Y002908D03*
X010161Y002671D03*
X010083Y003971D03*
X011972Y005860D03*
X007799Y005860D03*
X007779Y006352D03*
X007779Y006845D03*
X007779Y007849D03*
X007799Y009797D03*
X005220Y007868D03*
X004197Y007278D03*
X003311Y007278D03*
X003724Y006411D03*
X003252Y005683D03*
X002287Y005565D03*
X001953Y006057D03*
X001697Y006333D03*
X002642Y004187D03*
X005004Y003459D03*
X005102Y003951D03*
X006244Y002888D03*
X007130Y002356D03*
X004827Y001156D03*
X003901Y001510D03*
X005634Y006352D03*
X003646Y008813D03*
X003390Y009089D03*
X003665Y009384D03*
X003311Y012652D03*
X004177Y012652D03*
X004748Y012868D03*
X005397Y012691D03*
X005653Y015250D03*
X004551Y015250D03*
X004118Y017219D03*
X004905Y017494D03*
X005811Y017219D03*
X006657Y016136D03*
X007031Y016471D03*
X007523Y016116D03*
X009295Y018104D03*
X010142Y017219D03*
X010929Y017337D03*
X009984Y014128D03*
X004157Y019207D03*
X003941Y019541D03*
X002858Y018971D03*
X002287Y018656D03*
X001933Y018892D03*
X001067Y018242D03*
X000575Y018675D03*
X004059Y023478D03*
X006027Y020230D03*
X011520Y020860D03*
X016146Y001293D03*
X032563Y020329D03*
D16*
X031106Y015821D02*
X027299Y015821D01*
X026768Y015289D01*
X025437Y015171D02*
X025417Y015191D01*
X025437Y015171D02*
X025437Y012474D01*
X026027Y011116D02*
X026224Y010919D01*
X027937Y010919D01*
X024472Y010860D02*
X024472Y008163D01*
X024177Y008045D02*
X024177Y010152D01*
X023803Y010506D02*
X023803Y009167D01*
X023527Y010880D02*
X023527Y010900D01*
X024000Y011372D01*
X021992Y010349D02*
X021953Y010289D01*
X021953Y007691D01*
X019157Y007947D02*
X019157Y009719D01*
X020240Y010801D01*
X020240Y011097D01*
X020102Y011254D01*
X020102Y011510D01*
X020260Y011687D01*
X020260Y012041D01*
X020161Y012140D01*
X020673Y011667D02*
X020378Y011372D01*
X021122Y011376D01*
X021161Y011459D01*
X020673Y011667D02*
X020673Y014837D01*
X020358Y015486D02*
X019295Y015486D01*
X017474Y017307D01*
X018823Y018656D01*
X021618Y018656D01*
X023842Y020230D02*
X024216Y019856D01*
X024216Y016195D01*
X025220Y015191D01*
X023842Y020230D02*
X006027Y020230D01*
X004157Y019207D02*
X004157Y018990D01*
X004157Y017258D01*
X004118Y017219D01*
X003941Y019541D02*
X019157Y019541D01*
X019295Y019423D01*
X019295Y019187D01*
X017445Y017337D02*
X017071Y017337D01*
X017445Y017337D02*
X017474Y017307D01*
X017071Y016746D02*
X017622Y016195D01*
X017622Y015762D01*
X017799Y015585D01*
X018764Y015585D01*
X014433Y016077D02*
X013882Y016077D01*
X013744Y017061D02*
X010299Y017061D01*
X010142Y017219D01*
X009886Y017593D02*
X010673Y017593D01*
X010929Y017337D01*
X009886Y017593D02*
X009374Y018104D01*
X009295Y018104D01*
X009984Y014128D02*
X009984Y013537D01*
X010181Y013341D01*
X012405Y013341D01*
X013232Y012514D01*
X013232Y012415D01*
X012090Y009679D02*
X010299Y009679D01*
X009984Y009364D01*
X003842Y009384D01*
X003665Y009384D01*
X003685Y009384D01*
X003390Y009089D02*
X010083Y009089D01*
X010397Y009404D01*
X012071Y009404D01*
X012858Y008616D01*
X015319Y008616D01*
X015575Y008872D01*
X015535Y008537D02*
X015850Y008537D01*
X015535Y008537D02*
X015417Y008419D01*
X012760Y008419D01*
X012051Y009128D01*
X010476Y009128D01*
X010161Y008813D01*
X003646Y008813D01*
X005220Y007868D02*
X007681Y007868D01*
X007779Y007849D01*
X009512Y007849D01*
X009512Y007337D01*
X009512Y007849D02*
X010063Y007849D01*
X010555Y008341D01*
X010555Y008813D02*
X011854Y008813D01*
X012090Y008577D01*
X012307Y008577D01*
X012661Y008223D01*
X015653Y008223D01*
X016008Y007868D02*
X010850Y007868D01*
X010614Y007632D01*
X010437Y007160D02*
X016008Y007160D01*
X015850Y006549D02*
X014886Y006549D01*
X013941Y005604D01*
X013941Y004620D01*
X013488Y004167D01*
X012720Y004167D01*
X011953Y005349D02*
X011953Y002908D01*
X012158Y002553D02*
X011618Y002553D01*
X010083Y003971D01*
X011953Y005349D02*
X012838Y006234D01*
X014098Y006234D01*
X014905Y006057D02*
X016697Y006057D01*
X018724Y008085D01*
X018724Y009915D01*
X019551Y010742D01*
X019590Y010447D02*
X018941Y009797D01*
X018941Y008006D01*
X016598Y005663D01*
X014886Y005663D01*
X014695Y005078D02*
X014699Y005075D01*
X014699Y005075D01*
X012158Y002553D01*
X014571Y002356D02*
X016579Y004364D01*
X016579Y005368D01*
X019157Y007947D01*
X019059Y006982D02*
X018724Y006628D01*
X018744Y004679D01*
X018744Y003321D01*
X019079Y002986D01*
X019079Y002415D01*
X019000Y002337D01*
X018571Y002337D01*
X015397Y004679D02*
X015122Y004679D01*
X015083Y004719D01*
X014713Y005059D01*
X014697Y005075D01*
X014699Y005075D01*
X014689Y005073D02*
X014713Y005059D01*
X016579Y006845D02*
X007779Y006845D01*
X007779Y006352D02*
X005634Y006352D01*
X004000Y005191D02*
X003508Y005683D01*
X003252Y005683D01*
X004000Y005191D02*
X004000Y003695D01*
X004236Y003459D01*
X005004Y003459D01*
X006244Y003104D02*
X006244Y002888D01*
X006244Y003104D02*
X007799Y004679D01*
X007799Y005860D01*
X011972Y005860D01*
X014472Y007494D02*
X017622Y007494D01*
X018291Y009049D02*
X017957Y009384D01*
X017563Y009384D01*
X017287Y009167D02*
X017228Y009246D01*
X015516Y009246D01*
X015083Y008813D01*
X012957Y008813D01*
X012090Y009679D01*
X014571Y002356D02*
X014571Y002337D01*
D17*
X018571Y002337D02*
X019571Y002337D01*
X026768Y015289D02*
X025437Y016620D01*
X025437Y018715D01*
X027228Y020939D02*
X027012Y021156D01*
X005575Y021156D01*
X005340Y021390D01*
X005340Y021844D01*
X004840Y021844D01*
X005340Y021844D02*
X005340Y022594D01*
X004840Y022594D01*
X005142Y023085D02*
X005161Y024049D01*
D18*
X005153Y024097D01*
X005161Y024171D01*
X004590Y023301D02*
X004157Y022868D01*
X004157Y020191D01*
X003508Y019541D01*
X003508Y014758D01*
X004374Y013852D01*
X004374Y013715D01*
X005397Y012691D01*
X004748Y012868D02*
X004748Y013104D01*
X004197Y013656D01*
X004197Y013813D01*
X003350Y014699D01*
X003350Y019620D01*
X004000Y020270D01*
X004000Y022927D01*
X004433Y023360D01*
X004433Y027593D01*
X005012Y028171D01*
X005161Y028171D01*
X004275Y028297D02*
X005149Y029171D01*
X005161Y029171D01*
X005161Y030167D02*
X004118Y029124D01*
X004118Y024837D01*
X004000Y024719D01*
X001244Y024719D01*
X001224Y024738D01*
X000693Y024207D01*
X000693Y019345D01*
X001598Y018439D01*
X001598Y014955D01*
X001795Y014758D01*
X001795Y006845D01*
X001382Y006431D01*
X001382Y006077D01*
X003390Y004049D01*
X003390Y003026D01*
X004787Y001628D01*
X011775Y001608D01*
X011894Y001490D01*
X011736Y001215D02*
X012090Y001215D01*
X012346Y001471D01*
X011736Y001215D02*
X011500Y001451D01*
X004748Y001451D01*
X003232Y002967D01*
X003232Y003990D01*
X001224Y006018D01*
X001224Y006490D01*
X001638Y006904D01*
X001638Y014679D01*
X001441Y014876D01*
X001441Y018380D01*
X000535Y019286D01*
X000535Y024266D01*
X001146Y024876D01*
X003862Y024876D01*
X003941Y024955D01*
X003941Y030014D01*
X005138Y031171D01*
X005161Y031171D01*
X005161Y030171D02*
X005161Y030167D01*
X004275Y028297D02*
X004275Y024758D01*
X004079Y024561D01*
X001264Y024561D01*
X000850Y024148D01*
X000850Y019404D01*
X001756Y018498D01*
X001756Y015034D01*
X001972Y014817D01*
X001972Y006608D01*
X001697Y006333D01*
X001972Y006313D02*
X001953Y006116D01*
X001953Y006057D01*
X001972Y006313D02*
X002130Y006490D01*
X002130Y014896D01*
X001933Y015093D01*
X001933Y018892D01*
X002287Y018656D02*
X002287Y005565D01*
X002642Y004187D02*
X003075Y003774D01*
X003075Y002908D01*
X004827Y001156D01*
X007130Y002356D02*
X007130Y003183D01*
X007897Y003951D01*
X010063Y003951D01*
X010083Y003971D01*
X012169Y002140D02*
X013331Y003301D01*
X013803Y003400D02*
X012838Y002435D01*
X012976Y002100D02*
X014157Y003282D01*
X013803Y003400D02*
X013803Y003695D01*
X016205Y003262D02*
X016756Y003813D01*
X016756Y005289D01*
X017957Y006490D01*
X018705Y007258D01*
X018941Y007494D01*
X020457Y007494D01*
X020634Y007160D02*
X020260Y007160D01*
X020102Y007317D01*
X019000Y007317D01*
X018055Y006372D01*
X016933Y005230D01*
X016913Y003321D01*
X016815Y003223D01*
X019571Y002337D02*
X019610Y002297D01*
X022760Y002297D01*
X021677Y003223D02*
X021677Y005034D01*
X021834Y005191D01*
X022327Y005191D01*
X022445Y005309D01*
X022445Y005801D01*
X022327Y005919D01*
X022189Y005467D02*
X022090Y005427D01*
X021441Y005427D01*
X020909Y004896D01*
X020909Y003242D01*
X023535Y004648D02*
X023535Y005396D01*
X023547Y005408D01*
X023547Y005309D01*
X023646Y005211D01*
X025693Y005211D01*
X027858Y005211D01*
X030023Y005211D01*
X030516Y005762D02*
X028370Y005762D01*
X026205Y005762D01*
X024039Y005762D01*
X024551Y005486D02*
X026697Y005486D01*
X028882Y005486D01*
X028862Y005506D01*
X028882Y005486D02*
X030870Y005486D01*
X030870Y006687D01*
X030712Y006805D01*
X028665Y006805D01*
X028409Y007061D01*
X028409Y007652D01*
X028370Y008026D02*
X028586Y008026D01*
X028803Y007809D01*
X029413Y007809D01*
X029472Y007750D01*
X030279Y007750D01*
X030338Y007809D01*
X032248Y007809D01*
X032031Y008301D01*
X032209Y008557D02*
X031775Y008557D01*
X031677Y008459D01*
X031677Y008144D01*
X031559Y008026D01*
X029984Y008045D01*
X030181Y008262D02*
X029866Y008577D01*
X029000Y008577D01*
X028882Y008734D01*
X028882Y009423D01*
X028960Y009502D01*
X028960Y009876D01*
X028882Y009955D01*
X028488Y009955D01*
X028390Y009856D01*
X028350Y009856D01*
X028705Y009679D02*
X028705Y008577D01*
X029256Y008045D01*
X029610Y008045D01*
X030181Y008262D02*
X030988Y008262D01*
X031460Y008774D01*
X032386Y008774D01*
X032701Y008400D01*
X032346Y008419D02*
X032346Y008183D01*
X032523Y008006D01*
X032858Y008006D01*
X033075Y008242D01*
X033075Y020152D01*
X033527Y020604D01*
X033527Y023931D01*
X033390Y024069D01*
X027543Y024069D01*
X027340Y023866D01*
X027340Y022594D01*
X026840Y022594D02*
X026834Y022599D01*
X026834Y023813D01*
X027248Y024226D01*
X033449Y024226D01*
X033685Y023990D01*
X033685Y020526D01*
X033232Y020073D01*
X033232Y008163D01*
X032917Y007809D01*
X032248Y007809D01*
X032346Y008419D02*
X032209Y008557D01*
X031323Y009502D02*
X031559Y009738D01*
X031559Y010203D01*
X031551Y010211D01*
X031323Y009502D02*
X030358Y009502D01*
X030023Y008813D02*
X030279Y008557D01*
X030614Y008557D01*
X028429Y009010D02*
X028429Y009266D01*
X028429Y009010D02*
X028291Y008872D01*
X026953Y008872D01*
X029472Y011195D02*
X031146Y011195D01*
X031185Y011234D01*
X031551Y011589D01*
X032551Y011589D02*
X032551Y010211D01*
X030752Y012711D02*
X030752Y014049D01*
X031756Y015093D01*
X031756Y019148D01*
X031323Y019600D01*
X029630Y019600D01*
X029354Y019876D01*
X029157Y019620D02*
X026342Y019620D01*
X029157Y019620D02*
X029374Y019404D01*
X031224Y019404D01*
X031559Y019049D01*
X031559Y015152D01*
X030319Y013892D01*
X030319Y012691D01*
X030752Y012711D02*
X029807Y011707D01*
X029827Y013203D02*
X029827Y014561D01*
X029866Y014600D01*
X028457Y014600D01*
X027768Y015289D01*
X026894Y013459D02*
X029354Y013459D01*
X031106Y013793D02*
X031421Y013793D01*
X031894Y014266D01*
X025043Y014207D02*
X025043Y014226D01*
X025043Y014207D02*
X024334Y013478D01*
X023783Y013518D02*
X024512Y014246D01*
X021638Y014246D02*
X021638Y007730D01*
X021067Y007160D01*
X021579Y006707D02*
X020535Y006707D01*
X021579Y006707D02*
X021953Y007120D01*
X021953Y007691D01*
X018941Y009797D02*
X019925Y010782D01*
X019925Y011864D01*
X019827Y011963D01*
X019827Y014345D01*
X019571Y014600D02*
X019453Y014719D01*
X019571Y014600D02*
X019571Y011904D01*
X019669Y011805D01*
X019669Y010860D01*
X019551Y010742D01*
X017523Y013203D02*
X017523Y014758D01*
X016539Y015742D01*
X016539Y017238D01*
X016283Y017494D01*
X013449Y017494D01*
X013449Y014915D02*
X013449Y013813D01*
X014118Y013124D01*
X014394Y013124D01*
X014649Y012888D01*
X014649Y012474D01*
X014138Y011963D01*
X013783Y012356D02*
X013055Y013085D01*
X013055Y014915D01*
X014295Y012868D02*
X013783Y012356D01*
X015083Y012612D02*
X015063Y011352D01*
X014709Y010998D01*
X015102Y010998D02*
X015476Y011352D01*
X015476Y012612D01*
X016539Y017238D02*
X016539Y017337D01*
X017071Y017337D01*
X021460Y014463D02*
X021460Y014423D01*
X021638Y014246D01*
X028840Y022594D02*
X028842Y022596D01*
X028842Y023557D01*
X028606Y023813D01*
X027720Y023813D01*
X027189Y024384D02*
X026657Y023852D01*
X026657Y023282D01*
X026539Y023163D01*
X005575Y023163D01*
X005338Y022927D01*
X005338Y022888D01*
X005142Y023085D01*
X005338Y022888D02*
X005338Y022596D01*
X005340Y022594D01*
X004590Y023301D02*
X004590Y026707D01*
X005055Y027171D01*
X005161Y027171D01*
X004157Y018990D02*
X004492Y018656D01*
X005173Y018656D01*
X005240Y017494D02*
X004905Y017494D01*
X005240Y017494D02*
X005319Y017415D01*
X005319Y016411D01*
X005673Y016057D01*
X006579Y016057D01*
X006657Y016136D01*
X007031Y016471D02*
X007386Y016116D01*
X007523Y016116D01*
X005811Y017219D02*
X010142Y017219D01*
X005653Y015250D02*
X004551Y015250D01*
X004118Y014758D02*
X004118Y017219D01*
X004118Y014758D02*
X004138Y014738D01*
X004394Y014463D01*
X005358Y014463D01*
X005397Y014423D01*
X027189Y024384D02*
X032130Y024384D01*
X032149Y024404D01*
X032149Y027494D01*
X032598Y027943D01*
X032642Y027943D01*
D19*
X000714Y001250D02*
X000947Y000957D01*
X001240Y000724D01*
X001577Y000561D01*
X001942Y000478D01*
X002130Y000468D01*
X002189Y000468D01*
X031992Y000468D01*
X032051Y000468D01*
X032238Y000478D01*
X032603Y000561D01*
X032941Y000724D01*
X033234Y000957D01*
X033467Y001250D01*
X033629Y001587D01*
X033713Y001953D01*
X033723Y002140D01*
X033723Y020254D01*
X033451Y019982D01*
X033451Y008170D01*
X033456Y008086D01*
X033451Y008080D01*
X033451Y008073D01*
X033392Y008013D01*
X033136Y007726D01*
X033136Y007718D01*
X033077Y007659D01*
X033021Y007595D01*
X033013Y007595D01*
X033008Y007590D01*
X032924Y007590D01*
X032839Y007585D01*
X032834Y007590D01*
X032294Y007590D01*
X032253Y007572D01*
X032207Y007590D01*
X032157Y007590D01*
X030429Y007590D01*
X030370Y007531D01*
X030188Y007531D01*
X029381Y007531D01*
X029322Y007590D01*
X028712Y007590D01*
X028707Y007595D01*
X028707Y007592D01*
X028662Y007483D01*
X028629Y007449D01*
X028629Y007152D01*
X028756Y007025D01*
X030697Y007025D01*
X030771Y007035D01*
X030786Y007025D01*
X030803Y007025D01*
X030857Y006971D01*
X030943Y006906D01*
X030961Y006906D01*
X031014Y006853D01*
X031074Y006808D01*
X031077Y006790D01*
X031089Y006778D01*
X031089Y006703D01*
X031100Y006628D01*
X031089Y006614D01*
X031089Y005688D01*
X031123Y005655D01*
X031168Y005546D01*
X031168Y005427D01*
X031123Y005317D01*
X031039Y005234D01*
X030929Y005188D01*
X030811Y005188D01*
X030701Y005234D01*
X030668Y005267D01*
X029084Y005267D01*
X029051Y005234D01*
X028941Y005188D01*
X028822Y005188D01*
X028713Y005234D01*
X028679Y005267D01*
X026899Y005267D01*
X026866Y005234D01*
X026756Y005188D01*
X026637Y005188D01*
X026528Y005234D01*
X026494Y005267D01*
X024753Y005267D01*
X024720Y005234D01*
X024610Y005188D01*
X024492Y005188D01*
X024382Y005234D01*
X024298Y005317D01*
X024253Y005427D01*
X024253Y005543D01*
X024241Y005543D01*
X024208Y005509D01*
X024099Y005464D01*
X023980Y005464D01*
X023870Y005509D01*
X023786Y005593D01*
X023741Y005703D01*
X023741Y005821D01*
X023786Y005931D01*
X023870Y006015D01*
X023980Y006060D01*
X024099Y006060D01*
X024208Y006015D01*
X024241Y005981D01*
X026002Y005981D01*
X026036Y006015D01*
X026145Y006060D01*
X026264Y006060D01*
X026373Y006015D01*
X026407Y005981D01*
X028168Y005981D01*
X028201Y006015D01*
X028311Y006060D01*
X028429Y006060D01*
X028539Y006015D01*
X028572Y005981D01*
X030313Y005981D01*
X030347Y006015D01*
X030456Y006060D01*
X030575Y006060D01*
X030651Y006029D01*
X030651Y006577D01*
X030639Y006586D01*
X028574Y006586D01*
X028446Y006714D01*
X028190Y006970D01*
X028190Y007152D01*
X028190Y007449D01*
X028157Y007483D01*
X028111Y007592D01*
X028111Y007711D01*
X028156Y007818D01*
X028117Y007857D01*
X028072Y007966D01*
X028072Y008085D01*
X028117Y008195D01*
X028201Y008278D01*
X028311Y008324D01*
X028429Y008324D01*
X028539Y008278D01*
X028572Y008245D01*
X028677Y008245D01*
X028894Y008028D01*
X028957Y008028D01*
X028616Y008357D01*
X028614Y008357D01*
X028550Y008421D01*
X028487Y008482D01*
X028487Y008484D01*
X028485Y008486D01*
X028485Y008575D01*
X028484Y008664D01*
X028485Y008665D01*
X028485Y008756D01*
X028382Y008653D01*
X028200Y008653D01*
X027155Y008653D01*
X027121Y008619D01*
X027012Y008574D01*
X026893Y008574D01*
X026784Y008619D01*
X026700Y008703D01*
X026654Y008813D01*
X026654Y008931D01*
X026700Y009041D01*
X026784Y009125D01*
X026893Y009170D01*
X027012Y009170D01*
X027121Y009125D01*
X027155Y009091D01*
X028182Y009091D01*
X028176Y009097D01*
X028131Y009206D01*
X028131Y009325D01*
X028176Y009435D01*
X028260Y009519D01*
X028356Y009558D01*
X028291Y009558D01*
X028181Y009604D01*
X028098Y009687D01*
X028052Y009797D01*
X028052Y009916D01*
X028098Y010025D01*
X028181Y010109D01*
X028291Y010154D01*
X028377Y010154D01*
X028397Y010174D01*
X028791Y010174D01*
X028973Y010174D01*
X029051Y010095D01*
X029180Y009967D01*
X029180Y009593D01*
X029180Y009411D01*
X029101Y009332D01*
X029101Y008807D01*
X029109Y008796D01*
X029725Y008796D01*
X029725Y008872D01*
X029771Y008982D01*
X029855Y009066D01*
X029964Y009111D01*
X030083Y009111D01*
X030192Y009066D01*
X030276Y008982D01*
X030322Y008872D01*
X030322Y008825D01*
X030482Y008825D01*
X030445Y008810D02*
X030412Y008776D01*
X030370Y008776D01*
X030322Y008825D01*
X030292Y008944D02*
X031319Y008944D01*
X031303Y008926D02*
X031241Y008865D01*
X031241Y008859D01*
X030912Y008503D01*
X030912Y008616D01*
X030867Y008726D01*
X030783Y008810D01*
X030673Y008855D01*
X030555Y008855D01*
X030445Y008810D01*
X030746Y008825D02*
X031209Y008825D01*
X031303Y008926D02*
X031361Y008989D01*
X031366Y008989D01*
X031370Y008993D01*
X031456Y008993D01*
X031542Y008996D01*
X031546Y008993D01*
X032306Y008993D01*
X032314Y009000D01*
X032395Y008993D01*
X032477Y008993D01*
X032484Y008985D01*
X032495Y008984D01*
X032547Y008922D01*
X032605Y008865D01*
X032605Y008854D01*
X032736Y008698D01*
X032760Y008698D01*
X032855Y008658D01*
X032855Y009836D01*
X032750Y009731D01*
X032352Y009731D01*
X032071Y010012D01*
X032071Y010409D01*
X032332Y010670D01*
X032332Y011069D01*
X032325Y011084D01*
X032306Y011128D01*
X032306Y011132D01*
X032304Y011136D01*
X032304Y011157D01*
X032071Y011390D01*
X032071Y011787D01*
X032304Y012020D01*
X032304Y019513D01*
X031668Y020149D01*
X029474Y020149D01*
X029523Y020129D01*
X029607Y020045D01*
X029652Y019935D01*
X029652Y019888D01*
X029721Y019820D01*
X031235Y019820D01*
X031237Y019822D01*
X031325Y019820D01*
X031414Y019820D01*
X031416Y019818D01*
X031418Y019818D01*
X031479Y019754D01*
X031542Y019691D01*
X031542Y019688D01*
X031912Y019302D01*
X031975Y019239D01*
X031975Y019236D01*
X031977Y019234D01*
X031975Y019145D01*
X031975Y015095D01*
X031977Y015006D01*
X031975Y015004D01*
X031975Y015002D01*
X031912Y014938D01*
X031097Y014091D01*
X031165Y014091D01*
X031275Y014046D01*
X031308Y014013D01*
X031330Y014013D01*
X031595Y014278D01*
X031276Y014278D01*
X031162Y014159D02*
X031477Y014159D01*
X031358Y014041D02*
X031280Y014041D01*
X031390Y014397D02*
X031625Y014397D01*
X031641Y014435D02*
X031595Y014325D01*
X031595Y014278D01*
X031641Y014435D02*
X031725Y014519D01*
X031834Y014564D01*
X031953Y014564D01*
X032062Y014519D01*
X032146Y014435D01*
X032192Y014325D01*
X032192Y014206D01*
X032146Y014097D01*
X032062Y014013D01*
X031953Y013968D01*
X031906Y013968D01*
X031512Y013574D01*
X031330Y013574D01*
X031308Y013574D01*
X031275Y013541D01*
X031165Y013495D01*
X031047Y013495D01*
X030971Y013527D01*
X030971Y012714D01*
X030974Y012626D01*
X030971Y012624D01*
X030971Y012620D01*
X030909Y012558D01*
X030105Y011703D01*
X030105Y011647D01*
X030060Y011538D01*
X029976Y011454D01*
X029880Y011414D01*
X031055Y011414D01*
X031089Y011449D01*
X031071Y011493D01*
X031071Y011684D01*
X031144Y011861D01*
X031279Y011996D01*
X031456Y012069D01*
X031646Y012069D01*
X031823Y011996D01*
X031958Y011861D01*
X032031Y011684D01*
X032031Y011493D01*
X031958Y011317D01*
X031823Y011182D01*
X031646Y011109D01*
X031456Y011109D01*
X031396Y011133D01*
X031339Y011078D01*
X031236Y010976D01*
X031055Y010976D01*
X029674Y010976D01*
X029641Y010942D01*
X029532Y010897D01*
X029413Y010897D01*
X029303Y010942D01*
X029220Y011026D01*
X029174Y011136D01*
X029174Y011254D01*
X029220Y011364D01*
X029303Y011448D01*
X029413Y011493D01*
X029532Y011493D01*
X029641Y011448D01*
X029674Y011414D01*
X029734Y011414D01*
X029638Y011454D01*
X029554Y011538D01*
X029509Y011647D01*
X029509Y011766D01*
X029554Y011876D01*
X029638Y011959D01*
X029748Y012005D01*
X029786Y012005D01*
X030182Y012425D01*
X030150Y012438D01*
X030066Y012522D01*
X030021Y012632D01*
X030021Y012750D01*
X030066Y012860D01*
X030099Y012893D01*
X030099Y013890D01*
X030099Y013981D01*
X030099Y013982D01*
X030099Y013983D01*
X030163Y014046D01*
X031340Y015241D01*
X031340Y015633D01*
X031275Y015568D01*
X031165Y015523D01*
X031047Y015523D01*
X030937Y015568D01*
X030914Y015592D01*
X028116Y015592D01*
X028118Y015589D01*
X028161Y015531D01*
X028194Y015466D01*
X028216Y015397D01*
X028227Y015329D01*
X027808Y015329D01*
X027808Y015249D01*
X028227Y015249D01*
X028216Y015182D01*
X028194Y015113D01*
X028161Y015048D01*
X028118Y014990D01*
X028067Y014939D01*
X028009Y014896D01*
X027944Y014863D01*
X027875Y014841D01*
X027808Y014830D01*
X027808Y015249D01*
X027727Y015249D01*
X027308Y015249D01*
X027319Y015182D01*
X027341Y015113D01*
X027374Y015048D01*
X027417Y014990D01*
X027468Y014939D01*
X027526Y014896D01*
X027591Y014863D01*
X027660Y014841D01*
X027727Y014830D01*
X027727Y015249D01*
X027727Y015329D01*
X027308Y015329D01*
X027319Y015397D01*
X027341Y015466D01*
X027374Y015531D01*
X027417Y015589D01*
X027419Y015592D01*
X027394Y015592D01*
X027248Y015445D01*
X027248Y015091D01*
X026966Y014809D01*
X026653Y014809D01*
X026286Y014442D01*
X026286Y011182D01*
X026319Y011149D01*
X027744Y011149D01*
X027768Y011172D01*
X027878Y011217D01*
X027996Y011217D01*
X028106Y011172D01*
X028190Y011088D01*
X028235Y010979D01*
X028235Y010860D01*
X028190Y010750D01*
X028106Y010667D01*
X027996Y010621D01*
X027878Y010621D01*
X027768Y010667D01*
X027744Y010690D01*
X026319Y010690D01*
X026286Y010690D01*
X026286Y007088D01*
X026247Y006993D01*
X026174Y006920D01*
X026174Y006920D01*
X025918Y006665D01*
X025823Y006625D01*
X025720Y006625D01*
X023749Y006625D01*
X023431Y006320D01*
X023412Y002197D01*
X023412Y002147D01*
X023412Y002147D01*
X023412Y002146D01*
X023392Y002100D01*
X023373Y002052D01*
X023372Y002052D01*
X023372Y002051D01*
X023338Y002017D01*
X022980Y001660D01*
X022946Y001626D01*
X022946Y001626D01*
X022946Y001625D01*
X022898Y001605D01*
X022852Y001586D01*
X022851Y001586D01*
X022851Y001586D01*
X022804Y001586D01*
X018099Y001566D01*
X018091Y001563D01*
X018047Y001566D01*
X018005Y001566D01*
X017997Y001569D01*
X017988Y001570D01*
X017949Y001589D01*
X017909Y001605D01*
X017903Y001611D01*
X017895Y001615D01*
X017866Y001647D01*
X017836Y001677D01*
X017833Y001685D01*
X017677Y001861D01*
X017666Y001857D01*
X017475Y001857D01*
X017462Y001862D01*
X017186Y001586D01*
X017091Y001546D01*
X016988Y001546D01*
X012637Y001546D01*
X012644Y001530D01*
X012644Y001411D01*
X012599Y001302D01*
X012515Y001218D01*
X012406Y001172D01*
X012358Y001172D01*
X012181Y000995D01*
X011999Y000995D01*
X011645Y000995D01*
X011517Y001124D01*
X011409Y001231D01*
X005118Y001231D01*
X005125Y001215D01*
X005125Y001096D01*
X005079Y000987D01*
X004995Y000903D01*
X004886Y000857D01*
X004767Y000857D01*
X004658Y000903D01*
X004574Y000987D01*
X004529Y001096D01*
X004529Y001143D01*
X002984Y002688D01*
X002855Y002817D01*
X002855Y003680D01*
X002636Y003889D01*
X002582Y003889D01*
X002473Y003934D01*
X002389Y004018D01*
X002343Y004128D01*
X002343Y004246D01*
X002389Y004356D01*
X002473Y004440D01*
X002477Y004441D01*
X001073Y005859D01*
X001005Y005927D01*
X001005Y005928D01*
X001004Y005928D01*
X001005Y006019D01*
X001005Y006581D01*
X001133Y006710D01*
X001418Y006994D01*
X001418Y014588D01*
X001221Y014785D01*
X001221Y014967D01*
X001221Y018289D01*
X000457Y019053D01*
X000457Y002140D01*
X000468Y001953D01*
X000551Y001588D01*
X000714Y001250D01*
X000723Y001238D02*
X004434Y001238D01*
X004529Y001120D02*
X000818Y001120D01*
X000912Y001001D02*
X004568Y001001D01*
X004707Y000883D02*
X001041Y000883D01*
X001190Y000764D02*
X032991Y000764D01*
X033140Y000883D02*
X004946Y000883D01*
X005085Y001001D02*
X011639Y001001D01*
X011521Y001120D02*
X005125Y001120D01*
X004315Y001357D02*
X000662Y001357D01*
X000605Y001475D02*
X001301Y001475D01*
X001363Y001450D02*
X001716Y001450D01*
X002041Y001585D01*
X002291Y001834D01*
X002426Y002160D01*
X002426Y002513D01*
X002291Y002839D01*
X002041Y003088D01*
X001716Y003223D01*
X001363Y003223D01*
X001037Y003088D01*
X000787Y002839D01*
X000652Y002513D01*
X000652Y002160D01*
X000787Y001834D01*
X001037Y001585D01*
X001363Y001450D01*
X001028Y001594D02*
X000550Y001594D01*
X000523Y001712D02*
X000909Y001712D01*
X000791Y001831D02*
X000496Y001831D01*
X000469Y001949D02*
X000740Y001949D01*
X000691Y002068D02*
X000461Y002068D01*
X000457Y002187D02*
X000652Y002187D01*
X000652Y002305D02*
X000457Y002305D01*
X000457Y002424D02*
X000652Y002424D01*
X000665Y002542D02*
X000457Y002542D01*
X000457Y002661D02*
X000714Y002661D01*
X000763Y002779D02*
X000457Y002779D01*
X000457Y002898D02*
X000846Y002898D01*
X000965Y003016D02*
X000457Y003016D01*
X000457Y003135D02*
X001149Y003135D01*
X000457Y003253D02*
X002855Y003253D01*
X002855Y003135D02*
X001929Y003135D01*
X002114Y003016D02*
X002855Y003016D01*
X002855Y002898D02*
X002232Y002898D01*
X002316Y002779D02*
X002893Y002779D01*
X003011Y002661D02*
X002365Y002661D01*
X002414Y002542D02*
X003130Y002542D01*
X003248Y002424D02*
X002426Y002424D01*
X002426Y002305D02*
X003367Y002305D01*
X003485Y002187D02*
X002426Y002187D01*
X002388Y002068D02*
X003604Y002068D01*
X003722Y001949D02*
X002339Y001949D01*
X002288Y001831D02*
X003841Y001831D01*
X003960Y001712D02*
X002169Y001712D01*
X002050Y001594D02*
X004078Y001594D01*
X004197Y001475D02*
X001777Y001475D01*
X001403Y000646D02*
X032778Y000646D01*
X032453Y000527D02*
X001728Y000527D01*
X004065Y002661D02*
X004134Y002661D01*
X004130Y002657D02*
X004112Y002613D01*
X003609Y003117D01*
X003609Y004048D01*
X003609Y004139D01*
X003609Y004139D01*
X003609Y004140D01*
X003541Y004208D01*
X002450Y005310D01*
X002456Y005312D01*
X002540Y005396D01*
X002585Y005506D01*
X003008Y005506D01*
X002999Y005514D02*
X003083Y005430D01*
X003192Y005385D01*
X003311Y005385D01*
X003421Y005430D01*
X003428Y005438D01*
X003771Y005096D01*
X003771Y003600D01*
X003905Y003466D01*
X004007Y003364D01*
X004141Y003230D01*
X004811Y003230D01*
X004835Y003206D01*
X004944Y003161D01*
X005063Y003161D01*
X005173Y003206D01*
X005256Y003290D01*
X005302Y003399D01*
X005302Y003518D01*
X005256Y003628D01*
X005173Y003711D01*
X005063Y003757D01*
X004944Y003757D01*
X004835Y003711D01*
X004811Y003688D01*
X004331Y003688D01*
X004229Y003790D01*
X004229Y005096D01*
X004229Y005286D01*
X003737Y005778D01*
X003603Y005912D01*
X003444Y005912D01*
X003421Y005936D01*
X003311Y005981D01*
X003192Y005981D01*
X003083Y005936D01*
X002999Y005852D01*
X002954Y005742D01*
X002954Y005624D01*
X002999Y005514D01*
X002954Y005624D02*
X002585Y005624D01*
X002540Y005734D01*
X002507Y005767D01*
X002507Y018453D01*
X002540Y018487D01*
X002585Y018596D01*
X002585Y018715D01*
X002540Y018824D01*
X002456Y018908D01*
X002347Y018954D01*
X002230Y018954D01*
X002186Y019061D01*
X002102Y019144D01*
X001992Y019190D01*
X001874Y019190D01*
X001764Y019144D01*
X001680Y019061D01*
X001635Y018951D01*
X001635Y018929D01*
X001070Y019494D01*
X003131Y019494D01*
X003131Y019612D02*
X001070Y019612D01*
X001070Y019494D02*
X001070Y024057D01*
X001354Y024342D01*
X003988Y024342D01*
X004169Y024342D01*
X004214Y024386D01*
X004214Y023451D01*
X003909Y023147D01*
X003780Y023018D01*
X003780Y020361D01*
X003259Y019839D01*
X003131Y019711D01*
X003131Y014701D01*
X003129Y014613D01*
X003131Y014611D01*
X003131Y014608D01*
X003194Y014545D01*
X003977Y013725D01*
X003977Y013565D01*
X004500Y013042D01*
X004495Y013037D01*
X004450Y012927D01*
X004450Y012809D01*
X004495Y012699D01*
X004579Y012615D01*
X004689Y012570D01*
X004807Y012570D01*
X004917Y012615D01*
X005001Y012699D01*
X005024Y012755D01*
X005099Y012679D01*
X005099Y012632D01*
X005145Y012522D01*
X005229Y012438D01*
X005338Y012393D01*
X005457Y012393D01*
X005566Y012438D01*
X005650Y012522D01*
X005696Y012632D01*
X005696Y012750D01*
X005650Y012860D01*
X005566Y012944D01*
X005457Y012989D01*
X005410Y012989D01*
X004593Y013806D01*
X004593Y013850D01*
X004595Y013938D01*
X004593Y013940D01*
X004593Y013943D01*
X004530Y014006D01*
X004303Y014243D01*
X004389Y014243D01*
X004476Y014240D01*
X004480Y014243D01*
X005267Y014243D01*
X005307Y014204D01*
X005488Y014204D01*
X005617Y014332D01*
X005617Y014514D01*
X005577Y014554D01*
X005449Y014682D01*
X004489Y014682D01*
X004357Y014824D01*
X004357Y014829D01*
X004337Y014849D01*
X004337Y015042D01*
X004382Y014997D01*
X004492Y014952D01*
X004610Y014952D01*
X004720Y014997D01*
X004753Y015031D01*
X005451Y015031D01*
X005484Y014997D01*
X005594Y014952D01*
X005713Y014952D01*
X005822Y014997D01*
X005906Y015081D01*
X005951Y015191D01*
X005951Y015309D01*
X005906Y015419D01*
X005822Y015503D01*
X005713Y015548D01*
X005594Y015548D01*
X005484Y015503D01*
X005451Y015469D01*
X004753Y015469D01*
X004720Y015503D01*
X004610Y015548D01*
X004492Y015548D01*
X004382Y015503D01*
X004337Y015458D01*
X004337Y017016D01*
X004371Y017050D01*
X004416Y017159D01*
X004416Y017278D01*
X004386Y017349D01*
X004386Y017353D01*
X004386Y018451D01*
X004401Y018436D01*
X004583Y018436D01*
X004714Y018436D01*
X004974Y018176D01*
X005372Y018176D01*
X005653Y018457D01*
X005653Y018854D01*
X005372Y019136D01*
X004974Y019136D01*
X004714Y018875D01*
X004583Y018875D01*
X004413Y019045D01*
X004455Y019147D01*
X004455Y019266D01*
X004436Y019312D01*
X019024Y019312D01*
X018997Y019246D01*
X018997Y019128D01*
X019042Y019018D01*
X019126Y018934D01*
X019236Y018889D01*
X019354Y018889D01*
X019464Y018934D01*
X019548Y019018D01*
X019593Y019128D01*
X019593Y019246D01*
X019548Y019356D01*
X019529Y019375D01*
X019524Y019432D01*
X019524Y019518D01*
X019517Y019525D01*
X019516Y019536D01*
X019451Y019592D01*
X019390Y019652D01*
X019380Y019652D01*
X019313Y019710D01*
X019252Y019771D01*
X019242Y019771D01*
X019234Y019777D01*
X019148Y019771D01*
X004133Y019771D01*
X004110Y019794D01*
X004082Y019806D01*
X004377Y020100D01*
X004377Y020282D01*
X004377Y022777D01*
X004810Y023210D01*
X004810Y023392D01*
X004810Y023873D01*
X004810Y023872D01*
X004862Y023820D01*
X004920Y023778D01*
X004985Y023745D01*
X005054Y023723D01*
X005121Y023712D01*
X005121Y024131D01*
X005201Y024131D01*
X005201Y023712D01*
X005269Y023723D01*
X005338Y023745D01*
X005402Y023778D01*
X005461Y023820D01*
X005512Y023872D01*
X005555Y023930D01*
X005588Y023995D01*
X005610Y024064D01*
X005621Y024131D01*
X005201Y024131D01*
X005201Y024211D01*
X005621Y024211D01*
X005610Y024279D01*
X005588Y024348D01*
X005555Y024412D01*
X005512Y024471D01*
X005461Y024522D01*
X005402Y024565D01*
X005338Y024598D01*
X005269Y024620D01*
X005201Y024631D01*
X005201Y024212D01*
X005121Y024212D01*
X005121Y024631D01*
X005054Y024620D01*
X004985Y024598D01*
X004920Y024565D01*
X004862Y024522D01*
X004810Y024471D01*
X004810Y024470D01*
X004810Y024844D01*
X004889Y024764D01*
X005066Y024691D01*
X005257Y024691D01*
X005433Y024764D01*
X005568Y024899D01*
X005632Y025053D01*
X005708Y024869D01*
X005859Y024718D01*
X005972Y024671D01*
X005859Y024624D01*
X005708Y024474D01*
X005627Y024278D01*
X005627Y024065D01*
X005708Y023869D01*
X005859Y023718D01*
X006055Y023637D01*
X006268Y023637D01*
X006464Y023718D01*
X006614Y023869D01*
X006661Y023982D01*
X006708Y023869D01*
X006859Y023718D01*
X007055Y023637D01*
X007268Y023637D01*
X007464Y023718D01*
X007614Y023869D01*
X007661Y023982D01*
X007708Y023869D01*
X007859Y023718D01*
X008055Y023637D01*
X008268Y023637D01*
X008464Y023718D01*
X008614Y023869D01*
X008661Y023982D01*
X008708Y023869D01*
X008859Y023718D01*
X009055Y023637D01*
X009268Y023637D01*
X009464Y023718D01*
X009614Y023869D01*
X009661Y023982D01*
X009708Y023869D01*
X009859Y023718D01*
X010055Y023637D01*
X010268Y023637D01*
X010464Y023718D01*
X010614Y023869D01*
X010661Y023982D01*
X010708Y023869D01*
X010859Y023718D01*
X011055Y023637D01*
X011268Y023637D01*
X011464Y023718D01*
X011614Y023869D01*
X011661Y023982D01*
X011708Y023869D01*
X011859Y023718D01*
X012055Y023637D01*
X012268Y023637D01*
X012464Y023718D01*
X012614Y023869D01*
X012661Y023982D01*
X012708Y023869D01*
X012859Y023718D01*
X013055Y023637D01*
X013268Y023637D01*
X013464Y023718D01*
X013614Y023869D01*
X013661Y023982D01*
X013708Y023869D01*
X013859Y023718D01*
X014055Y023637D01*
X014268Y023637D01*
X014464Y023718D01*
X014614Y023869D01*
X014661Y023982D01*
X014708Y023869D01*
X014859Y023718D01*
X015055Y023637D01*
X015268Y023637D01*
X015464Y023718D01*
X015614Y023869D01*
X015661Y023982D01*
X015708Y023869D01*
X015859Y023718D01*
X016055Y023637D01*
X016268Y023637D01*
X016464Y023718D01*
X016614Y023869D01*
X016661Y023982D01*
X016708Y023869D01*
X016859Y023718D01*
X017055Y023637D01*
X017268Y023637D01*
X017464Y023718D01*
X017614Y023869D01*
X017661Y023982D01*
X017708Y023869D01*
X017859Y023718D01*
X018055Y023637D01*
X018268Y023637D01*
X018464Y023718D01*
X018614Y023869D01*
X018661Y023982D01*
X018708Y023869D01*
X018859Y023718D01*
X019055Y023637D01*
X019268Y023637D01*
X019464Y023718D01*
X019614Y023869D01*
X019661Y023982D01*
X019708Y023869D01*
X019859Y023718D01*
X020055Y023637D01*
X020268Y023637D01*
X020464Y023718D01*
X020614Y023869D01*
X020661Y023982D01*
X020708Y023869D01*
X020859Y023718D01*
X021055Y023637D01*
X021268Y023637D01*
X021464Y023718D01*
X021614Y023869D01*
X021661Y023982D01*
X021708Y023869D01*
X021859Y023718D01*
X022055Y023637D01*
X022268Y023637D01*
X022464Y023718D01*
X022614Y023869D01*
X022696Y024065D01*
X022696Y024278D01*
X022614Y024474D01*
X022464Y024624D01*
X022350Y024671D01*
X022464Y024718D01*
X022614Y024869D01*
X022696Y025065D01*
X022696Y025278D01*
X022614Y025474D01*
X022464Y025624D01*
X022350Y025671D01*
X022464Y025718D01*
X022614Y025869D01*
X022696Y026065D01*
X022696Y026278D01*
X022614Y026474D01*
X022464Y026624D01*
X022350Y026671D01*
X022464Y026718D01*
X022614Y026869D01*
X022696Y027065D01*
X022696Y027278D01*
X022614Y027474D01*
X022464Y027624D01*
X022350Y027671D01*
X022464Y027718D01*
X022614Y027869D01*
X022696Y028065D01*
X022696Y028278D01*
X022614Y028474D01*
X022464Y028624D01*
X022350Y028671D01*
X022464Y028718D01*
X022614Y028869D01*
X022696Y029065D01*
X022696Y029278D01*
X022614Y029474D01*
X022464Y029624D01*
X022350Y029671D01*
X022464Y029718D01*
X022614Y029869D01*
X022696Y030065D01*
X022696Y030278D01*
X022614Y030474D01*
X022464Y030624D01*
X022350Y030671D01*
X022464Y030718D01*
X022614Y030869D01*
X022696Y031065D01*
X022696Y031278D01*
X022614Y031474D01*
X022464Y031624D01*
X022350Y031671D01*
X022464Y031718D01*
X022614Y031869D01*
X022696Y032065D01*
X022696Y032278D01*
X022614Y032474D01*
X022464Y032624D01*
X022268Y032706D01*
X022055Y032706D01*
X021859Y032624D01*
X021708Y032474D01*
X021661Y032360D01*
X021614Y032474D01*
X021464Y032624D01*
X021268Y032706D01*
X021055Y032706D01*
X020859Y032624D01*
X020708Y032474D01*
X020661Y032360D01*
X020614Y032474D01*
X020464Y032624D01*
X020268Y032706D01*
X020055Y032706D01*
X019859Y032624D01*
X019708Y032474D01*
X019661Y032360D01*
X019614Y032474D01*
X019464Y032624D01*
X019268Y032706D01*
X019055Y032706D01*
X018859Y032624D01*
X018708Y032474D01*
X018661Y032360D01*
X018614Y032474D01*
X018464Y032624D01*
X018268Y032706D01*
X018055Y032706D01*
X017859Y032624D01*
X017708Y032474D01*
X017661Y032360D01*
X017614Y032474D01*
X017464Y032624D01*
X017268Y032706D01*
X017055Y032706D01*
X016859Y032624D01*
X016708Y032474D01*
X016661Y032360D01*
X016614Y032474D01*
X016464Y032624D01*
X016268Y032706D01*
X016055Y032706D01*
X015859Y032624D01*
X015708Y032474D01*
X015661Y032360D01*
X015614Y032474D01*
X015464Y032624D01*
X015268Y032706D01*
X015055Y032706D01*
X014859Y032624D01*
X014708Y032474D01*
X014661Y032360D01*
X014614Y032474D01*
X014464Y032624D01*
X014268Y032706D01*
X014055Y032706D01*
X013859Y032624D01*
X013708Y032474D01*
X013661Y032360D01*
X013614Y032474D01*
X013464Y032624D01*
X013268Y032706D01*
X013055Y032706D01*
X012859Y032624D01*
X012708Y032474D01*
X012661Y032360D01*
X012614Y032474D01*
X012464Y032624D01*
X012268Y032706D01*
X012055Y032706D01*
X011859Y032624D01*
X011708Y032474D01*
X011661Y032360D01*
X011614Y032474D01*
X011464Y032624D01*
X011268Y032706D01*
X011055Y032706D01*
X010859Y032624D01*
X010708Y032474D01*
X010661Y032360D01*
X010614Y032474D01*
X010464Y032624D01*
X010268Y032706D01*
X010055Y032706D01*
X009859Y032624D01*
X009708Y032474D01*
X009661Y032360D01*
X009614Y032474D01*
X009464Y032624D01*
X009268Y032706D01*
X009055Y032706D01*
X008859Y032624D01*
X008708Y032474D01*
X008661Y032360D01*
X008614Y032474D01*
X008464Y032624D01*
X008268Y032706D01*
X008055Y032706D01*
X007859Y032624D01*
X007708Y032474D01*
X007661Y032360D01*
X007614Y032474D01*
X007464Y032624D01*
X007268Y032706D01*
X007055Y032706D01*
X006859Y032624D01*
X006708Y032474D01*
X006661Y032360D01*
X006614Y032474D01*
X006464Y032624D01*
X006268Y032706D01*
X006055Y032706D01*
X005859Y032624D01*
X005708Y032474D01*
X005641Y032312D01*
X005641Y032370D01*
X005360Y032651D01*
X004962Y032651D01*
X004681Y032370D01*
X004681Y031973D01*
X004962Y031691D01*
X005360Y031691D01*
X005641Y031973D01*
X005641Y032031D01*
X005708Y031869D01*
X005859Y031718D01*
X005972Y031671D01*
X005859Y031624D01*
X005708Y031474D01*
X005632Y031289D01*
X005568Y031443D01*
X005433Y031578D01*
X005257Y031651D01*
X005066Y031651D01*
X004889Y031578D01*
X004754Y031443D01*
X004681Y031267D01*
X004681Y031076D01*
X004693Y031047D01*
X003852Y030233D01*
X003850Y030233D01*
X003786Y030170D01*
X003723Y030108D01*
X003723Y030106D01*
X003721Y030105D01*
X003721Y030016D01*
X003720Y029927D01*
X003721Y029925D01*
X003721Y025095D01*
X001236Y025095D01*
X001055Y025095D01*
X000457Y024498D01*
X000457Y032061D01*
X000468Y032248D01*
X000551Y032613D01*
X000714Y032951D01*
X000947Y033244D01*
X001240Y033477D01*
X001577Y033640D01*
X001943Y033723D01*
X002130Y033733D01*
X002189Y033733D01*
X031992Y033733D01*
X032051Y033733D01*
X032238Y033723D01*
X032603Y033640D01*
X032941Y033477D01*
X033234Y033244D01*
X033467Y032951D01*
X033629Y032613D01*
X033713Y032248D01*
X033723Y032061D01*
X033723Y024262D01*
X033668Y024317D01*
X033540Y024446D01*
X027339Y024446D01*
X027157Y024446D01*
X026744Y024032D01*
X026615Y023904D01*
X026615Y022873D01*
X026590Y022849D01*
X026543Y022896D01*
X026411Y022951D01*
X026269Y022951D01*
X026138Y022896D01*
X026090Y022849D01*
X026043Y022896D01*
X025911Y022951D01*
X025769Y022951D01*
X025638Y022896D01*
X025590Y022849D01*
X025543Y022896D01*
X025411Y022951D01*
X025269Y022951D01*
X025138Y022896D01*
X025090Y022849D01*
X025043Y022896D01*
X024911Y022951D01*
X024769Y022951D01*
X024638Y022896D01*
X024590Y022849D01*
X024543Y022896D01*
X024411Y022951D01*
X024269Y022951D01*
X024138Y022896D01*
X024090Y022849D01*
X024043Y022896D01*
X023911Y022951D01*
X023769Y022951D01*
X023638Y022896D01*
X023590Y022849D01*
X023543Y022896D01*
X023411Y022951D01*
X023269Y022951D01*
X023138Y022896D01*
X023090Y022849D01*
X023043Y022896D01*
X022911Y022951D01*
X022769Y022951D01*
X022638Y022896D01*
X022590Y022849D01*
X022543Y022896D01*
X022411Y022951D01*
X022269Y022951D01*
X022138Y022896D01*
X022090Y022849D01*
X022043Y022896D01*
X021911Y022951D01*
X021769Y022951D01*
X021638Y022896D01*
X021590Y022849D01*
X021543Y022896D01*
X021411Y022951D01*
X021269Y022951D01*
X021138Y022896D01*
X021090Y022849D01*
X021043Y022896D01*
X020911Y022951D01*
X020769Y022951D01*
X020638Y022896D01*
X020590Y022849D01*
X020543Y022896D01*
X020411Y022951D01*
X020269Y022951D01*
X020138Y022896D01*
X020090Y022849D01*
X020043Y022896D01*
X019911Y022951D01*
X019769Y022951D01*
X019638Y022896D01*
X019590Y022849D01*
X019543Y022896D01*
X019411Y022951D01*
X019269Y022951D01*
X019138Y022896D01*
X019090Y022849D01*
X019043Y022896D01*
X018911Y022951D01*
X018769Y022951D01*
X018638Y022896D01*
X018590Y022849D01*
X018543Y022896D01*
X018411Y022951D01*
X018269Y022951D01*
X018138Y022896D01*
X018090Y022849D01*
X018043Y022896D01*
X017911Y022951D01*
X017769Y022951D01*
X017638Y022896D01*
X017590Y022849D01*
X017543Y022896D01*
X017411Y022951D01*
X017269Y022951D01*
X017138Y022896D01*
X017090Y022849D01*
X017043Y022896D01*
X016911Y022951D01*
X016769Y022951D01*
X016638Y022896D01*
X016590Y022849D01*
X016543Y022896D01*
X016411Y022951D01*
X016269Y022951D01*
X016138Y022896D01*
X016090Y022849D01*
X016043Y022896D01*
X015911Y022951D01*
X015769Y022951D01*
X015638Y022896D01*
X015590Y022849D01*
X015543Y022896D01*
X015411Y022951D01*
X015269Y022951D01*
X015138Y022896D01*
X015090Y022849D01*
X015043Y022896D01*
X014911Y022951D01*
X014769Y022951D01*
X014638Y022896D01*
X014590Y022849D01*
X014543Y022896D01*
X014411Y022951D01*
X014269Y022951D01*
X014138Y022896D01*
X014090Y022849D01*
X014043Y022896D01*
X013911Y022951D01*
X013769Y022951D01*
X013638Y022896D01*
X013590Y022849D01*
X013543Y022896D01*
X013411Y022951D01*
X013269Y022951D01*
X013138Y022896D01*
X013090Y022849D01*
X013043Y022896D01*
X012911Y022951D01*
X012769Y022951D01*
X012638Y022896D01*
X012590Y022849D01*
X012543Y022896D01*
X012411Y022951D01*
X012269Y022951D01*
X012138Y022896D01*
X012090Y022849D01*
X012043Y022896D01*
X011911Y022951D01*
X011769Y022951D01*
X011638Y022896D01*
X011590Y022849D01*
X011543Y022896D01*
X011411Y022951D01*
X011269Y022951D01*
X011138Y022896D01*
X011090Y022849D01*
X011043Y022896D01*
X010911Y022951D01*
X010769Y022951D01*
X010638Y022896D01*
X010590Y022849D01*
X010543Y022896D01*
X010411Y022951D01*
X010269Y022951D01*
X010138Y022896D01*
X010090Y022849D01*
X010043Y022896D01*
X009911Y022951D01*
X009769Y022951D01*
X009638Y022896D01*
X009590Y022849D01*
X009543Y022896D01*
X009411Y022951D01*
X009269Y022951D01*
X009138Y022896D01*
X009090Y022849D01*
X009043Y022896D01*
X008911Y022951D01*
X008769Y022951D01*
X008638Y022896D01*
X008590Y022849D01*
X008543Y022896D01*
X008411Y022951D01*
X008269Y022951D01*
X008138Y022896D01*
X008090Y022849D01*
X008043Y022896D01*
X007911Y022951D01*
X007769Y022951D01*
X007638Y022896D01*
X007590Y022849D01*
X007543Y022896D01*
X007411Y022951D01*
X007269Y022951D01*
X007138Y022896D01*
X007090Y022849D01*
X007043Y022896D01*
X006911Y022951D01*
X006769Y022951D01*
X006638Y022896D01*
X006590Y022849D01*
X006543Y022896D01*
X006411Y022951D01*
X006269Y022951D01*
X006138Y022896D01*
X006090Y022849D01*
X006043Y022896D01*
X005911Y022951D01*
X005769Y022951D01*
X005638Y022896D01*
X005576Y022834D01*
X005555Y022855D01*
X005500Y022892D01*
X005439Y022918D01*
X005374Y022931D01*
X005341Y022931D01*
X005341Y022594D01*
X005340Y022594D01*
X005340Y022931D01*
X005307Y022931D01*
X005242Y022918D01*
X005181Y022892D01*
X005125Y022855D01*
X005090Y022820D01*
X005055Y022855D01*
X005000Y022892D01*
X004939Y022918D01*
X004874Y022931D01*
X004841Y022931D01*
X004841Y022594D01*
X005003Y022594D01*
X005340Y022594D01*
X005340Y022593D01*
X005341Y022593D01*
X005341Y022256D01*
X005374Y022256D01*
X005439Y022269D01*
X005500Y022295D01*
X005555Y022332D01*
X005576Y022353D01*
X005638Y022291D01*
X005769Y022236D01*
X005911Y022236D01*
X006043Y022291D01*
X006090Y022339D01*
X006138Y022291D01*
X006269Y022236D01*
X006411Y022236D01*
X006543Y022291D01*
X006590Y022339D01*
X006638Y022291D01*
X006769Y022236D01*
X006911Y022236D01*
X007043Y022291D01*
X007090Y022339D01*
X007138Y022291D01*
X007269Y022236D01*
X007411Y022236D01*
X007543Y022291D01*
X007590Y022339D01*
X007638Y022291D01*
X007769Y022236D01*
X007911Y022236D01*
X008043Y022291D01*
X008090Y022339D01*
X008138Y022291D01*
X008269Y022236D01*
X008411Y022236D01*
X008543Y022291D01*
X008590Y022339D01*
X008638Y022291D01*
X008769Y022236D01*
X008911Y022236D01*
X009043Y022291D01*
X009090Y022339D01*
X009138Y022291D01*
X009269Y022236D01*
X009411Y022236D01*
X009543Y022291D01*
X009590Y022339D01*
X009638Y022291D01*
X009769Y022236D01*
X009911Y022236D01*
X010043Y022291D01*
X010090Y022339D01*
X010138Y022291D01*
X010269Y022236D01*
X010411Y022236D01*
X010543Y022291D01*
X010590Y022339D01*
X010638Y022291D01*
X010769Y022236D01*
X010911Y022236D01*
X011043Y022291D01*
X011090Y022339D01*
X011138Y022291D01*
X011269Y022236D01*
X011411Y022236D01*
X011543Y022291D01*
X011590Y022339D01*
X011638Y022291D01*
X011769Y022236D01*
X011911Y022236D01*
X012043Y022291D01*
X012090Y022339D01*
X012138Y022291D01*
X012269Y022236D01*
X012411Y022236D01*
X012543Y022291D01*
X012590Y022339D01*
X012638Y022291D01*
X012769Y022236D01*
X012911Y022236D01*
X013043Y022291D01*
X013090Y022339D01*
X013138Y022291D01*
X013269Y022236D01*
X013411Y022236D01*
X013543Y022291D01*
X013590Y022339D01*
X013638Y022291D01*
X013769Y022236D01*
X013911Y022236D01*
X014043Y022291D01*
X014090Y022339D01*
X014138Y022291D01*
X014269Y022236D01*
X014411Y022236D01*
X014543Y022291D01*
X014590Y022339D01*
X014638Y022291D01*
X014769Y022236D01*
X014911Y022236D01*
X015043Y022291D01*
X015090Y022339D01*
X015138Y022291D01*
X015269Y022236D01*
X015411Y022236D01*
X015543Y022291D01*
X015590Y022339D01*
X015638Y022291D01*
X015769Y022236D01*
X015911Y022236D01*
X016043Y022291D01*
X016090Y022339D01*
X016138Y022291D01*
X016269Y022236D01*
X016411Y022236D01*
X016543Y022291D01*
X016590Y022339D01*
X016638Y022291D01*
X016769Y022236D01*
X016911Y022236D01*
X017043Y022291D01*
X017090Y022339D01*
X017138Y022291D01*
X017269Y022236D01*
X017411Y022236D01*
X017543Y022291D01*
X017590Y022339D01*
X017638Y022291D01*
X017769Y022236D01*
X017911Y022236D01*
X018043Y022291D01*
X018090Y022339D01*
X018138Y022291D01*
X018269Y022236D01*
X018411Y022236D01*
X018543Y022291D01*
X018590Y022339D01*
X018638Y022291D01*
X018769Y022236D01*
X018911Y022236D01*
X019043Y022291D01*
X019090Y022339D01*
X019138Y022291D01*
X019269Y022236D01*
X019411Y022236D01*
X019543Y022291D01*
X019590Y022339D01*
X019638Y022291D01*
X019769Y022236D01*
X019911Y022236D01*
X020043Y022291D01*
X020090Y022339D01*
X020138Y022291D01*
X020269Y022236D01*
X020411Y022236D01*
X020543Y022291D01*
X020590Y022339D01*
X020638Y022291D01*
X020769Y022236D01*
X020911Y022236D01*
X021043Y022291D01*
X021090Y022339D01*
X021138Y022291D01*
X021269Y022236D01*
X021411Y022236D01*
X021543Y022291D01*
X021590Y022339D01*
X021638Y022291D01*
X021769Y022236D01*
X021911Y022236D01*
X022043Y022291D01*
X022090Y022339D01*
X022138Y022291D01*
X022269Y022236D01*
X022411Y022236D01*
X022543Y022291D01*
X022590Y022339D01*
X022638Y022291D01*
X022769Y022236D01*
X022911Y022236D01*
X023043Y022291D01*
X023090Y022339D01*
X023138Y022291D01*
X023269Y022236D01*
X023411Y022236D01*
X023543Y022291D01*
X023590Y022339D01*
X023638Y022291D01*
X023769Y022236D01*
X023911Y022236D01*
X024043Y022291D01*
X024090Y022339D01*
X024138Y022291D01*
X024269Y022236D01*
X024411Y022236D01*
X024543Y022291D01*
X024590Y022339D01*
X024638Y022291D01*
X024769Y022236D01*
X024911Y022236D01*
X025043Y022291D01*
X025090Y022339D01*
X025138Y022291D01*
X025269Y022236D01*
X025411Y022236D01*
X025543Y022291D01*
X025590Y022339D01*
X025638Y022291D01*
X025769Y022236D01*
X025911Y022236D01*
X026043Y022291D01*
X026090Y022339D01*
X026138Y022291D01*
X026269Y022236D01*
X026411Y022236D01*
X026543Y022291D01*
X026590Y022339D01*
X026638Y022291D01*
X026769Y022236D01*
X026911Y022236D01*
X027043Y022291D01*
X027090Y022339D01*
X027138Y022291D01*
X027269Y022236D01*
X027411Y022236D01*
X027543Y022291D01*
X027590Y022339D01*
X027638Y022291D01*
X027769Y022236D01*
X027911Y022236D01*
X028043Y022291D01*
X028090Y022339D01*
X028138Y022291D01*
X028269Y022236D01*
X028411Y022236D01*
X028543Y022291D01*
X028590Y022339D01*
X028638Y022291D01*
X028769Y022236D01*
X028911Y022236D01*
X029043Y022291D01*
X029090Y022339D01*
X029138Y022291D01*
X029269Y022236D01*
X029411Y022236D01*
X029543Y022291D01*
X029643Y022391D01*
X029698Y022523D01*
X029698Y022665D01*
X029643Y022796D01*
X029543Y022896D01*
X029411Y022951D01*
X029269Y022951D01*
X029138Y022896D01*
X029090Y022849D01*
X029062Y022877D01*
X029062Y023553D01*
X029065Y023639D01*
X029062Y023643D01*
X033308Y023643D01*
X033308Y023761D02*
X028952Y023761D01*
X029000Y023709D02*
X028871Y023850D01*
X033299Y023850D01*
X033308Y023840D01*
X033308Y020695D01*
X032984Y020371D01*
X032984Y020371D01*
X032855Y020243D01*
X032855Y011963D01*
X032822Y011997D01*
X032822Y019672D01*
X032782Y019767D01*
X032709Y019839D01*
X031922Y020627D01*
X031827Y020666D01*
X031724Y020666D01*
X026904Y020666D01*
X026860Y020710D01*
X026728Y020765D01*
X026586Y020765D01*
X026455Y020710D01*
X026411Y020666D01*
X025270Y020666D01*
X025226Y020710D01*
X025094Y020765D01*
X024952Y020765D01*
X024821Y020710D01*
X024721Y020610D01*
X024666Y020479D01*
X024666Y020336D01*
X024721Y020205D01*
X024192Y020205D01*
X024310Y020087D02*
X024865Y020087D01*
X024821Y020105D02*
X024952Y020050D01*
X025094Y020050D01*
X025226Y020105D01*
X025270Y020149D01*
X026411Y020149D01*
X026455Y020105D01*
X026586Y020050D01*
X026728Y020050D01*
X026860Y020105D01*
X026904Y020149D01*
X029234Y020149D01*
X029185Y020129D01*
X029101Y020045D01*
X029056Y019935D01*
X029056Y019839D01*
X026545Y019839D01*
X026511Y019873D01*
X026402Y019918D01*
X026283Y019918D01*
X026173Y019873D01*
X026090Y019789D01*
X026044Y019679D01*
X026044Y019561D01*
X026090Y019451D01*
X026173Y019367D01*
X026283Y019322D01*
X026402Y019322D01*
X026511Y019367D01*
X026545Y019401D01*
X029066Y019401D01*
X029283Y019184D01*
X029465Y019184D01*
X031130Y019184D01*
X031340Y018962D01*
X031340Y016009D01*
X031275Y016074D01*
X031165Y016119D01*
X031047Y016119D01*
X030937Y016074D01*
X030914Y016050D01*
X027394Y016050D01*
X027204Y016050D01*
X026923Y015769D01*
X026709Y015769D01*
X025735Y016744D01*
X025735Y018508D01*
X025740Y018512D01*
X025794Y018644D01*
X025794Y018786D01*
X025740Y018917D01*
X025639Y019017D01*
X025508Y019072D01*
X025366Y019072D01*
X025235Y019017D01*
X025134Y018917D01*
X025080Y018786D01*
X025080Y018644D01*
X025134Y018512D01*
X025139Y018508D01*
X025139Y016679D01*
X025139Y016561D01*
X025184Y016451D01*
X026288Y015348D01*
X026288Y015175D01*
X025808Y014696D01*
X025769Y014601D01*
X025769Y014498D01*
X025769Y012607D01*
X025740Y012677D01*
X025666Y012750D01*
X025666Y015018D01*
X025670Y015022D01*
X025715Y015132D01*
X025715Y015250D01*
X025670Y015360D01*
X025586Y015444D01*
X025476Y015489D01*
X025358Y015489D01*
X025279Y015456D01*
X024446Y016290D01*
X024446Y019951D01*
X024311Y020086D01*
X023937Y020460D01*
X023747Y020460D01*
X006220Y020460D01*
X006196Y020483D01*
X006087Y020528D01*
X005968Y020528D01*
X005859Y020483D01*
X005775Y020399D01*
X005729Y020290D01*
X005729Y020171D01*
X005775Y020061D01*
X005859Y019978D01*
X005968Y019932D01*
X006087Y019932D01*
X006196Y019978D01*
X006220Y020001D01*
X023747Y020001D01*
X023987Y019761D01*
X023987Y016290D01*
X023987Y016100D01*
X024637Y015450D01*
X020095Y015450D01*
X019992Y015450D01*
X019897Y015410D01*
X019011Y015410D01*
X019016Y015416D01*
X019062Y015525D01*
X019062Y015644D01*
X019016Y015754D01*
X018932Y015837D01*
X018823Y015883D01*
X018704Y015883D01*
X018595Y015837D01*
X018571Y015814D01*
X017894Y015814D01*
X017851Y015857D01*
X017851Y016100D01*
X017851Y016290D01*
X017457Y016684D01*
X017457Y016823D01*
X017399Y016965D01*
X017367Y016997D01*
X017376Y017002D01*
X017405Y017032D01*
X017426Y017068D01*
X017437Y017109D01*
X017437Y017328D01*
X017080Y017328D01*
X017080Y017346D01*
X017062Y017346D01*
X017062Y017703D01*
X016843Y017703D01*
X016802Y017692D01*
X016766Y017671D01*
X016736Y017642D01*
X016715Y017605D01*
X016704Y017564D01*
X016704Y017346D01*
X017062Y017346D01*
X017062Y017328D01*
X016704Y017328D01*
X016704Y017109D01*
X016715Y017068D01*
X016736Y017032D01*
X016766Y017002D01*
X016775Y016997D01*
X016743Y016965D01*
X016684Y016823D01*
X016684Y016669D01*
X016743Y016527D01*
X016819Y016451D01*
X016743Y016375D01*
X016684Y016233D01*
X016684Y016079D01*
X016743Y015937D01*
X016852Y015828D01*
X016994Y015769D01*
X017148Y015769D01*
X017290Y015828D01*
X017393Y015931D01*
X017393Y015667D01*
X017527Y015533D01*
X017704Y015356D01*
X017894Y015356D01*
X018571Y015356D01*
X018595Y015332D01*
X018704Y015287D01*
X018730Y015287D01*
X018426Y014983D01*
X018387Y014888D01*
X018387Y014785D01*
X018387Y013699D01*
X018385Y013652D01*
X018387Y013648D01*
X018387Y013643D01*
X018405Y013600D01*
X018421Y013556D01*
X018424Y013553D01*
X018426Y013548D01*
X018459Y013515D01*
X018623Y013339D01*
X018668Y013231D01*
X018752Y013147D01*
X018862Y013102D01*
X018980Y013102D01*
X019090Y013147D01*
X019174Y013231D01*
X019219Y013340D01*
X019219Y013459D01*
X019174Y013569D01*
X019090Y013652D01*
X019007Y013687D01*
X018904Y013797D01*
X018904Y014729D01*
X019068Y014893D01*
X019205Y014893D01*
X019200Y014887D01*
X019154Y014778D01*
X019154Y014659D01*
X019200Y014550D01*
X019284Y014466D01*
X019351Y014438D01*
X019351Y011813D01*
X019450Y011714D01*
X019450Y010965D01*
X018495Y010010D01*
X018495Y009820D01*
X018495Y008180D01*
X017905Y007590D01*
X017875Y007663D01*
X017791Y007747D01*
X017681Y007792D01*
X017563Y007792D01*
X017453Y007747D01*
X017429Y007723D01*
X016270Y007723D01*
X016306Y007809D01*
X016306Y007927D01*
X016260Y008037D01*
X016177Y008121D01*
X016067Y008166D01*
X015951Y008166D01*
X015951Y008257D01*
X016019Y008285D01*
X016103Y008369D01*
X016148Y008478D01*
X016148Y008597D01*
X016103Y008706D01*
X016019Y008790D01*
X015910Y008836D01*
X015873Y008836D01*
X015873Y008931D01*
X015837Y009017D01*
X017027Y009017D01*
X017035Y008999D01*
X017118Y008915D01*
X017228Y008869D01*
X017347Y008869D01*
X017456Y008915D01*
X017540Y008999D01*
X017585Y009108D01*
X017585Y009227D01*
X017540Y009336D01*
X017456Y009420D01*
X017347Y009465D01*
X017333Y009465D01*
X017323Y009475D01*
X017244Y009475D01*
X017167Y009486D01*
X017152Y009475D01*
X015421Y009475D01*
X015286Y009341D01*
X014988Y009042D01*
X013051Y009042D01*
X012185Y009908D01*
X011995Y009908D01*
X010204Y009908D01*
X010070Y009774D01*
X009889Y009594D01*
X003938Y009613D01*
X003937Y009613D01*
X003858Y009613D01*
X003834Y009637D01*
X003724Y009682D01*
X003606Y009682D01*
X003496Y009637D01*
X003412Y009553D01*
X003367Y009443D01*
X003367Y009387D01*
X003330Y009387D01*
X003221Y009341D01*
X003137Y009258D01*
X003091Y009148D01*
X003091Y009029D01*
X003137Y008920D01*
X003221Y008836D01*
X003330Y008791D01*
X003347Y008791D01*
X003347Y008754D01*
X003393Y008644D01*
X003477Y008560D01*
X003586Y008515D01*
X003705Y008515D01*
X003814Y008560D01*
X003838Y008584D01*
X010066Y008584D01*
X010256Y008584D01*
X010309Y008637D01*
X010386Y008560D01*
X010496Y008515D01*
X010614Y008515D01*
X010724Y008560D01*
X010747Y008584D01*
X011759Y008584D01*
X011792Y008551D01*
X011792Y008518D01*
X011838Y008408D01*
X011921Y008324D01*
X012031Y008279D01*
X012150Y008279D01*
X012242Y008317D01*
X012462Y008097D01*
X010945Y008097D01*
X010755Y008097D01*
X010588Y007930D01*
X010555Y007930D01*
X010445Y007885D01*
X010361Y007801D01*
X010316Y007691D01*
X010316Y007573D01*
X010361Y007463D01*
X010370Y007454D01*
X010268Y007412D01*
X010184Y007328D01*
X010139Y007219D01*
X010139Y007100D01*
X010150Y007074D01*
X007972Y007074D01*
X007948Y007097D01*
X007839Y007143D01*
X007720Y007143D01*
X007610Y007097D01*
X007527Y007013D01*
X007481Y006904D01*
X007481Y006785D01*
X007527Y006676D01*
X007604Y006598D01*
X007587Y006582D01*
X005826Y006582D01*
X005803Y006605D01*
X005693Y006651D01*
X005574Y006651D01*
X005465Y006605D01*
X005381Y006521D01*
X005336Y006412D01*
X005336Y006293D01*
X005381Y006184D01*
X005465Y006100D01*
X005574Y006054D01*
X005693Y006054D01*
X005803Y006100D01*
X005826Y006123D01*
X007587Y006123D01*
X007610Y006100D01*
X007615Y006098D01*
X007546Y006029D01*
X007501Y005920D01*
X007501Y005801D01*
X007546Y005691D01*
X007570Y005668D01*
X007570Y004773D01*
X006082Y003267D01*
X006015Y003199D01*
X006015Y003198D01*
X006014Y003198D01*
X006015Y003103D01*
X006015Y003080D01*
X005991Y003057D01*
X005946Y002947D01*
X005946Y002829D01*
X005991Y002719D01*
X006075Y002635D01*
X006185Y002590D01*
X006303Y002590D01*
X006413Y002635D01*
X006497Y002719D01*
X006542Y002829D01*
X006542Y002947D01*
X006503Y003041D01*
X007960Y004517D01*
X008028Y004584D01*
X008028Y004585D01*
X008029Y004586D01*
X008028Y004681D01*
X008028Y005631D01*
X011780Y005631D01*
X011803Y005608D01*
X011863Y005583D01*
X011858Y005578D01*
X011723Y005443D01*
X011723Y003100D01*
X011700Y003076D01*
X011654Y002967D01*
X011654Y002848D01*
X011700Y002739D01*
X011784Y002655D01*
X011893Y002609D01*
X012012Y002609D01*
X012121Y002655D01*
X012205Y002739D01*
X012251Y002848D01*
X012251Y002967D01*
X012205Y003076D01*
X012182Y003100D01*
X012182Y005254D01*
X012933Y006005D01*
X013906Y006005D01*
X013929Y005982D01*
X013975Y005963D01*
X013712Y005699D01*
X013712Y005509D01*
X013712Y004715D01*
X013393Y004397D01*
X012913Y004397D01*
X012889Y004420D01*
X012780Y004465D01*
X012661Y004465D01*
X012551Y004420D01*
X012468Y004336D01*
X012422Y004227D01*
X012422Y004108D01*
X012468Y003999D01*
X012551Y003915D01*
X012661Y003869D01*
X012780Y003869D01*
X012889Y003915D01*
X012913Y003938D01*
X013393Y003938D01*
X013583Y003938D01*
X014036Y004391D01*
X014170Y004525D01*
X014170Y005509D01*
X014622Y005962D01*
X014653Y005888D01*
X014671Y005870D01*
X014633Y005832D01*
X014588Y005723D01*
X014588Y005604D01*
X014633Y005495D01*
X014717Y005411D01*
X014826Y005365D01*
X014945Y005365D01*
X015055Y005411D01*
X015078Y005434D01*
X016349Y005434D01*
X016349Y005273D01*
X016349Y004459D01*
X014707Y002817D01*
X014372Y002817D01*
X014091Y002535D01*
X014091Y002138D01*
X014165Y002064D01*
X013274Y002064D01*
X013274Y002088D01*
X014169Y002983D01*
X014217Y002983D01*
X014326Y003029D01*
X014410Y003113D01*
X014455Y003222D01*
X014455Y003341D01*
X014410Y003450D01*
X014326Y003534D01*
X014217Y003580D01*
X014098Y003580D01*
X014074Y003570D01*
X014101Y003636D01*
X014101Y003754D01*
X014056Y003864D01*
X013972Y003948D01*
X013862Y003993D01*
X013744Y003993D01*
X013634Y003948D01*
X013550Y003864D01*
X013505Y003754D01*
X013505Y003636D01*
X013550Y003526D01*
X013584Y003493D01*
X013584Y003491D01*
X013563Y003491D01*
X013573Y003480D02*
X013499Y003554D01*
X013390Y003599D01*
X013271Y003599D01*
X013162Y003554D01*
X013078Y003470D01*
X013032Y003361D01*
X013032Y003313D01*
X012157Y002438D01*
X012110Y002438D01*
X012000Y002393D01*
X011916Y002309D01*
X011871Y002199D01*
X011871Y002081D01*
X011878Y002064D01*
X006215Y002064D01*
X005821Y002584D01*
X005814Y002601D01*
X005790Y002625D01*
X005769Y002652D01*
X005754Y002661D01*
X005741Y002674D01*
X005710Y002687D01*
X005681Y002704D01*
X005663Y002707D01*
X005646Y002714D01*
X005612Y002714D01*
X005579Y002718D01*
X005561Y002714D01*
X004679Y002714D01*
X004635Y002758D01*
X004504Y002812D01*
X004362Y002812D01*
X004231Y002758D01*
X004130Y002657D01*
X004283Y002779D02*
X003946Y002779D01*
X003828Y002898D02*
X005946Y002898D01*
X005966Y002779D02*
X004583Y002779D01*
X004117Y003253D02*
X003609Y003253D01*
X003609Y003135D02*
X006014Y003135D01*
X005975Y003016D02*
X003709Y003016D01*
X003609Y003372D02*
X003999Y003372D01*
X003880Y003491D02*
X003609Y003491D01*
X003609Y003609D02*
X003771Y003609D01*
X003771Y003728D02*
X003609Y003728D01*
X003609Y003846D02*
X003771Y003846D01*
X003771Y003965D02*
X003609Y003965D01*
X003609Y004083D02*
X003771Y004083D01*
X003771Y004202D02*
X003547Y004202D01*
X003430Y004320D02*
X003771Y004320D01*
X003771Y004439D02*
X003312Y004439D01*
X003195Y004557D02*
X003771Y004557D01*
X003771Y004676D02*
X003078Y004676D01*
X002960Y004795D02*
X003771Y004795D01*
X003771Y004913D02*
X002843Y004913D01*
X002726Y005032D02*
X003771Y005032D01*
X003717Y005150D02*
X002608Y005150D01*
X002491Y005269D02*
X003598Y005269D01*
X003479Y005387D02*
X003316Y005387D01*
X003187Y005387D02*
X002531Y005387D01*
X002585Y005506D02*
X002585Y005624D01*
X002531Y005743D02*
X002954Y005743D01*
X003009Y005861D02*
X002507Y005861D01*
X002507Y005980D02*
X003189Y005980D01*
X003314Y005980D02*
X007526Y005980D01*
X007501Y005861D02*
X003654Y005861D01*
X003772Y005743D02*
X007525Y005743D01*
X007570Y005624D02*
X003891Y005624D01*
X004009Y005506D02*
X007570Y005506D01*
X007570Y005387D02*
X004128Y005387D01*
X004229Y005269D02*
X007570Y005269D01*
X007570Y005150D02*
X004229Y005150D01*
X004229Y005032D02*
X007570Y005032D01*
X007570Y004913D02*
X004229Y004913D01*
X004229Y004795D02*
X007570Y004795D01*
X007474Y004676D02*
X004229Y004676D01*
X004229Y004557D02*
X007357Y004557D01*
X007240Y004439D02*
X004229Y004439D01*
X004229Y004320D02*
X007123Y004320D01*
X007006Y004202D02*
X004229Y004202D01*
X004229Y004083D02*
X006888Y004083D01*
X006771Y003965D02*
X004229Y003965D01*
X004229Y003846D02*
X006654Y003846D01*
X006537Y003728D02*
X005134Y003728D01*
X005264Y003609D02*
X006420Y003609D01*
X006303Y003491D02*
X005302Y003491D01*
X005290Y003372D02*
X006186Y003372D01*
X006069Y003253D02*
X005220Y003253D01*
X004874Y003728D02*
X004291Y003728D01*
X002855Y003609D02*
X000457Y003609D01*
X000457Y003491D02*
X002855Y003491D01*
X002855Y003372D02*
X000457Y003372D01*
X000457Y003728D02*
X002805Y003728D01*
X002681Y003846D02*
X000457Y003846D01*
X000457Y003965D02*
X002442Y003965D01*
X002362Y004083D02*
X000457Y004083D01*
X000457Y004202D02*
X002343Y004202D01*
X002374Y004320D02*
X000457Y004320D01*
X000457Y004439D02*
X002472Y004439D01*
X002362Y004557D02*
X000457Y004557D01*
X000457Y004676D02*
X002244Y004676D01*
X002127Y004795D02*
X000457Y004795D01*
X000457Y004913D02*
X002009Y004913D01*
X001892Y005032D02*
X000457Y005032D01*
X000457Y005150D02*
X001775Y005150D01*
X001657Y005269D02*
X000457Y005269D01*
X000457Y005387D02*
X001540Y005387D01*
X001423Y005506D02*
X000457Y005506D01*
X000457Y005624D02*
X001305Y005624D01*
X001188Y005743D02*
X000457Y005743D01*
X000457Y005861D02*
X001070Y005861D01*
X001005Y005980D02*
X000457Y005980D01*
X000457Y006099D02*
X001005Y006099D01*
X001005Y006217D02*
X000457Y006217D01*
X000457Y006336D02*
X001005Y006336D01*
X001005Y006454D02*
X000457Y006454D01*
X000457Y006573D02*
X001005Y006573D01*
X001115Y006691D02*
X000457Y006691D01*
X000457Y006810D02*
X001234Y006810D01*
X001352Y006928D02*
X000457Y006928D01*
X000457Y007047D02*
X001418Y007047D01*
X001418Y007165D02*
X000457Y007165D01*
X000457Y007284D02*
X001418Y007284D01*
X001418Y007402D02*
X000457Y007402D01*
X000457Y007521D02*
X001418Y007521D01*
X001418Y007640D02*
X000457Y007640D01*
X000457Y007758D02*
X001418Y007758D01*
X001418Y007877D02*
X000457Y007877D01*
X000457Y007995D02*
X001418Y007995D01*
X001418Y008114D02*
X000457Y008114D01*
X000457Y008232D02*
X001418Y008232D01*
X001418Y008351D02*
X000457Y008351D01*
X000457Y008469D02*
X001418Y008469D01*
X001418Y008588D02*
X000457Y008588D01*
X000457Y008706D02*
X001418Y008706D01*
X001418Y008825D02*
X000457Y008825D01*
X000457Y008944D02*
X001418Y008944D01*
X001418Y009062D02*
X000457Y009062D01*
X000457Y009181D02*
X001418Y009181D01*
X001418Y009299D02*
X000457Y009299D01*
X000457Y009418D02*
X001418Y009418D01*
X001418Y009536D02*
X000457Y009536D01*
X000457Y009655D02*
X001418Y009655D01*
X001418Y009773D02*
X000457Y009773D01*
X000457Y009892D02*
X001418Y009892D01*
X001418Y010010D02*
X000457Y010010D01*
X000457Y010129D02*
X001418Y010129D01*
X001418Y010248D02*
X000457Y010248D01*
X000457Y010366D02*
X001418Y010366D01*
X001418Y010485D02*
X000457Y010485D01*
X000457Y010603D02*
X001418Y010603D01*
X001418Y010722D02*
X000457Y010722D01*
X000457Y010840D02*
X001418Y010840D01*
X001418Y010959D02*
X000457Y010959D01*
X000457Y011077D02*
X001418Y011077D01*
X001418Y011196D02*
X000457Y011196D01*
X000457Y011314D02*
X001418Y011314D01*
X001418Y011433D02*
X000457Y011433D01*
X000457Y011551D02*
X001418Y011551D01*
X001418Y011670D02*
X000457Y011670D01*
X000457Y011789D02*
X001418Y011789D01*
X001418Y011907D02*
X000457Y011907D01*
X000457Y012026D02*
X001418Y012026D01*
X001418Y012144D02*
X000457Y012144D01*
X000457Y012263D02*
X001418Y012263D01*
X001418Y012381D02*
X000457Y012381D01*
X000457Y012500D02*
X001418Y012500D01*
X001418Y012618D02*
X000457Y012618D01*
X000457Y012737D02*
X001418Y012737D01*
X001418Y012855D02*
X000457Y012855D01*
X000457Y012974D02*
X001418Y012974D01*
X001418Y013093D02*
X000457Y013093D01*
X000457Y013211D02*
X001418Y013211D01*
X001418Y013330D02*
X000457Y013330D01*
X000457Y013448D02*
X001418Y013448D01*
X001418Y013567D02*
X000457Y013567D01*
X000457Y013685D02*
X001418Y013685D01*
X001418Y013804D02*
X000457Y013804D01*
X000457Y013922D02*
X001418Y013922D01*
X001418Y014041D02*
X000457Y014041D01*
X000457Y014159D02*
X001418Y014159D01*
X001418Y014278D02*
X000457Y014278D01*
X000457Y014397D02*
X001418Y014397D01*
X001418Y014515D02*
X000457Y014515D01*
X000457Y014634D02*
X001373Y014634D01*
X001254Y014752D02*
X000457Y014752D01*
X000457Y014871D02*
X001221Y014871D01*
X001221Y014989D02*
X000457Y014989D01*
X000457Y015108D02*
X001221Y015108D01*
X001221Y015226D02*
X000457Y015226D01*
X000457Y015345D02*
X001221Y015345D01*
X001221Y015463D02*
X000457Y015463D01*
X000457Y015582D02*
X001221Y015582D01*
X001221Y015701D02*
X000457Y015701D01*
X000457Y015819D02*
X001221Y015819D01*
X001221Y015938D02*
X000457Y015938D01*
X000457Y016056D02*
X001221Y016056D01*
X001221Y016175D02*
X000457Y016175D01*
X000457Y016293D02*
X001221Y016293D01*
X001221Y016412D02*
X000457Y016412D01*
X000457Y016530D02*
X001221Y016530D01*
X001221Y016649D02*
X000457Y016649D01*
X000457Y016767D02*
X001221Y016767D01*
X001221Y016886D02*
X000457Y016886D01*
X000457Y017004D02*
X001221Y017004D01*
X001221Y017123D02*
X000457Y017123D01*
X000457Y017242D02*
X001221Y017242D01*
X001221Y017360D02*
X000457Y017360D01*
X000457Y017479D02*
X001221Y017479D01*
X001221Y017597D02*
X000457Y017597D01*
X000457Y017716D02*
X001221Y017716D01*
X001221Y017834D02*
X000457Y017834D01*
X000457Y017953D02*
X001221Y017953D01*
X001221Y018071D02*
X000457Y018071D01*
X000457Y018190D02*
X001221Y018190D01*
X001202Y018308D02*
X000457Y018308D01*
X000457Y018427D02*
X001084Y018427D01*
X000965Y018546D02*
X000457Y018546D01*
X000457Y018664D02*
X000846Y018664D01*
X000728Y018783D02*
X000457Y018783D01*
X000457Y018901D02*
X000609Y018901D01*
X000491Y019020D02*
X000457Y019020D01*
X001189Y019375D02*
X003131Y019375D01*
X003131Y019257D02*
X001307Y019257D01*
X001426Y019138D02*
X001758Y019138D01*
X001663Y019020D02*
X001544Y019020D01*
X002108Y019138D02*
X003131Y019138D01*
X003131Y019020D02*
X002203Y019020D01*
X002463Y018901D02*
X003131Y018901D01*
X003131Y018783D02*
X002557Y018783D01*
X002585Y018664D02*
X003131Y018664D01*
X003131Y018546D02*
X002564Y018546D01*
X002507Y018427D02*
X003131Y018427D01*
X003131Y018308D02*
X002507Y018308D01*
X002507Y018190D02*
X003131Y018190D01*
X003131Y018071D02*
X002507Y018071D01*
X002507Y017953D02*
X003131Y017953D01*
X003131Y017834D02*
X002507Y017834D01*
X002507Y017716D02*
X003131Y017716D01*
X003131Y017597D02*
X002507Y017597D01*
X002507Y017479D02*
X003131Y017479D01*
X003131Y017360D02*
X002507Y017360D01*
X002507Y017242D02*
X003131Y017242D01*
X003131Y017123D02*
X002507Y017123D01*
X002507Y017004D02*
X003131Y017004D01*
X003131Y016886D02*
X002507Y016886D01*
X002507Y016767D02*
X003131Y016767D01*
X003131Y016649D02*
X002507Y016649D01*
X002507Y016530D02*
X003131Y016530D01*
X003131Y016412D02*
X002507Y016412D01*
X002507Y016293D02*
X003131Y016293D01*
X003131Y016175D02*
X002507Y016175D01*
X002507Y016056D02*
X003131Y016056D01*
X003131Y015938D02*
X002507Y015938D01*
X002507Y015819D02*
X003131Y015819D01*
X003131Y015701D02*
X002507Y015701D01*
X002507Y015582D02*
X003131Y015582D01*
X003131Y015463D02*
X002507Y015463D01*
X002507Y015345D02*
X003131Y015345D01*
X003131Y015226D02*
X002507Y015226D01*
X002507Y015108D02*
X003131Y015108D01*
X003131Y014989D02*
X002507Y014989D01*
X002507Y014871D02*
X003131Y014871D01*
X003131Y014752D02*
X002507Y014752D01*
X002507Y014634D02*
X003129Y014634D01*
X003222Y014515D02*
X002507Y014515D01*
X002507Y014397D02*
X003336Y014397D01*
X003449Y014278D02*
X002507Y014278D01*
X002507Y014159D02*
X003562Y014159D01*
X003676Y014041D02*
X002507Y014041D01*
X002507Y013922D02*
X003789Y013922D01*
X003902Y013804D02*
X002507Y013804D01*
X002507Y013685D02*
X003977Y013685D01*
X003977Y013567D02*
X002507Y013567D01*
X002507Y013448D02*
X004094Y013448D01*
X004212Y013330D02*
X002507Y013330D01*
X002507Y013211D02*
X004331Y013211D01*
X004449Y013093D02*
X002507Y013093D01*
X002507Y012974D02*
X004469Y012974D01*
X004450Y012855D02*
X002507Y012855D01*
X002507Y012737D02*
X004480Y012737D01*
X004576Y012618D02*
X002507Y012618D01*
X002507Y012500D02*
X005167Y012500D01*
X005105Y012618D02*
X004920Y012618D01*
X005016Y012737D02*
X005041Y012737D01*
X005306Y013093D02*
X012329Y013093D01*
X012310Y013111D02*
X012938Y012484D01*
X012934Y012475D01*
X012934Y012356D01*
X012979Y012247D01*
X013063Y012163D01*
X013173Y012117D01*
X013291Y012117D01*
X013401Y012163D01*
X013485Y012247D01*
X013495Y012272D01*
X013531Y012187D01*
X013614Y012104D01*
X013724Y012058D01*
X013843Y012058D01*
X013857Y012064D01*
X013840Y012022D01*
X013840Y011903D01*
X013885Y011794D01*
X013969Y011710D01*
X014078Y011665D01*
X014197Y011665D01*
X014306Y011710D01*
X014390Y011794D01*
X014436Y011903D01*
X014436Y011951D01*
X014662Y012176D01*
X014709Y012176D01*
X014818Y012222D01*
X014858Y012261D01*
X014845Y011445D01*
X014696Y011296D01*
X014649Y011296D01*
X014540Y011251D01*
X014456Y011167D01*
X014410Y011057D01*
X014410Y010939D01*
X014456Y010829D01*
X014540Y010745D01*
X014649Y010700D01*
X014768Y010700D01*
X014877Y010745D01*
X014905Y010773D01*
X014933Y010745D01*
X015043Y010700D01*
X015161Y010700D01*
X015271Y010745D01*
X015355Y010829D01*
X015400Y010939D01*
X015400Y010978D01*
X015564Y011133D01*
X015567Y011133D01*
X015629Y011196D01*
X015693Y011256D01*
X015693Y011259D01*
X015696Y011262D01*
X015696Y011349D01*
X015698Y011437D01*
X015696Y011440D01*
X015696Y012410D01*
X015729Y012443D01*
X015774Y012553D01*
X015774Y012672D01*
X015729Y012781D01*
X015645Y012865D01*
X015536Y012910D01*
X015417Y012910D01*
X015307Y012865D01*
X015279Y012837D01*
X015251Y012865D01*
X015142Y012910D01*
X015023Y012910D01*
X014914Y012865D01*
X014872Y012823D01*
X014869Y012892D01*
X014869Y012979D01*
X014865Y012982D01*
X014865Y012987D01*
X014802Y013046D01*
X014740Y013107D01*
X014735Y013107D01*
X014546Y013282D01*
X014484Y013343D01*
X014479Y013343D01*
X014476Y013347D01*
X014389Y013343D01*
X014211Y013343D01*
X013668Y013902D01*
X013668Y014713D01*
X013701Y014747D01*
X013747Y014856D01*
X013747Y014975D01*
X013701Y015084D01*
X013618Y015168D01*
X013508Y015214D01*
X013389Y015214D01*
X013280Y015168D01*
X013252Y015140D01*
X013224Y015168D01*
X013114Y015214D01*
X012996Y015214D01*
X012886Y015168D01*
X012802Y015084D01*
X012757Y014975D01*
X012757Y014856D01*
X012802Y014747D01*
X012836Y014713D01*
X012836Y013234D01*
X012500Y013570D01*
X012310Y013570D01*
X010276Y013570D01*
X010213Y013632D01*
X010213Y013936D01*
X010237Y013959D01*
X010282Y014069D01*
X010282Y014187D01*
X010237Y014297D01*
X010153Y014381D01*
X010043Y014426D01*
X009925Y014426D01*
X009815Y014381D01*
X009731Y014297D01*
X009686Y014187D01*
X009686Y014069D01*
X009731Y013959D01*
X009755Y013936D01*
X009755Y013443D01*
X009889Y013308D01*
X010086Y013111D01*
X010276Y013111D01*
X012310Y013111D01*
X012448Y012974D02*
X005493Y012974D01*
X005652Y012855D02*
X012566Y012855D01*
X012685Y012737D02*
X005696Y012737D01*
X005690Y012618D02*
X012803Y012618D01*
X012922Y012500D02*
X005628Y012500D01*
X005188Y013211D02*
X009986Y013211D01*
X009868Y013330D02*
X005069Y013330D01*
X004951Y013448D02*
X009755Y013448D01*
X009755Y013567D02*
X004832Y013567D01*
X004713Y013685D02*
X009755Y013685D01*
X009755Y013804D02*
X004595Y013804D01*
X004595Y013922D02*
X009755Y013922D01*
X009697Y014041D02*
X004497Y014041D01*
X004384Y014159D02*
X009686Y014159D01*
X009724Y014278D02*
X005562Y014278D01*
X005617Y014397D02*
X009853Y014397D01*
X010115Y014397D02*
X012836Y014397D01*
X012836Y014515D02*
X005616Y014515D01*
X005497Y014634D02*
X012836Y014634D01*
X012800Y014752D02*
X004424Y014752D01*
X004337Y014871D02*
X012757Y014871D01*
X012763Y014989D02*
X005803Y014989D01*
X005917Y015108D02*
X012826Y015108D01*
X013678Y015108D02*
X018551Y015108D01*
X018669Y015226D02*
X005951Y015226D01*
X005937Y015345D02*
X018582Y015345D01*
X018432Y014989D02*
X013741Y014989D01*
X013747Y014871D02*
X018387Y014871D01*
X018387Y014752D02*
X013704Y014752D01*
X013668Y014634D02*
X018387Y014634D01*
X018387Y014515D02*
X013668Y014515D01*
X013668Y014397D02*
X018387Y014397D01*
X018387Y014278D02*
X013668Y014278D01*
X013668Y014159D02*
X018387Y014159D01*
X018387Y014041D02*
X013668Y014041D01*
X013668Y013922D02*
X018387Y013922D01*
X018387Y013804D02*
X013763Y013804D01*
X013879Y013685D02*
X018386Y013685D01*
X018417Y013567D02*
X013994Y013567D01*
X014109Y013448D02*
X018522Y013448D01*
X018627Y013330D02*
X014498Y013330D01*
X014623Y013211D02*
X018688Y013211D01*
X019154Y013211D02*
X019351Y013211D01*
X019351Y013093D02*
X014755Y013093D01*
X014869Y012974D02*
X019351Y012974D01*
X019351Y012855D02*
X015655Y012855D01*
X015747Y012737D02*
X019351Y012737D01*
X019351Y012618D02*
X015774Y012618D01*
X015752Y012500D02*
X019351Y012500D01*
X019351Y012381D02*
X015696Y012381D01*
X015696Y012263D02*
X019351Y012263D01*
X019351Y012144D02*
X015696Y012144D01*
X015696Y012026D02*
X019351Y012026D01*
X019351Y011907D02*
X015696Y011907D01*
X015696Y011789D02*
X019375Y011789D01*
X019450Y011670D02*
X015696Y011670D01*
X015696Y011551D02*
X019450Y011551D01*
X019450Y011433D02*
X015698Y011433D01*
X015696Y011314D02*
X019450Y011314D01*
X019450Y011196D02*
X015630Y011196D01*
X015505Y011077D02*
X019450Y011077D01*
X019443Y010959D02*
X015400Y010959D01*
X015359Y010840D02*
X019325Y010840D01*
X019206Y010722D02*
X015214Y010722D01*
X014991Y010722D02*
X014820Y010722D01*
X014597Y010722D02*
X002507Y010722D01*
X002507Y010840D02*
X014451Y010840D01*
X014410Y010959D02*
X002507Y010959D01*
X002507Y011077D02*
X014419Y011077D01*
X014485Y011196D02*
X002507Y011196D01*
X002507Y011314D02*
X014715Y011314D01*
X014833Y011433D02*
X002507Y011433D01*
X002507Y011551D02*
X014847Y011551D01*
X014848Y011670D02*
X014210Y011670D01*
X014065Y011670D02*
X002507Y011670D01*
X002507Y011789D02*
X013890Y011789D01*
X013840Y011907D02*
X002507Y011907D01*
X002507Y012026D02*
X013841Y012026D01*
X013574Y012144D02*
X013356Y012144D01*
X013491Y012263D02*
X013499Y012263D01*
X013108Y012144D02*
X002507Y012144D01*
X002507Y012263D02*
X012973Y012263D01*
X012934Y012381D02*
X002507Y012381D01*
X002507Y010603D02*
X019088Y010603D01*
X018969Y010485D02*
X002507Y010485D01*
X002507Y010366D02*
X018851Y010366D01*
X018732Y010248D02*
X002507Y010248D01*
X002507Y010129D02*
X018614Y010129D01*
X018495Y010010D02*
X002507Y010010D01*
X002507Y009892D02*
X010188Y009892D01*
X010069Y009773D02*
X002507Y009773D01*
X002507Y009655D02*
X003540Y009655D01*
X003406Y009536D02*
X002507Y009536D01*
X002507Y009418D02*
X003367Y009418D01*
X003179Y009299D02*
X002507Y009299D01*
X002507Y009181D02*
X003105Y009181D01*
X003091Y009062D02*
X002507Y009062D01*
X002507Y008944D02*
X003127Y008944D01*
X003247Y008825D02*
X002507Y008825D01*
X002507Y008706D02*
X003367Y008706D01*
X003449Y008588D02*
X002507Y008588D01*
X002507Y008469D02*
X011812Y008469D01*
X011895Y008351D02*
X002507Y008351D01*
X002507Y008232D02*
X012327Y008232D01*
X012446Y008114D02*
X002507Y008114D01*
X002507Y007995D02*
X010653Y007995D01*
X010437Y007877D02*
X002507Y007877D01*
X002507Y007758D02*
X010344Y007758D01*
X010316Y007640D02*
X002507Y007640D01*
X002507Y007521D02*
X010337Y007521D01*
X010258Y007402D02*
X002507Y007402D01*
X002507Y007284D02*
X010166Y007284D01*
X010139Y007165D02*
X002507Y007165D01*
X002507Y007047D02*
X007560Y007047D01*
X007491Y006928D02*
X002507Y006928D01*
X002507Y006810D02*
X007481Y006810D01*
X007520Y006691D02*
X002507Y006691D01*
X002507Y006573D02*
X005432Y006573D01*
X005353Y006454D02*
X002507Y006454D01*
X002507Y006336D02*
X005336Y006336D01*
X005367Y006217D02*
X002507Y006217D01*
X002507Y006099D02*
X005468Y006099D01*
X005800Y006099D02*
X007613Y006099D01*
X008028Y005624D02*
X011787Y005624D01*
X011786Y005506D02*
X008028Y005506D01*
X008028Y005387D02*
X011723Y005387D01*
X011723Y005269D02*
X008028Y005269D01*
X008028Y005150D02*
X011723Y005150D01*
X011723Y005032D02*
X008028Y005032D01*
X008028Y004913D02*
X011723Y004913D01*
X011723Y004795D02*
X008028Y004795D01*
X008028Y004676D02*
X011723Y004676D01*
X011723Y004557D02*
X008001Y004557D01*
X007884Y004439D02*
X011723Y004439D01*
X011723Y004320D02*
X007767Y004320D01*
X007650Y004202D02*
X011723Y004202D01*
X011723Y004083D02*
X007533Y004083D01*
X007416Y003965D02*
X011723Y003965D01*
X011723Y003846D02*
X007299Y003846D01*
X007181Y003728D02*
X011723Y003728D01*
X011723Y003609D02*
X007064Y003609D01*
X006947Y003491D02*
X011723Y003491D01*
X011723Y003372D02*
X006830Y003372D01*
X006713Y003253D02*
X011723Y003253D01*
X011723Y003135D02*
X006596Y003135D01*
X006513Y003016D02*
X011675Y003016D01*
X011654Y002898D02*
X006542Y002898D01*
X006522Y002779D02*
X011683Y002779D01*
X011778Y002661D02*
X006438Y002661D01*
X006049Y002661D02*
X005755Y002661D01*
X005853Y002542D02*
X012261Y002542D01*
X012380Y002661D02*
X012127Y002661D01*
X012222Y002779D02*
X012498Y002779D01*
X012617Y002898D02*
X012251Y002898D01*
X012230Y003016D02*
X012735Y003016D01*
X012854Y003135D02*
X012182Y003135D01*
X012182Y003253D02*
X012973Y003253D01*
X013037Y003372D02*
X012182Y003372D01*
X012182Y003491D02*
X013098Y003491D01*
X013516Y003609D02*
X012182Y003609D01*
X012182Y003728D02*
X013505Y003728D01*
X013543Y003846D02*
X012182Y003846D01*
X012182Y003965D02*
X012501Y003965D01*
X012432Y004083D02*
X012182Y004083D01*
X012182Y004202D02*
X012422Y004202D01*
X012461Y004320D02*
X012182Y004320D01*
X012182Y004439D02*
X012597Y004439D01*
X012844Y004439D02*
X013435Y004439D01*
X013554Y004557D02*
X012182Y004557D01*
X012182Y004676D02*
X013672Y004676D01*
X013712Y004795D02*
X012182Y004795D01*
X012182Y004913D02*
X013712Y004913D01*
X013712Y005032D02*
X012182Y005032D01*
X012182Y005150D02*
X013712Y005150D01*
X013712Y005269D02*
X012197Y005269D01*
X012315Y005387D02*
X013712Y005387D01*
X013712Y005506D02*
X012434Y005506D01*
X012553Y005624D02*
X013712Y005624D01*
X013755Y005743D02*
X012671Y005743D01*
X012790Y005861D02*
X013874Y005861D01*
X013933Y005980D02*
X012908Y005980D01*
X014170Y005506D02*
X014628Y005506D01*
X014588Y005624D02*
X014285Y005624D01*
X014403Y005743D02*
X014596Y005743D01*
X014662Y005861D02*
X014522Y005861D01*
X014773Y005387D02*
X014170Y005387D01*
X014170Y005269D02*
X016349Y005269D01*
X016349Y005387D02*
X014998Y005387D01*
X014170Y005150D02*
X016349Y005150D01*
X016349Y005032D02*
X014170Y005032D01*
X014170Y004913D02*
X016349Y004913D01*
X016349Y004795D02*
X014170Y004795D01*
X014170Y004676D02*
X016349Y004676D01*
X016349Y004557D02*
X014170Y004557D01*
X014084Y004439D02*
X016329Y004439D01*
X016211Y004320D02*
X013965Y004320D01*
X013847Y004202D02*
X016092Y004202D01*
X015973Y004083D02*
X013728Y004083D01*
X013675Y003965D02*
X013609Y003965D01*
X013931Y003965D02*
X015855Y003965D01*
X015736Y003846D02*
X014063Y003846D01*
X014101Y003728D02*
X015618Y003728D01*
X015499Y003609D02*
X014090Y003609D01*
X014370Y003491D02*
X015381Y003491D01*
X015262Y003372D02*
X014443Y003372D01*
X014455Y003253D02*
X015144Y003253D01*
X015025Y003135D02*
X014419Y003135D01*
X014296Y003016D02*
X014907Y003016D01*
X014788Y002898D02*
X014084Y002898D01*
X013965Y002779D02*
X014335Y002779D01*
X014216Y002661D02*
X013847Y002661D01*
X013728Y002542D02*
X014097Y002542D01*
X014091Y002424D02*
X013610Y002424D01*
X013491Y002305D02*
X014091Y002305D01*
X014091Y002187D02*
X013373Y002187D01*
X013274Y002068D02*
X014161Y002068D01*
X014977Y002064D02*
X015051Y002138D01*
X015051Y002512D01*
X015940Y003401D01*
X015906Y003321D01*
X015906Y003203D01*
X015952Y003093D01*
X016036Y003009D01*
X016145Y002964D01*
X016264Y002964D01*
X016373Y003009D01*
X016457Y003093D01*
X016503Y003203D01*
X016503Y003250D01*
X016517Y003264D01*
X016517Y003163D01*
X016562Y003054D01*
X016646Y002970D01*
X016755Y002924D01*
X016874Y002924D01*
X016984Y002970D01*
X017067Y003054D01*
X017113Y003163D01*
X017113Y003209D01*
X017132Y003228D01*
X017132Y003229D01*
X017133Y003230D01*
X017133Y003320D01*
X017151Y005140D01*
X018210Y006217D01*
X019091Y007098D01*
X020011Y007098D01*
X020169Y006940D01*
X020351Y006940D01*
X020431Y006940D01*
X020465Y006907D01*
X020574Y006861D01*
X020693Y006861D01*
X020803Y006907D01*
X020850Y006954D01*
X020898Y006907D01*
X021007Y006861D01*
X021126Y006861D01*
X021236Y006907D01*
X021319Y006991D01*
X021365Y007100D01*
X021365Y007147D01*
X021857Y007639D01*
X021857Y007821D01*
X021857Y014337D01*
X021759Y014435D01*
X021759Y014522D01*
X021713Y014632D01*
X021629Y014715D01*
X021520Y014761D01*
X021401Y014761D01*
X021292Y014715D01*
X021208Y014632D01*
X021162Y014522D01*
X021162Y014403D01*
X021208Y014294D01*
X021292Y014210D01*
X021401Y014165D01*
X021409Y014165D01*
X021418Y014155D01*
X021418Y011880D01*
X021360Y011939D01*
X020962Y011939D01*
X020902Y011878D01*
X020902Y014644D01*
X020926Y014668D01*
X020971Y014777D01*
X020971Y014896D01*
X020956Y014932D01*
X025169Y014932D01*
X025208Y014932D01*
X025208Y014481D01*
X025102Y014525D01*
X024984Y014525D01*
X024874Y014479D01*
X024790Y014395D01*
X024781Y014374D01*
X024764Y014415D01*
X024681Y014499D01*
X024571Y014544D01*
X024452Y014544D01*
X024343Y014499D01*
X024259Y014415D01*
X024214Y014305D01*
X024214Y014258D01*
X023771Y013816D01*
X023724Y013816D01*
X023614Y013770D01*
X023531Y013687D01*
X023485Y013577D01*
X023485Y013458D01*
X023531Y013349D01*
X023614Y013265D01*
X023724Y013220D01*
X023843Y013220D01*
X023952Y013265D01*
X024036Y013349D01*
X024051Y013385D01*
X024082Y013310D01*
X024166Y013226D01*
X024275Y013180D01*
X024394Y013180D01*
X024503Y013226D01*
X024587Y013310D01*
X024633Y013419D01*
X024633Y013470D01*
X025078Y013928D01*
X025102Y013928D01*
X025208Y013972D01*
X025208Y012750D01*
X025134Y012677D01*
X025080Y012546D01*
X025080Y012403D01*
X025134Y012272D01*
X025235Y012172D01*
X025366Y012117D01*
X025508Y012117D01*
X025639Y012172D01*
X025740Y012272D01*
X025769Y012342D01*
X025769Y011065D01*
X025769Y007247D01*
X025664Y007143D01*
X023649Y007143D01*
X023600Y007144D01*
X023597Y007143D01*
X023594Y007143D01*
X023550Y007124D01*
X023504Y007106D01*
X023502Y007104D01*
X023499Y007103D01*
X023465Y007070D01*
X023030Y006652D01*
X023028Y006651D01*
X022993Y006617D01*
X022957Y006582D01*
X022956Y006580D01*
X022954Y006579D01*
X022936Y006534D01*
X022915Y006488D01*
X022915Y006486D01*
X022915Y006484D01*
X022914Y006434D01*
X022913Y006385D01*
X022914Y006383D01*
X022895Y002307D01*
X022691Y002103D01*
X019961Y002091D01*
X019964Y002096D01*
X019997Y002160D01*
X020019Y002229D01*
X020030Y002297D01*
X019611Y002297D01*
X019611Y002377D01*
X019531Y002377D01*
X019531Y002796D01*
X019463Y002785D01*
X019394Y002763D01*
X019330Y002730D01*
X019271Y002688D01*
X019220Y002636D01*
X019177Y002578D01*
X019144Y002513D01*
X019122Y002444D01*
X019111Y002377D01*
X019530Y002377D01*
X019530Y002297D01*
X019111Y002297D01*
X019122Y002229D01*
X019144Y002160D01*
X019177Y002096D01*
X019183Y002088D01*
X018958Y002087D01*
X018964Y002096D01*
X018997Y002160D01*
X019019Y002229D01*
X019030Y002297D01*
X018611Y002297D01*
X018611Y002377D01*
X018531Y002377D01*
X018531Y002796D01*
X018463Y002785D01*
X018394Y002763D01*
X018330Y002730D01*
X018271Y002688D01*
X018220Y002636D01*
X018177Y002578D01*
X018144Y002513D01*
X018122Y002444D01*
X018111Y002377D01*
X018530Y002377D01*
X018530Y002297D01*
X018111Y002297D01*
X018122Y002229D01*
X018144Y002160D01*
X018177Y002096D01*
X018186Y002084D01*
X018171Y002084D01*
X018045Y002227D01*
X018051Y002241D01*
X018051Y002432D01*
X017978Y002609D01*
X017843Y002744D01*
X017666Y002817D01*
X017475Y002817D01*
X017299Y002744D01*
X017164Y002609D01*
X017091Y002432D01*
X017091Y002241D01*
X017096Y002228D01*
X017009Y002141D01*
X017051Y002241D01*
X017051Y002432D01*
X016978Y002609D01*
X016843Y002744D01*
X016666Y002817D01*
X016475Y002817D01*
X016299Y002744D01*
X016164Y002609D01*
X016091Y002432D01*
X016091Y002241D01*
X016164Y002065D01*
X016165Y002064D01*
X015977Y002064D01*
X015978Y002065D01*
X016051Y002241D01*
X016051Y002432D01*
X015978Y002609D01*
X015843Y002744D01*
X015666Y002817D01*
X015475Y002817D01*
X015299Y002744D01*
X015164Y002609D01*
X015091Y002432D01*
X015091Y002241D01*
X015164Y002065D01*
X015165Y002064D01*
X014977Y002064D01*
X014981Y002068D02*
X015162Y002068D01*
X015113Y002187D02*
X015051Y002187D01*
X015051Y002305D02*
X015091Y002305D01*
X015091Y002424D02*
X015051Y002424D01*
X015081Y002542D02*
X015136Y002542D01*
X015199Y002661D02*
X015216Y002661D01*
X015318Y002779D02*
X015385Y002779D01*
X015436Y002898D02*
X022898Y002898D01*
X022898Y003016D02*
X021892Y003016D01*
X021930Y003054D02*
X021975Y003163D01*
X021975Y003282D01*
X021930Y003391D01*
X021896Y003425D01*
X021896Y004943D01*
X021925Y004972D01*
X022236Y004972D01*
X022417Y004972D01*
X022536Y005090D01*
X022664Y005218D01*
X022664Y005710D01*
X022664Y005892D01*
X022625Y005931D01*
X022625Y005979D01*
X022579Y006088D01*
X022495Y006172D01*
X022386Y006217D01*
X022267Y006217D01*
X022158Y006172D01*
X022074Y006088D01*
X022029Y005979D01*
X022029Y005860D01*
X022074Y005750D01*
X022080Y005744D01*
X022020Y005719D01*
X021947Y005647D01*
X021350Y005647D01*
X021221Y005518D01*
X020690Y004987D01*
X020690Y004805D01*
X020690Y003444D01*
X020657Y003411D01*
X020611Y003301D01*
X020611Y003183D01*
X020657Y003073D01*
X020740Y002989D01*
X020850Y002944D01*
X020969Y002944D01*
X021078Y002989D01*
X021162Y003073D01*
X021207Y003183D01*
X021207Y003301D01*
X021162Y003411D01*
X021129Y003444D01*
X021129Y004805D01*
X021532Y005208D01*
X021541Y005208D01*
X021458Y005124D01*
X021458Y004943D01*
X021458Y003425D01*
X021424Y003391D01*
X021379Y003282D01*
X021379Y003163D01*
X021424Y003054D01*
X021508Y002970D01*
X021618Y002924D01*
X021736Y002924D01*
X021846Y002970D01*
X021930Y003054D01*
X021963Y003135D02*
X022899Y003135D01*
X022900Y003253D02*
X021975Y003253D01*
X021938Y003372D02*
X022900Y003372D01*
X022901Y003491D02*
X021896Y003491D01*
X021896Y003609D02*
X022901Y003609D01*
X022902Y003728D02*
X021896Y003728D01*
X021896Y003846D02*
X022902Y003846D01*
X022903Y003965D02*
X021896Y003965D01*
X021896Y004083D02*
X022903Y004083D01*
X022904Y004202D02*
X021896Y004202D01*
X021896Y004320D02*
X022905Y004320D01*
X022905Y004439D02*
X021896Y004439D01*
X021896Y004557D02*
X022906Y004557D01*
X022906Y004676D02*
X021896Y004676D01*
X021896Y004795D02*
X022907Y004795D01*
X022907Y004913D02*
X021896Y004913D01*
X022477Y005032D02*
X022908Y005032D01*
X022908Y005150D02*
X022596Y005150D01*
X022664Y005269D02*
X022909Y005269D01*
X022909Y005387D02*
X022664Y005387D01*
X022664Y005506D02*
X022910Y005506D01*
X022911Y005624D02*
X022664Y005624D01*
X022664Y005743D02*
X022911Y005743D01*
X022912Y005861D02*
X022664Y005861D01*
X022624Y005980D02*
X022912Y005980D01*
X022913Y006099D02*
X022569Y006099D01*
X022387Y006217D02*
X022913Y006217D01*
X022914Y006336D02*
X018329Y006336D01*
X018447Y006454D02*
X022914Y006454D01*
X022952Y006573D02*
X018566Y006573D01*
X018684Y006691D02*
X023071Y006691D01*
X023194Y006810D02*
X018803Y006810D01*
X018921Y006928D02*
X020443Y006928D01*
X020824Y006928D02*
X020876Y006928D01*
X021257Y006928D02*
X023318Y006928D01*
X023442Y007047D02*
X021343Y007047D01*
X021383Y007165D02*
X025687Y007165D01*
X025769Y007284D02*
X021501Y007284D01*
X021620Y007402D02*
X025769Y007402D01*
X025769Y007521D02*
X021739Y007521D01*
X021857Y007640D02*
X025769Y007640D01*
X025769Y007758D02*
X024263Y007758D01*
X024236Y007747D02*
X024346Y007793D01*
X024419Y007865D01*
X024532Y007865D01*
X024641Y007911D01*
X024725Y007995D01*
X025769Y007995D01*
X025769Y007877D02*
X024559Y007877D01*
X024725Y007995D02*
X024770Y008104D01*
X024770Y008223D01*
X024725Y008332D01*
X024701Y008356D01*
X024701Y010668D01*
X024725Y010691D01*
X024770Y010801D01*
X024770Y010920D01*
X024725Y011029D01*
X024641Y011113D01*
X024532Y011158D01*
X024413Y011158D01*
X024303Y011113D01*
X024220Y011029D01*
X024174Y010920D01*
X024174Y010801D01*
X024220Y010691D01*
X024243Y010668D01*
X024243Y010447D01*
X024236Y010450D01*
X024118Y010450D01*
X024099Y010442D01*
X024101Y010447D01*
X024101Y010565D01*
X024056Y010675D01*
X023972Y010759D01*
X023862Y010804D01*
X023819Y010804D01*
X023825Y010821D01*
X023825Y010874D01*
X024026Y011074D01*
X024059Y011074D01*
X024169Y011119D01*
X024253Y011203D01*
X024298Y011313D01*
X024298Y011431D01*
X024253Y011541D01*
X024169Y011625D01*
X024059Y011670D01*
X023941Y011670D01*
X023831Y011625D01*
X023747Y011541D01*
X023702Y011431D01*
X023702Y011398D01*
X023482Y011178D01*
X023468Y011178D01*
X023359Y011133D01*
X023275Y011049D01*
X023229Y010939D01*
X023229Y010821D01*
X023275Y010711D01*
X023359Y010627D01*
X023468Y010582D01*
X023512Y010582D01*
X023505Y010565D01*
X023505Y010447D01*
X023550Y010337D01*
X023574Y010314D01*
X023574Y009360D01*
X023550Y009336D01*
X023505Y009227D01*
X023505Y009108D01*
X023550Y008999D01*
X023634Y008915D01*
X023744Y008869D01*
X023862Y008869D01*
X023948Y008905D01*
X023948Y008238D01*
X023924Y008214D01*
X023879Y008105D01*
X023879Y007986D01*
X023924Y007876D01*
X024008Y007793D01*
X024118Y007747D01*
X024236Y007747D01*
X024091Y007758D02*
X021857Y007758D01*
X021857Y007877D02*
X023924Y007877D01*
X023879Y007995D02*
X021857Y007995D01*
X021857Y008114D02*
X023883Y008114D01*
X023942Y008232D02*
X021857Y008232D01*
X021857Y008351D02*
X023948Y008351D01*
X023948Y008469D02*
X021857Y008469D01*
X021857Y008588D02*
X023948Y008588D01*
X023948Y008706D02*
X021857Y008706D01*
X021857Y008825D02*
X023948Y008825D01*
X023605Y008944D02*
X021857Y008944D01*
X021857Y009062D02*
X023524Y009062D01*
X023505Y009181D02*
X021857Y009181D01*
X021857Y009299D02*
X023535Y009299D01*
X023574Y009418D02*
X021857Y009418D01*
X021857Y009536D02*
X023574Y009536D01*
X023574Y009655D02*
X021857Y009655D01*
X021857Y009773D02*
X023574Y009773D01*
X023574Y009892D02*
X021857Y009892D01*
X021857Y010010D02*
X023574Y010010D01*
X023574Y010129D02*
X021857Y010129D01*
X021857Y010248D02*
X023574Y010248D01*
X023538Y010366D02*
X021857Y010366D01*
X021857Y010485D02*
X023505Y010485D01*
X023417Y010603D02*
X021857Y010603D01*
X021857Y010722D02*
X023270Y010722D01*
X023229Y010840D02*
X021857Y010840D01*
X021857Y010959D02*
X023237Y010959D01*
X023303Y011077D02*
X021857Y011077D01*
X021857Y011196D02*
X023499Y011196D01*
X023618Y011314D02*
X021857Y011314D01*
X021857Y011433D02*
X023702Y011433D01*
X023758Y011551D02*
X021857Y011551D01*
X021857Y011670D02*
X023940Y011670D01*
X024060Y011670D02*
X025769Y011670D01*
X025769Y011551D02*
X024242Y011551D01*
X024297Y011433D02*
X025769Y011433D01*
X025769Y011314D02*
X024298Y011314D01*
X024245Y011196D02*
X025769Y011196D01*
X025769Y011077D02*
X024677Y011077D01*
X024754Y010959D02*
X025769Y010959D01*
X025769Y010840D02*
X024770Y010840D01*
X024737Y010722D02*
X025769Y010722D01*
X025769Y010603D02*
X024701Y010603D01*
X024701Y010485D02*
X025769Y010485D01*
X025769Y010366D02*
X024701Y010366D01*
X024701Y010248D02*
X025769Y010248D01*
X025769Y010129D02*
X024701Y010129D01*
X024701Y010010D02*
X025769Y010010D01*
X025769Y009892D02*
X024701Y009892D01*
X024701Y009773D02*
X025769Y009773D01*
X025769Y009655D02*
X024701Y009655D01*
X024701Y009536D02*
X025769Y009536D01*
X025769Y009418D02*
X024701Y009418D01*
X024701Y009299D02*
X025769Y009299D01*
X025769Y009181D02*
X024701Y009181D01*
X024701Y009062D02*
X025769Y009062D01*
X025769Y008944D02*
X024701Y008944D01*
X024701Y008825D02*
X025769Y008825D01*
X025769Y008706D02*
X024701Y008706D01*
X024701Y008588D02*
X025769Y008588D01*
X025769Y008469D02*
X024701Y008469D01*
X024706Y008351D02*
X025769Y008351D01*
X025769Y008232D02*
X024766Y008232D01*
X024770Y008114D02*
X025769Y008114D01*
X026286Y008114D02*
X028084Y008114D01*
X028072Y007995D02*
X026286Y007995D01*
X026286Y007877D02*
X028109Y007877D01*
X028131Y007758D02*
X026286Y007758D01*
X026286Y007640D02*
X028111Y007640D01*
X028141Y007521D02*
X026286Y007521D01*
X026286Y007402D02*
X028190Y007402D01*
X028190Y007284D02*
X026286Y007284D01*
X026286Y007165D02*
X028190Y007165D01*
X028190Y007047D02*
X026269Y007047D01*
X026182Y006928D02*
X028232Y006928D01*
X028350Y006810D02*
X026063Y006810D01*
X025945Y006691D02*
X028469Y006691D01*
X028734Y007047D02*
X033723Y007047D01*
X033723Y007165D02*
X028629Y007165D01*
X028629Y007284D02*
X033723Y007284D01*
X033723Y007402D02*
X028629Y007402D01*
X028678Y007521D02*
X033723Y007521D01*
X033723Y007640D02*
X033060Y007640D01*
X033165Y007758D02*
X033723Y007758D01*
X033723Y007877D02*
X033271Y007877D01*
X033376Y007995D02*
X033723Y007995D01*
X033723Y008114D02*
X033455Y008114D01*
X033451Y008232D02*
X033723Y008232D01*
X033723Y008351D02*
X033451Y008351D01*
X033451Y008469D02*
X033723Y008469D01*
X033723Y008588D02*
X033451Y008588D01*
X033451Y008706D02*
X033723Y008706D01*
X033723Y008825D02*
X033451Y008825D01*
X033451Y008944D02*
X033723Y008944D01*
X033723Y009062D02*
X033451Y009062D01*
X033451Y009181D02*
X033723Y009181D01*
X033723Y009299D02*
X033451Y009299D01*
X033451Y009418D02*
X033723Y009418D01*
X033723Y009536D02*
X033451Y009536D01*
X033451Y009655D02*
X033723Y009655D01*
X033723Y009773D02*
X033451Y009773D01*
X033451Y009892D02*
X033723Y009892D01*
X033723Y010010D02*
X033451Y010010D01*
X033451Y010129D02*
X033723Y010129D01*
X033723Y010248D02*
X033451Y010248D01*
X033451Y010366D02*
X033723Y010366D01*
X033723Y010485D02*
X033451Y010485D01*
X033451Y010603D02*
X033723Y010603D01*
X033723Y010722D02*
X033451Y010722D01*
X033451Y010840D02*
X033723Y010840D01*
X033723Y010959D02*
X033451Y010959D01*
X033451Y011077D02*
X033723Y011077D01*
X033723Y011196D02*
X033451Y011196D01*
X033451Y011314D02*
X033723Y011314D01*
X033723Y011433D02*
X033451Y011433D01*
X033451Y011551D02*
X033723Y011551D01*
X033723Y011670D02*
X033451Y011670D01*
X033451Y011789D02*
X033723Y011789D01*
X033723Y011907D02*
X033451Y011907D01*
X033451Y012026D02*
X033723Y012026D01*
X033723Y012144D02*
X033451Y012144D01*
X033451Y012263D02*
X033723Y012263D01*
X033723Y012381D02*
X033451Y012381D01*
X033451Y012500D02*
X033723Y012500D01*
X033723Y012618D02*
X033451Y012618D01*
X033451Y012737D02*
X033723Y012737D01*
X033723Y012855D02*
X033451Y012855D01*
X033451Y012974D02*
X033723Y012974D01*
X033723Y013093D02*
X033451Y013093D01*
X033451Y013211D02*
X033723Y013211D01*
X033723Y013330D02*
X033451Y013330D01*
X033451Y013448D02*
X033723Y013448D01*
X033723Y013567D02*
X033451Y013567D01*
X033451Y013685D02*
X033723Y013685D01*
X033723Y013804D02*
X033451Y013804D01*
X033451Y013922D02*
X033723Y013922D01*
X033723Y014041D02*
X033451Y014041D01*
X033451Y014159D02*
X033723Y014159D01*
X033723Y014278D02*
X033451Y014278D01*
X033451Y014397D02*
X033723Y014397D01*
X033723Y014515D02*
X033451Y014515D01*
X033451Y014634D02*
X033723Y014634D01*
X033723Y014752D02*
X033451Y014752D01*
X033451Y014871D02*
X033723Y014871D01*
X033723Y014989D02*
X033451Y014989D01*
X033451Y015108D02*
X033723Y015108D01*
X033723Y015226D02*
X033451Y015226D01*
X033451Y015345D02*
X033723Y015345D01*
X033723Y015463D02*
X033451Y015463D01*
X033451Y015582D02*
X033723Y015582D01*
X033723Y015701D02*
X033451Y015701D01*
X033451Y015819D02*
X033723Y015819D01*
X033723Y015938D02*
X033451Y015938D01*
X033451Y016056D02*
X033723Y016056D01*
X033723Y016175D02*
X033451Y016175D01*
X033451Y016293D02*
X033723Y016293D01*
X033723Y016412D02*
X033451Y016412D01*
X033451Y016530D02*
X033723Y016530D01*
X033723Y016649D02*
X033451Y016649D01*
X033451Y016767D02*
X033723Y016767D01*
X033723Y016886D02*
X033451Y016886D01*
X033451Y017004D02*
X033723Y017004D01*
X033723Y017123D02*
X033451Y017123D01*
X033451Y017242D02*
X033723Y017242D01*
X033723Y017360D02*
X033451Y017360D01*
X033451Y017479D02*
X033723Y017479D01*
X033723Y017597D02*
X033451Y017597D01*
X033451Y017716D02*
X033723Y017716D01*
X033723Y017834D02*
X033451Y017834D01*
X033451Y017953D02*
X033723Y017953D01*
X033723Y018071D02*
X033451Y018071D01*
X033451Y018190D02*
X033723Y018190D01*
X033723Y018308D02*
X033451Y018308D01*
X033451Y018427D02*
X033723Y018427D01*
X033723Y018546D02*
X033451Y018546D01*
X033451Y018664D02*
X033723Y018664D01*
X033723Y018783D02*
X033451Y018783D01*
X033451Y018901D02*
X033723Y018901D01*
X033723Y019020D02*
X033451Y019020D01*
X033451Y019138D02*
X033723Y019138D01*
X033723Y019257D02*
X033451Y019257D01*
X033451Y019375D02*
X033723Y019375D01*
X033723Y019494D02*
X033451Y019494D01*
X033451Y019612D02*
X033723Y019612D01*
X033723Y019731D02*
X033451Y019731D01*
X033451Y019850D02*
X033723Y019850D01*
X033723Y019968D02*
X033451Y019968D01*
X033556Y020087D02*
X033723Y020087D01*
X033723Y020205D02*
X033675Y020205D01*
X033292Y020679D02*
X026891Y020679D01*
X026424Y020679D02*
X025257Y020679D01*
X024790Y020679D02*
X004377Y020679D01*
X004377Y020561D02*
X024700Y020561D01*
X024666Y020442D02*
X023955Y020442D01*
X024073Y020324D02*
X024672Y020324D01*
X024721Y020205D02*
X024821Y020105D01*
X025182Y020087D02*
X026499Y020087D01*
X026535Y019850D02*
X029056Y019850D01*
X029070Y019968D02*
X024429Y019968D01*
X024446Y019850D02*
X026150Y019850D01*
X026066Y019731D02*
X024446Y019731D01*
X024446Y019612D02*
X026044Y019612D01*
X026072Y019494D02*
X024446Y019494D01*
X024446Y019375D02*
X026166Y019375D01*
X026519Y019375D02*
X029092Y019375D01*
X029210Y019257D02*
X024446Y019257D01*
X024446Y019138D02*
X031173Y019138D01*
X031285Y019020D02*
X025634Y019020D01*
X025746Y018901D02*
X031340Y018901D01*
X031340Y018783D02*
X025794Y018783D01*
X025794Y018664D02*
X031340Y018664D01*
X031340Y018546D02*
X025753Y018546D01*
X025735Y018427D02*
X031340Y018427D01*
X031340Y018308D02*
X025735Y018308D01*
X025735Y018190D02*
X031340Y018190D01*
X031340Y018071D02*
X025735Y018071D01*
X025735Y017953D02*
X031340Y017953D01*
X031340Y017834D02*
X025735Y017834D01*
X025735Y017716D02*
X031340Y017716D01*
X031340Y017597D02*
X025735Y017597D01*
X025735Y017479D02*
X031340Y017479D01*
X031340Y017360D02*
X025735Y017360D01*
X025735Y017242D02*
X031340Y017242D01*
X031340Y017123D02*
X025735Y017123D01*
X025735Y017004D02*
X031340Y017004D01*
X031340Y016886D02*
X025735Y016886D01*
X025735Y016767D02*
X031340Y016767D01*
X031340Y016649D02*
X025830Y016649D01*
X025948Y016530D02*
X031340Y016530D01*
X031340Y016412D02*
X026067Y016412D01*
X026185Y016293D02*
X031340Y016293D01*
X031340Y016175D02*
X026304Y016175D01*
X026422Y016056D02*
X030920Y016056D01*
X031292Y016056D02*
X031340Y016056D01*
X031340Y015582D02*
X031289Y015582D01*
X031340Y015463D02*
X028195Y015463D01*
X028224Y015345D02*
X031340Y015345D01*
X031325Y015226D02*
X028223Y015226D01*
X028191Y015108D02*
X031208Y015108D01*
X031091Y014989D02*
X028118Y014989D01*
X027959Y014871D02*
X030975Y014871D01*
X030858Y014752D02*
X026596Y014752D01*
X026478Y014634D02*
X030741Y014634D01*
X030624Y014515D02*
X026359Y014515D01*
X026286Y014397D02*
X030508Y014397D01*
X030391Y014278D02*
X026286Y014278D01*
X026286Y014159D02*
X030274Y014159D01*
X030158Y014041D02*
X026286Y014041D01*
X026286Y013922D02*
X030099Y013922D01*
X030099Y013804D02*
X026286Y013804D01*
X026286Y013685D02*
X026699Y013685D01*
X026725Y013711D02*
X026641Y013628D01*
X026595Y013518D01*
X026595Y013399D01*
X026641Y013290D01*
X026725Y013206D01*
X026834Y013161D01*
X026953Y013161D01*
X027062Y013206D01*
X027096Y013239D01*
X029152Y013239D01*
X029185Y013206D01*
X029295Y013161D01*
X029413Y013161D01*
X029523Y013206D01*
X029607Y013290D01*
X029652Y013399D01*
X029652Y013518D01*
X029607Y013628D01*
X029523Y013711D01*
X029413Y013757D01*
X029295Y013757D01*
X029185Y013711D01*
X029152Y013678D01*
X027096Y013678D01*
X027062Y013711D01*
X026953Y013757D01*
X026834Y013757D01*
X026725Y013711D01*
X026616Y013567D02*
X026286Y013567D01*
X026286Y013448D02*
X026595Y013448D01*
X026624Y013330D02*
X026286Y013330D01*
X026286Y013211D02*
X026720Y013211D01*
X027067Y013211D02*
X029180Y013211D01*
X029528Y013211D02*
X030099Y013211D01*
X030099Y013093D02*
X026286Y013093D01*
X026286Y012974D02*
X030099Y012974D01*
X030064Y012855D02*
X026286Y012855D01*
X026286Y012737D02*
X030021Y012737D01*
X030026Y012618D02*
X026286Y012618D01*
X026286Y012500D02*
X030088Y012500D01*
X030141Y012381D02*
X026286Y012381D01*
X026286Y012263D02*
X030029Y012263D01*
X029917Y012144D02*
X026286Y012144D01*
X026286Y012026D02*
X029806Y012026D01*
X029586Y011907D02*
X026286Y011907D01*
X026286Y011789D02*
X029518Y011789D01*
X029509Y011670D02*
X026286Y011670D01*
X026286Y011551D02*
X029549Y011551D01*
X029656Y011433D02*
X029689Y011433D01*
X029925Y011433D02*
X031073Y011433D01*
X031071Y011551D02*
X030065Y011551D01*
X030105Y011670D02*
X031071Y011670D01*
X031114Y011789D02*
X030185Y011789D01*
X030297Y011907D02*
X031191Y011907D01*
X031352Y012026D02*
X030408Y012026D01*
X030520Y012144D02*
X032304Y012144D01*
X032304Y012026D02*
X031750Y012026D01*
X031911Y011907D02*
X032191Y011907D01*
X032072Y011789D02*
X031988Y011789D01*
X032031Y011670D02*
X032071Y011670D01*
X032071Y011551D02*
X032031Y011551D01*
X032006Y011433D02*
X032071Y011433D01*
X032146Y011314D02*
X031956Y011314D01*
X031837Y011196D02*
X032265Y011196D01*
X032328Y011077D02*
X031338Y011077D01*
X031456Y010691D02*
X031279Y010618D01*
X031144Y010483D01*
X031071Y010306D01*
X031071Y010115D01*
X031144Y009939D01*
X031279Y009804D01*
X031304Y009794D01*
X031232Y009721D01*
X030560Y009721D01*
X030527Y009755D01*
X030417Y009800D01*
X030299Y009800D01*
X030189Y009755D01*
X030105Y009671D01*
X030060Y009561D01*
X030060Y009443D01*
X030105Y009333D01*
X030189Y009249D01*
X030299Y009204D01*
X030417Y009204D01*
X030527Y009249D01*
X030560Y009283D01*
X031232Y009283D01*
X031414Y009283D01*
X031650Y009519D01*
X031778Y009647D01*
X031778Y009785D01*
X031823Y009804D01*
X031958Y009939D01*
X032031Y010115D01*
X032031Y010306D01*
X031958Y010483D01*
X031823Y010618D01*
X031646Y010691D01*
X031456Y010691D01*
X031265Y010603D02*
X026286Y010603D01*
X026286Y010485D02*
X031146Y010485D01*
X031096Y010366D02*
X026286Y010366D01*
X026286Y010248D02*
X031071Y010248D01*
X031071Y010129D02*
X029018Y010129D01*
X029136Y010010D02*
X031114Y010010D01*
X031191Y009892D02*
X029180Y009892D01*
X029180Y009773D02*
X030234Y009773D01*
X030099Y009655D02*
X029180Y009655D01*
X029180Y009536D02*
X030060Y009536D01*
X030070Y009418D02*
X029180Y009418D01*
X029101Y009299D02*
X030139Y009299D01*
X030196Y009062D02*
X032855Y009062D01*
X032855Y008944D02*
X032529Y008944D01*
X032629Y008825D02*
X032855Y008825D01*
X032855Y008706D02*
X032729Y008706D01*
X032855Y009181D02*
X029101Y009181D01*
X029101Y009062D02*
X029851Y009062D01*
X029755Y008944D02*
X029101Y008944D01*
X029101Y008825D02*
X029725Y008825D01*
X028869Y008114D02*
X028809Y008114D01*
X028746Y008232D02*
X028690Y008232D01*
X028623Y008351D02*
X026286Y008351D01*
X026286Y008469D02*
X028500Y008469D01*
X028485Y008588D02*
X027045Y008588D01*
X026860Y008588D02*
X026286Y008588D01*
X026286Y008706D02*
X026699Y008706D01*
X026654Y008825D02*
X026286Y008825D01*
X026286Y008944D02*
X026660Y008944D01*
X026721Y009062D02*
X026286Y009062D01*
X026286Y009181D02*
X028142Y009181D01*
X028131Y009299D02*
X026286Y009299D01*
X026286Y009418D02*
X028169Y009418D01*
X028303Y009536D02*
X026286Y009536D01*
X026286Y009655D02*
X028130Y009655D01*
X028062Y009773D02*
X026286Y009773D01*
X026286Y009892D02*
X028052Y009892D01*
X028091Y010010D02*
X026286Y010010D01*
X026286Y010129D02*
X028229Y010129D01*
X028161Y010722D02*
X032332Y010722D01*
X032332Y010840D02*
X028227Y010840D01*
X028235Y010959D02*
X029287Y010959D01*
X029198Y011077D02*
X028194Y011077D01*
X028048Y011196D02*
X029174Y011196D01*
X029199Y011314D02*
X026286Y011314D01*
X026286Y011196D02*
X027825Y011196D01*
X029289Y011433D02*
X026286Y011433D01*
X025769Y011789D02*
X021857Y011789D01*
X021857Y011907D02*
X025769Y011907D01*
X025769Y012026D02*
X021857Y012026D01*
X021857Y012144D02*
X025301Y012144D01*
X025143Y012263D02*
X021857Y012263D01*
X021857Y012381D02*
X025089Y012381D01*
X025080Y012500D02*
X021857Y012500D01*
X021857Y012618D02*
X025110Y012618D01*
X025194Y012737D02*
X021857Y012737D01*
X021857Y012855D02*
X025208Y012855D01*
X025208Y012974D02*
X021857Y012974D01*
X021857Y013093D02*
X025208Y013093D01*
X025208Y013211D02*
X024468Y013211D01*
X024595Y013330D02*
X025208Y013330D01*
X025208Y013448D02*
X024633Y013448D01*
X024726Y013567D02*
X025208Y013567D01*
X025208Y013685D02*
X024842Y013685D01*
X024957Y013804D02*
X025208Y013804D01*
X025208Y013922D02*
X025072Y013922D01*
X024792Y014397D02*
X024772Y014397D01*
X024641Y014515D02*
X024961Y014515D01*
X025125Y014515D02*
X025208Y014515D01*
X025208Y014634D02*
X021711Y014634D01*
X021759Y014515D02*
X024382Y014515D01*
X024251Y014397D02*
X021797Y014397D01*
X021857Y014278D02*
X024214Y014278D01*
X024115Y014159D02*
X021857Y014159D01*
X021857Y014041D02*
X023996Y014041D01*
X023878Y013922D02*
X021857Y013922D01*
X021857Y013804D02*
X023695Y013804D01*
X023530Y013685D02*
X021857Y013685D01*
X021857Y013567D02*
X023485Y013567D01*
X023489Y013448D02*
X021857Y013448D01*
X021857Y013330D02*
X023550Y013330D01*
X024017Y013330D02*
X024073Y013330D01*
X024201Y013211D02*
X021857Y013211D01*
X021418Y013211D02*
X020902Y013211D01*
X020902Y013093D02*
X021418Y013093D01*
X021418Y012974D02*
X020902Y012974D01*
X020902Y012855D02*
X021418Y012855D01*
X021418Y012737D02*
X020902Y012737D01*
X020902Y012618D02*
X021418Y012618D01*
X021418Y012500D02*
X020902Y012500D01*
X020902Y012381D02*
X021418Y012381D01*
X021418Y012263D02*
X020902Y012263D01*
X020902Y012144D02*
X021418Y012144D01*
X021418Y012026D02*
X020902Y012026D01*
X020902Y011907D02*
X020931Y011907D01*
X021392Y011907D02*
X021418Y011907D01*
X021418Y013330D02*
X020902Y013330D01*
X020902Y013448D02*
X021418Y013448D01*
X021418Y013567D02*
X020902Y013567D01*
X020902Y013685D02*
X021418Y013685D01*
X021418Y013804D02*
X020902Y013804D01*
X020902Y013922D02*
X021418Y013922D01*
X021418Y014041D02*
X020902Y014041D01*
X020902Y014159D02*
X021414Y014159D01*
X021224Y014278D02*
X020902Y014278D01*
X020902Y014397D02*
X021165Y014397D01*
X021162Y014515D02*
X020902Y014515D01*
X020902Y014634D02*
X021210Y014634D01*
X021380Y014752D02*
X020961Y014752D01*
X020971Y014871D02*
X025208Y014871D01*
X025208Y014752D02*
X021541Y014752D01*
X019351Y014397D02*
X018904Y014397D01*
X018904Y014515D02*
X019234Y014515D01*
X019165Y014634D02*
X018904Y014634D01*
X018927Y014752D02*
X019154Y014752D01*
X019193Y014871D02*
X019045Y014871D01*
X019036Y015463D02*
X024624Y015463D01*
X024505Y015582D02*
X019062Y015582D01*
X019038Y015701D02*
X024387Y015701D01*
X024268Y015819D02*
X018951Y015819D01*
X018576Y015819D02*
X017889Y015819D01*
X017851Y015938D02*
X024150Y015938D01*
X024031Y016056D02*
X017851Y016056D01*
X017851Y016175D02*
X023987Y016175D01*
X023987Y016293D02*
X017848Y016293D01*
X017729Y016412D02*
X023987Y016412D01*
X023987Y016530D02*
X017611Y016530D01*
X017492Y016649D02*
X023987Y016649D01*
X023987Y016767D02*
X017457Y016767D01*
X017431Y016886D02*
X023987Y016886D01*
X023987Y017004D02*
X017378Y017004D01*
X017437Y017123D02*
X023987Y017123D01*
X023987Y017242D02*
X017437Y017242D01*
X017437Y017346D02*
X017437Y017564D01*
X017426Y017605D01*
X017405Y017642D01*
X017376Y017671D01*
X017339Y017692D01*
X017298Y017703D01*
X017080Y017703D01*
X017080Y017346D01*
X017437Y017346D01*
X017437Y017360D02*
X023987Y017360D01*
X023987Y017479D02*
X017437Y017479D01*
X017429Y017597D02*
X023987Y017597D01*
X023987Y017716D02*
X005105Y017716D01*
X005108Y017714D02*
X005074Y017747D01*
X004965Y017792D01*
X004846Y017792D01*
X004736Y017747D01*
X004653Y017663D01*
X004607Y017553D01*
X004607Y017435D01*
X004653Y017325D01*
X004736Y017241D01*
X004846Y017196D01*
X004965Y017196D01*
X005074Y017241D01*
X005099Y017267D01*
X005099Y016502D01*
X005099Y016321D01*
X005454Y015966D01*
X005582Y015838D01*
X006488Y015838D01*
X006598Y015838D01*
X006717Y015838D01*
X006826Y015883D01*
X006910Y015967D01*
X006955Y016077D01*
X006955Y016179D01*
X006972Y016172D01*
X007019Y016172D01*
X007295Y015897D01*
X007321Y015897D01*
X007355Y015864D01*
X007464Y015818D01*
X007583Y015818D01*
X007692Y015864D01*
X007776Y015947D01*
X007822Y016057D01*
X007822Y016176D01*
X007776Y016285D01*
X007692Y016369D01*
X007583Y016414D01*
X007464Y016414D01*
X007417Y016395D01*
X007329Y016483D01*
X007329Y016530D01*
X016742Y016530D01*
X016780Y016412D02*
X007589Y016412D01*
X007458Y016412D02*
X007400Y016412D01*
X007329Y016530D02*
X007284Y016639D01*
X007200Y016723D01*
X007091Y016769D01*
X006972Y016769D01*
X006862Y016723D01*
X006779Y016639D01*
X006733Y016530D01*
X006733Y016427D01*
X006717Y016434D01*
X006598Y016434D01*
X006488Y016389D01*
X006405Y016305D01*
X006393Y016276D01*
X005764Y016276D01*
X005538Y016502D01*
X005538Y017098D01*
X005558Y017050D01*
X005642Y016966D01*
X005752Y016920D01*
X005870Y016920D01*
X005980Y016966D01*
X006013Y016999D01*
X009939Y016999D01*
X009973Y016966D01*
X010082Y016920D01*
X010116Y016920D01*
X010204Y016832D01*
X010394Y016832D01*
X013552Y016832D01*
X013575Y016808D01*
X013685Y016763D01*
X013803Y016763D01*
X013913Y016808D01*
X013997Y016892D01*
X014042Y017002D01*
X014042Y017120D01*
X013997Y017230D01*
X013913Y017314D01*
X013803Y017359D01*
X013685Y017359D01*
X013575Y017314D01*
X013552Y017290D01*
X010434Y017290D01*
X010394Y017387D01*
X010310Y017471D01*
X010201Y017517D01*
X010082Y017517D01*
X009973Y017471D01*
X009939Y017438D01*
X006013Y017438D01*
X005980Y017471D01*
X005870Y017517D01*
X005752Y017517D01*
X005642Y017471D01*
X005558Y017387D01*
X005538Y017339D01*
X005538Y017506D01*
X005459Y017585D01*
X005331Y017714D01*
X005108Y017714D01*
X005447Y017597D02*
X016713Y017597D01*
X016704Y017479D02*
X010293Y017479D01*
X010406Y017360D02*
X016704Y017360D01*
X016704Y017242D02*
X013985Y017242D01*
X014041Y017123D02*
X016704Y017123D01*
X016763Y017004D02*
X014042Y017004D01*
X013990Y016886D02*
X016710Y016886D01*
X016684Y016767D02*
X013814Y016767D01*
X013674Y016767D02*
X007094Y016767D01*
X006969Y016767D02*
X005538Y016767D01*
X005538Y016649D02*
X006788Y016649D01*
X006733Y016530D02*
X005538Y016530D01*
X005629Y016412D02*
X006544Y016412D01*
X006400Y016293D02*
X005747Y016293D01*
X005482Y015938D02*
X004337Y015938D01*
X004337Y016056D02*
X005364Y016056D01*
X005245Y016175D02*
X004337Y016175D01*
X004337Y016293D02*
X005127Y016293D01*
X005099Y016412D02*
X004337Y016412D01*
X004337Y016530D02*
X005099Y016530D01*
X005099Y016649D02*
X004337Y016649D01*
X004337Y016767D02*
X005099Y016767D01*
X005099Y016886D02*
X004337Y016886D01*
X004337Y017004D02*
X005099Y017004D01*
X005099Y017123D02*
X004401Y017123D01*
X004416Y017242D02*
X004736Y017242D01*
X004638Y017360D02*
X004386Y017360D01*
X004386Y017479D02*
X004607Y017479D01*
X004625Y017597D02*
X004386Y017597D01*
X004386Y017716D02*
X004705Y017716D01*
X004386Y017834D02*
X023987Y017834D01*
X023987Y017953D02*
X004386Y017953D01*
X004386Y018071D02*
X023987Y018071D01*
X023987Y018190D02*
X005386Y018190D01*
X005505Y018308D02*
X005870Y018308D01*
X005873Y018305D02*
X005932Y018262D01*
X005996Y018229D01*
X006065Y018207D01*
X006133Y018196D01*
X006133Y018615D01*
X006213Y018615D01*
X006213Y018196D01*
X006281Y018207D01*
X006350Y018229D01*
X006414Y018262D01*
X006473Y018305D01*
X006524Y018356D01*
X006566Y018414D01*
X006599Y018479D01*
X006622Y018548D01*
X006632Y018616D01*
X006213Y018616D01*
X006213Y018696D01*
X006133Y018696D01*
X006133Y019115D01*
X006065Y019104D01*
X005996Y019082D01*
X005932Y019049D01*
X005873Y019006D01*
X005822Y018955D01*
X005780Y018897D01*
X005747Y018832D01*
X005724Y018763D01*
X005714Y018696D01*
X006133Y018696D01*
X006133Y018616D01*
X005714Y018616D01*
X005724Y018548D01*
X005747Y018479D01*
X005780Y018414D01*
X005822Y018356D01*
X005873Y018305D01*
X005773Y018427D02*
X005623Y018427D01*
X005653Y018546D02*
X005725Y018546D01*
X005653Y018664D02*
X006133Y018664D01*
X006213Y018664D02*
X023987Y018664D01*
X023987Y018546D02*
X006621Y018546D01*
X006573Y018427D02*
X023987Y018427D01*
X023987Y018308D02*
X006476Y018308D01*
X006213Y018308D02*
X006133Y018308D01*
X006133Y018427D02*
X006213Y018427D01*
X006213Y018546D02*
X006133Y018546D01*
X006213Y018696D02*
X006632Y018696D01*
X006622Y018763D01*
X006599Y018832D01*
X006566Y018897D01*
X006524Y018955D01*
X006473Y019006D01*
X006414Y019049D01*
X006350Y019082D01*
X006281Y019104D01*
X006213Y019115D01*
X006213Y018696D01*
X006213Y018783D02*
X006133Y018783D01*
X006133Y018901D02*
X006213Y018901D01*
X006213Y019020D02*
X006133Y019020D01*
X005892Y019020D02*
X005488Y019020D01*
X005606Y018901D02*
X005783Y018901D01*
X005731Y018783D02*
X005653Y018783D01*
X004858Y019020D02*
X004438Y019020D01*
X004452Y019138D02*
X018997Y019138D01*
X019001Y019257D02*
X004455Y019257D01*
X004557Y018901D02*
X004740Y018901D01*
X004723Y018427D02*
X004386Y018427D01*
X004386Y018308D02*
X004841Y018308D01*
X004960Y018190D02*
X004386Y018190D01*
X005074Y017242D02*
X005099Y017242D01*
X005459Y017585D02*
X005459Y017585D01*
X005538Y017479D02*
X005660Y017479D01*
X005547Y017360D02*
X005538Y017360D01*
X005538Y017004D02*
X005603Y017004D01*
X005538Y016886D02*
X010150Y016886D01*
X009991Y017479D02*
X005962Y017479D01*
X006615Y018783D02*
X023987Y018783D01*
X023987Y018901D02*
X019384Y018901D01*
X019206Y018901D02*
X006563Y018901D01*
X006454Y019020D02*
X019042Y019020D01*
X019548Y019020D02*
X023987Y019020D01*
X023987Y019138D02*
X019593Y019138D01*
X019589Y019257D02*
X023987Y019257D01*
X023987Y019375D02*
X019529Y019375D01*
X019524Y019494D02*
X023987Y019494D01*
X023987Y019612D02*
X019430Y019612D01*
X019292Y019731D02*
X023987Y019731D01*
X023899Y019850D02*
X004126Y019850D01*
X004245Y019968D02*
X005882Y019968D01*
X005764Y020087D02*
X004363Y020087D01*
X004377Y020205D02*
X005729Y020205D01*
X005743Y020324D02*
X004377Y020324D01*
X004377Y020442D02*
X005818Y020442D01*
X006173Y019968D02*
X023781Y019968D01*
X024446Y019020D02*
X025240Y019020D01*
X025128Y018901D02*
X024446Y018901D01*
X024446Y018783D02*
X025080Y018783D01*
X025080Y018664D02*
X024446Y018664D01*
X024446Y018546D02*
X025120Y018546D01*
X025139Y018427D02*
X024446Y018427D01*
X024446Y018308D02*
X025139Y018308D01*
X025139Y018190D02*
X024446Y018190D01*
X024446Y018071D02*
X025139Y018071D01*
X025139Y017953D02*
X024446Y017953D01*
X024446Y017834D02*
X025139Y017834D01*
X025139Y017716D02*
X024446Y017716D01*
X024446Y017597D02*
X025139Y017597D01*
X025139Y017479D02*
X024446Y017479D01*
X024446Y017360D02*
X025139Y017360D01*
X025139Y017242D02*
X024446Y017242D01*
X024446Y017123D02*
X025139Y017123D01*
X025139Y017004D02*
X024446Y017004D01*
X024446Y016886D02*
X025139Y016886D01*
X025139Y016767D02*
X024446Y016767D01*
X024446Y016649D02*
X025139Y016649D01*
X025151Y016530D02*
X024446Y016530D01*
X024446Y016412D02*
X025224Y016412D01*
X025342Y016293D02*
X024446Y016293D01*
X024561Y016175D02*
X025461Y016175D01*
X025579Y016056D02*
X024679Y016056D01*
X024798Y015938D02*
X025698Y015938D01*
X025816Y015819D02*
X024916Y015819D01*
X025035Y015701D02*
X025935Y015701D01*
X026053Y015582D02*
X025153Y015582D01*
X025272Y015463D02*
X025296Y015463D01*
X025538Y015463D02*
X026172Y015463D01*
X026288Y015345D02*
X025676Y015345D01*
X025715Y015226D02*
X026288Y015226D01*
X026220Y015108D02*
X025705Y015108D01*
X025666Y014989D02*
X026101Y014989D01*
X025983Y014871D02*
X025666Y014871D01*
X025666Y014752D02*
X025864Y014752D01*
X025782Y014634D02*
X025666Y014634D01*
X025666Y014515D02*
X025769Y014515D01*
X025769Y014397D02*
X025666Y014397D01*
X025666Y014278D02*
X025769Y014278D01*
X025769Y014159D02*
X025666Y014159D01*
X025666Y014041D02*
X025769Y014041D01*
X025769Y013922D02*
X025666Y013922D01*
X025666Y013804D02*
X025769Y013804D01*
X025769Y013685D02*
X025666Y013685D01*
X025666Y013567D02*
X025769Y013567D01*
X025769Y013448D02*
X025666Y013448D01*
X025666Y013330D02*
X025769Y013330D01*
X025769Y013211D02*
X025666Y013211D01*
X025666Y013093D02*
X025769Y013093D01*
X025769Y012974D02*
X025666Y012974D01*
X025666Y012855D02*
X025769Y012855D01*
X025769Y012737D02*
X025679Y012737D01*
X025764Y012618D02*
X025769Y012618D01*
X025769Y012263D02*
X025730Y012263D01*
X025769Y012144D02*
X025573Y012144D01*
X024268Y011077D02*
X024067Y011077D01*
X024190Y010959D02*
X023911Y010959D01*
X023825Y010840D02*
X024174Y010840D01*
X024207Y010722D02*
X024009Y010722D01*
X024085Y010603D02*
X024243Y010603D01*
X024243Y010485D02*
X024101Y010485D01*
X026286Y008232D02*
X028155Y008232D01*
X028436Y008706D02*
X028485Y008706D01*
X030482Y009773D02*
X031284Y009773D01*
X031549Y009418D02*
X032855Y009418D01*
X032855Y009536D02*
X031667Y009536D01*
X031778Y009655D02*
X032855Y009655D01*
X032855Y009773D02*
X032792Y009773D01*
X032855Y009299D02*
X031430Y009299D01*
X031778Y009773D02*
X032310Y009773D01*
X032191Y009892D02*
X031911Y009892D01*
X031988Y010010D02*
X032072Y010010D01*
X032071Y010129D02*
X032031Y010129D01*
X032031Y010248D02*
X032071Y010248D01*
X032071Y010366D02*
X032006Y010366D01*
X031956Y010485D02*
X032146Y010485D01*
X032265Y010603D02*
X031837Y010603D01*
X032332Y010959D02*
X029658Y010959D01*
X030631Y012263D02*
X032304Y012263D01*
X032304Y012381D02*
X030743Y012381D01*
X030855Y012500D02*
X032304Y012500D01*
X032304Y012618D02*
X030970Y012618D01*
X030971Y012737D02*
X032304Y012737D01*
X032304Y012855D02*
X030971Y012855D01*
X030971Y012974D02*
X032304Y012974D01*
X032304Y013093D02*
X030971Y013093D01*
X030971Y013211D02*
X032304Y013211D01*
X032304Y013330D02*
X030971Y013330D01*
X030971Y013448D02*
X032304Y013448D01*
X032304Y013567D02*
X031301Y013567D01*
X031623Y013685D02*
X032304Y013685D01*
X032304Y013804D02*
X031742Y013804D01*
X031860Y013922D02*
X032304Y013922D01*
X032304Y014041D02*
X032090Y014041D01*
X032172Y014159D02*
X032304Y014159D01*
X032304Y014278D02*
X032192Y014278D01*
X032162Y014397D02*
X032304Y014397D01*
X032304Y014515D02*
X032066Y014515D01*
X032304Y014634D02*
X031618Y014634D01*
X031721Y014515D02*
X031504Y014515D01*
X031733Y014752D02*
X032304Y014752D01*
X032304Y014871D02*
X031847Y014871D01*
X031963Y014989D02*
X032304Y014989D01*
X032304Y015108D02*
X031975Y015108D01*
X031975Y015226D02*
X032304Y015226D01*
X032304Y015345D02*
X031975Y015345D01*
X031975Y015463D02*
X032304Y015463D01*
X032304Y015582D02*
X031975Y015582D01*
X031975Y015701D02*
X032304Y015701D01*
X032304Y015819D02*
X031975Y015819D01*
X031975Y015938D02*
X032304Y015938D01*
X032304Y016056D02*
X031975Y016056D01*
X031975Y016175D02*
X032304Y016175D01*
X032304Y016293D02*
X031975Y016293D01*
X031975Y016412D02*
X032304Y016412D01*
X032304Y016530D02*
X031975Y016530D01*
X031975Y016649D02*
X032304Y016649D01*
X032304Y016767D02*
X031975Y016767D01*
X031975Y016886D02*
X032304Y016886D01*
X032304Y017004D02*
X031975Y017004D01*
X031975Y017123D02*
X032304Y017123D01*
X032304Y017242D02*
X031975Y017242D01*
X031975Y017360D02*
X032304Y017360D01*
X032304Y017479D02*
X031975Y017479D01*
X031975Y017597D02*
X032304Y017597D01*
X032304Y017716D02*
X031975Y017716D01*
X031975Y017834D02*
X032304Y017834D01*
X032304Y017953D02*
X031975Y017953D01*
X031975Y018071D02*
X032304Y018071D01*
X032304Y018190D02*
X031975Y018190D01*
X031975Y018308D02*
X032304Y018308D01*
X032304Y018427D02*
X031975Y018427D01*
X031975Y018546D02*
X032304Y018546D01*
X032304Y018664D02*
X031975Y018664D01*
X031975Y018783D02*
X032304Y018783D01*
X032304Y018901D02*
X031975Y018901D01*
X031975Y019020D02*
X032304Y019020D01*
X032304Y019138D02*
X031975Y019138D01*
X031957Y019257D02*
X032304Y019257D01*
X032304Y019375D02*
X031841Y019375D01*
X031728Y019494D02*
X032304Y019494D01*
X032205Y019612D02*
X031615Y019612D01*
X031502Y019731D02*
X032086Y019731D01*
X031968Y019850D02*
X029691Y019850D01*
X029639Y019968D02*
X031849Y019968D01*
X031730Y020087D02*
X029565Y020087D01*
X029143Y020087D02*
X026816Y020087D01*
X026769Y021486D02*
X026638Y021541D01*
X026590Y021589D01*
X026543Y021541D01*
X026411Y021486D01*
X026269Y021486D01*
X026138Y021541D01*
X026090Y021589D01*
X026043Y021541D01*
X025911Y021486D01*
X025769Y021486D01*
X025638Y021541D01*
X025590Y021589D01*
X025543Y021541D01*
X025411Y021486D01*
X025269Y021486D01*
X025138Y021541D01*
X025090Y021589D01*
X025043Y021541D01*
X024911Y021486D01*
X024769Y021486D01*
X024638Y021541D01*
X024590Y021589D01*
X024543Y021541D01*
X024411Y021486D01*
X024269Y021486D01*
X024138Y021541D01*
X024090Y021589D01*
X024043Y021541D01*
X023911Y021486D01*
X023769Y021486D01*
X023638Y021541D01*
X023590Y021589D01*
X023543Y021541D01*
X023411Y021486D01*
X023269Y021486D01*
X023138Y021541D01*
X023090Y021589D01*
X023043Y021541D01*
X022911Y021486D01*
X022769Y021486D01*
X022638Y021541D01*
X022590Y021589D01*
X022543Y021541D01*
X022411Y021486D01*
X022269Y021486D01*
X022138Y021541D01*
X022090Y021589D01*
X022043Y021541D01*
X021911Y021486D01*
X021769Y021486D01*
X021638Y021541D01*
X021590Y021589D01*
X021543Y021541D01*
X021411Y021486D01*
X021269Y021486D01*
X021138Y021541D01*
X021090Y021589D01*
X021043Y021541D01*
X020911Y021486D01*
X020769Y021486D01*
X020638Y021541D01*
X020590Y021589D01*
X020543Y021541D01*
X020411Y021486D01*
X020269Y021486D01*
X020138Y021541D01*
X020090Y021589D01*
X020043Y021541D01*
X019911Y021486D01*
X019769Y021486D01*
X019638Y021541D01*
X019590Y021589D01*
X019543Y021541D01*
X019411Y021486D01*
X019269Y021486D01*
X019138Y021541D01*
X019090Y021589D01*
X019043Y021541D01*
X018911Y021486D01*
X018769Y021486D01*
X018638Y021541D01*
X018590Y021589D01*
X018543Y021541D01*
X018411Y021486D01*
X018269Y021486D01*
X018138Y021541D01*
X018090Y021589D01*
X018043Y021541D01*
X017911Y021486D01*
X017769Y021486D01*
X017638Y021541D01*
X017590Y021589D01*
X017543Y021541D01*
X017411Y021486D01*
X017269Y021486D01*
X017138Y021541D01*
X017090Y021589D01*
X017043Y021541D01*
X016911Y021486D01*
X016769Y021486D01*
X016638Y021541D01*
X016590Y021589D01*
X016543Y021541D01*
X016411Y021486D01*
X016269Y021486D01*
X016138Y021541D01*
X016090Y021589D01*
X016043Y021541D01*
X015911Y021486D01*
X015769Y021486D01*
X015638Y021541D01*
X015590Y021589D01*
X015543Y021541D01*
X015411Y021486D01*
X015269Y021486D01*
X015138Y021541D01*
X015090Y021589D01*
X015043Y021541D01*
X014911Y021486D01*
X014769Y021486D01*
X014638Y021541D01*
X014590Y021589D01*
X014543Y021541D01*
X014411Y021486D01*
X014269Y021486D01*
X014138Y021541D01*
X014090Y021589D01*
X014043Y021541D01*
X013911Y021486D01*
X013769Y021486D01*
X013638Y021541D01*
X013590Y021589D01*
X013543Y021541D01*
X013411Y021486D01*
X013269Y021486D01*
X013138Y021541D01*
X013090Y021589D01*
X013043Y021541D01*
X012911Y021486D01*
X012769Y021486D01*
X012638Y021541D01*
X012590Y021589D01*
X012543Y021541D01*
X012411Y021486D01*
X012269Y021486D01*
X012138Y021541D01*
X012090Y021589D01*
X012043Y021541D01*
X011911Y021486D01*
X011769Y021486D01*
X011638Y021541D01*
X011590Y021589D01*
X011543Y021541D01*
X011411Y021486D01*
X011269Y021486D01*
X011138Y021541D01*
X011090Y021589D01*
X011043Y021541D01*
X010911Y021486D01*
X010769Y021486D01*
X010638Y021541D01*
X010590Y021589D01*
X010543Y021541D01*
X010411Y021486D01*
X010269Y021486D01*
X010138Y021541D01*
X010090Y021589D01*
X010043Y021541D01*
X009911Y021486D01*
X009769Y021486D01*
X009638Y021541D01*
X009590Y021589D01*
X009543Y021541D01*
X009411Y021486D01*
X009269Y021486D01*
X009138Y021541D01*
X009090Y021589D01*
X009043Y021541D01*
X008911Y021486D01*
X008769Y021486D01*
X008638Y021541D01*
X008590Y021589D01*
X008543Y021541D01*
X008411Y021486D01*
X008269Y021486D01*
X008138Y021541D01*
X008090Y021589D01*
X008043Y021541D01*
X007911Y021486D01*
X007769Y021486D01*
X007638Y021541D01*
X007590Y021589D01*
X007543Y021541D01*
X007411Y021486D01*
X007269Y021486D01*
X007138Y021541D01*
X007090Y021589D01*
X007043Y021541D01*
X006911Y021486D01*
X006769Y021486D01*
X006638Y021541D01*
X006590Y021589D01*
X006543Y021541D01*
X006411Y021486D01*
X006269Y021486D01*
X006138Y021541D01*
X006090Y021589D01*
X006043Y021541D01*
X005911Y021486D01*
X005769Y021486D01*
X005638Y021541D01*
X005576Y021603D01*
X005555Y021582D01*
X005500Y021545D01*
X005439Y021519D01*
X005374Y021506D01*
X005341Y021506D01*
X005341Y021843D01*
X005340Y021843D01*
X005340Y021506D01*
X005307Y021506D01*
X005242Y021519D01*
X005181Y021545D01*
X005125Y021582D01*
X005090Y021617D01*
X005055Y021582D01*
X005000Y021545D01*
X004939Y021519D01*
X004874Y021506D01*
X004841Y021506D01*
X004841Y021843D01*
X004841Y021844D01*
X005003Y021844D01*
X005340Y021844D01*
X005340Y022181D01*
X005307Y022181D01*
X005242Y022168D01*
X005181Y022142D01*
X005125Y022105D01*
X005090Y022070D01*
X005055Y022105D01*
X005000Y022142D01*
X004939Y022168D01*
X004874Y022181D01*
X004841Y022181D01*
X004841Y021844D01*
X004840Y021844D01*
X004840Y022181D01*
X004807Y022181D01*
X004742Y022168D01*
X004681Y022142D01*
X004625Y022105D01*
X004579Y022059D01*
X004542Y022003D01*
X004516Y021942D01*
X004503Y021877D01*
X004503Y021844D01*
X004840Y021844D01*
X004840Y021843D01*
X004841Y021843D01*
X005003Y021843D01*
X005340Y021843D01*
X005340Y021844D01*
X005341Y021844D01*
X005341Y022181D01*
X005374Y022181D01*
X005439Y022168D01*
X005500Y022142D01*
X005555Y022105D01*
X005576Y022084D01*
X005638Y022146D01*
X005769Y022201D01*
X005911Y022201D01*
X006043Y022146D01*
X006090Y022099D01*
X006138Y022146D01*
X006269Y022201D01*
X006411Y022201D01*
X006543Y022146D01*
X006590Y022099D01*
X006638Y022146D01*
X006769Y022201D01*
X006911Y022201D01*
X007043Y022146D01*
X007090Y022099D01*
X007138Y022146D01*
X007269Y022201D01*
X007411Y022201D01*
X007543Y022146D01*
X007590Y022099D01*
X007638Y022146D01*
X007769Y022201D01*
X007911Y022201D01*
X008043Y022146D01*
X008090Y022099D01*
X008138Y022146D01*
X008269Y022201D01*
X008411Y022201D01*
X008543Y022146D01*
X008590Y022099D01*
X008638Y022146D01*
X008769Y022201D01*
X008911Y022201D01*
X009043Y022146D01*
X009090Y022099D01*
X009138Y022146D01*
X009269Y022201D01*
X009411Y022201D01*
X009543Y022146D01*
X009590Y022099D01*
X009638Y022146D01*
X009769Y022201D01*
X009911Y022201D01*
X010043Y022146D01*
X010090Y022099D01*
X010138Y022146D01*
X010269Y022201D01*
X010411Y022201D01*
X010543Y022146D01*
X010590Y022099D01*
X010638Y022146D01*
X010769Y022201D01*
X010911Y022201D01*
X011043Y022146D01*
X011090Y022099D01*
X011138Y022146D01*
X011269Y022201D01*
X011411Y022201D01*
X011543Y022146D01*
X011590Y022099D01*
X011638Y022146D01*
X011769Y022201D01*
X011911Y022201D01*
X012043Y022146D01*
X012090Y022099D01*
X012138Y022146D01*
X012269Y022201D01*
X012411Y022201D01*
X012543Y022146D01*
X012590Y022099D01*
X012638Y022146D01*
X012769Y022201D01*
X012911Y022201D01*
X013043Y022146D01*
X013090Y022099D01*
X013138Y022146D01*
X013269Y022201D01*
X013411Y022201D01*
X013543Y022146D01*
X013590Y022099D01*
X013638Y022146D01*
X013769Y022201D01*
X013911Y022201D01*
X014043Y022146D01*
X014090Y022099D01*
X014138Y022146D01*
X014269Y022201D01*
X014411Y022201D01*
X014543Y022146D01*
X014590Y022099D01*
X014638Y022146D01*
X014769Y022201D01*
X014911Y022201D01*
X015043Y022146D01*
X015090Y022099D01*
X015138Y022146D01*
X015269Y022201D01*
X015411Y022201D01*
X015543Y022146D01*
X015590Y022099D01*
X015638Y022146D01*
X015769Y022201D01*
X015911Y022201D01*
X016043Y022146D01*
X016090Y022099D01*
X016138Y022146D01*
X016269Y022201D01*
X016411Y022201D01*
X016543Y022146D01*
X016590Y022099D01*
X016638Y022146D01*
X016769Y022201D01*
X016911Y022201D01*
X017043Y022146D01*
X017090Y022099D01*
X017138Y022146D01*
X017269Y022201D01*
X017411Y022201D01*
X017543Y022146D01*
X017590Y022099D01*
X017638Y022146D01*
X017769Y022201D01*
X017911Y022201D01*
X018043Y022146D01*
X018090Y022099D01*
X018138Y022146D01*
X018269Y022201D01*
X018411Y022201D01*
X018543Y022146D01*
X018590Y022099D01*
X018638Y022146D01*
X018769Y022201D01*
X018911Y022201D01*
X019043Y022146D01*
X019090Y022099D01*
X019138Y022146D01*
X019269Y022201D01*
X019411Y022201D01*
X019543Y022146D01*
X019590Y022099D01*
X019638Y022146D01*
X019769Y022201D01*
X019911Y022201D01*
X020043Y022146D01*
X020090Y022099D01*
X020138Y022146D01*
X020269Y022201D01*
X020411Y022201D01*
X020543Y022146D01*
X020590Y022099D01*
X020638Y022146D01*
X020769Y022201D01*
X020911Y022201D01*
X021043Y022146D01*
X021090Y022099D01*
X021138Y022146D01*
X021269Y022201D01*
X021411Y022201D01*
X021543Y022146D01*
X021590Y022099D01*
X021638Y022146D01*
X021769Y022201D01*
X021911Y022201D01*
X022043Y022146D01*
X022090Y022099D01*
X022138Y022146D01*
X022269Y022201D01*
X022411Y022201D01*
X022543Y022146D01*
X022590Y022099D01*
X022638Y022146D01*
X022769Y022201D01*
X022911Y022201D01*
X023043Y022146D01*
X023090Y022099D01*
X023138Y022146D01*
X023269Y022201D01*
X023411Y022201D01*
X023543Y022146D01*
X023590Y022099D01*
X023638Y022146D01*
X023769Y022201D01*
X023911Y022201D01*
X024043Y022146D01*
X024090Y022099D01*
X024138Y022146D01*
X024269Y022201D01*
X024411Y022201D01*
X024543Y022146D01*
X024590Y022099D01*
X024638Y022146D01*
X024769Y022201D01*
X024911Y022201D01*
X025043Y022146D01*
X025090Y022099D01*
X025138Y022146D01*
X025269Y022201D01*
X025411Y022201D01*
X025543Y022146D01*
X025590Y022099D01*
X025638Y022146D01*
X025769Y022201D01*
X025911Y022201D01*
X026043Y022146D01*
X026090Y022099D01*
X026138Y022146D01*
X026269Y022201D01*
X026411Y022201D01*
X026543Y022146D01*
X026590Y022099D01*
X026638Y022146D01*
X026769Y022201D01*
X026911Y022201D01*
X027043Y022146D01*
X027090Y022099D01*
X027138Y022146D01*
X027269Y022201D01*
X027411Y022201D01*
X027543Y022146D01*
X027590Y022099D01*
X027638Y022146D01*
X027769Y022201D01*
X027911Y022201D01*
X028043Y022146D01*
X028090Y022099D01*
X028138Y022146D01*
X028269Y022201D01*
X028411Y022201D01*
X028543Y022146D01*
X028590Y022099D01*
X028638Y022146D01*
X028769Y022201D01*
X028911Y022201D01*
X029043Y022146D01*
X029090Y022099D01*
X029138Y022146D01*
X029269Y022201D01*
X029411Y022201D01*
X029543Y022146D01*
X029643Y022046D01*
X029698Y021915D01*
X029698Y021773D01*
X029643Y021641D01*
X029543Y021541D01*
X029411Y021486D01*
X029269Y021486D01*
X029138Y021541D01*
X029090Y021589D01*
X029043Y021541D01*
X028911Y021486D01*
X028769Y021486D01*
X028638Y021541D01*
X028590Y021589D01*
X028543Y021541D01*
X028411Y021486D01*
X028269Y021486D01*
X028138Y021541D01*
X028090Y021589D01*
X028043Y021541D01*
X027911Y021486D01*
X027769Y021486D01*
X027638Y021541D01*
X027590Y021589D01*
X027543Y021541D01*
X027411Y021486D01*
X027269Y021486D01*
X027138Y021541D01*
X027090Y021589D01*
X027043Y021541D01*
X026911Y021486D01*
X026769Y021486D01*
X026714Y021509D02*
X026466Y021509D01*
X026214Y021509D02*
X025966Y021509D01*
X025714Y021509D02*
X025466Y021509D01*
X025214Y021509D02*
X024966Y021509D01*
X024714Y021509D02*
X024466Y021509D01*
X024214Y021509D02*
X023966Y021509D01*
X023714Y021509D02*
X023466Y021509D01*
X023214Y021509D02*
X022966Y021509D01*
X022714Y021509D02*
X022466Y021509D01*
X022214Y021509D02*
X021966Y021509D01*
X021714Y021509D02*
X021466Y021509D01*
X021214Y021509D02*
X020966Y021509D01*
X020714Y021509D02*
X020466Y021509D01*
X020214Y021509D02*
X019966Y021509D01*
X019714Y021509D02*
X019466Y021509D01*
X019214Y021509D02*
X018966Y021509D01*
X018714Y021509D02*
X018466Y021509D01*
X018214Y021509D02*
X017966Y021509D01*
X017714Y021509D02*
X017466Y021509D01*
X017214Y021509D02*
X016966Y021509D01*
X016714Y021509D02*
X016466Y021509D01*
X016214Y021509D02*
X015966Y021509D01*
X015714Y021509D02*
X015466Y021509D01*
X015214Y021509D02*
X014966Y021509D01*
X014714Y021509D02*
X014466Y021509D01*
X014214Y021509D02*
X013966Y021509D01*
X013714Y021509D02*
X013466Y021509D01*
X013214Y021509D02*
X012966Y021509D01*
X012714Y021509D02*
X012466Y021509D01*
X012214Y021509D02*
X011966Y021509D01*
X011714Y021509D02*
X011466Y021509D01*
X011214Y021509D02*
X010966Y021509D01*
X010714Y021509D02*
X010466Y021509D01*
X010214Y021509D02*
X009966Y021509D01*
X009714Y021509D02*
X009466Y021509D01*
X009214Y021509D02*
X008966Y021509D01*
X008714Y021509D02*
X008466Y021509D01*
X008214Y021509D02*
X007966Y021509D01*
X007714Y021509D02*
X007466Y021509D01*
X007214Y021509D02*
X006966Y021509D01*
X006714Y021509D02*
X006466Y021509D01*
X006214Y021509D02*
X005966Y021509D01*
X005714Y021509D02*
X005387Y021509D01*
X005341Y021509D02*
X005340Y021509D01*
X005293Y021509D02*
X004887Y021509D01*
X004841Y021509D02*
X004840Y021509D01*
X004840Y021506D02*
X004840Y021843D01*
X004503Y021843D01*
X004503Y021810D01*
X004516Y021745D01*
X004542Y021684D01*
X004579Y021629D01*
X004625Y021582D01*
X004681Y021545D01*
X004742Y021519D01*
X004807Y021506D01*
X004840Y021506D01*
X004793Y021509D02*
X004377Y021509D01*
X004377Y021391D02*
X029679Y021391D01*
X029674Y021380D02*
X029674Y021168D01*
X029755Y020972D01*
X029905Y020822D01*
X030101Y020741D01*
X030312Y020741D01*
X030508Y020822D01*
X030658Y020972D01*
X030739Y021168D01*
X030739Y021380D01*
X030658Y021575D01*
X030508Y021725D01*
X030312Y021806D01*
X030101Y021806D01*
X029905Y021725D01*
X029755Y021575D01*
X029674Y021380D01*
X029674Y021272D02*
X004377Y021272D01*
X004377Y021154D02*
X029680Y021154D01*
X029729Y021035D02*
X004377Y021035D01*
X004377Y020916D02*
X029811Y020916D01*
X029964Y020798D02*
X004377Y020798D01*
X003780Y020798D02*
X001070Y020798D01*
X001070Y020916D02*
X003780Y020916D01*
X003780Y021035D02*
X001070Y021035D01*
X001070Y021154D02*
X003780Y021154D01*
X003780Y021272D02*
X001070Y021272D01*
X001070Y021391D02*
X003780Y021391D01*
X003780Y021509D02*
X001070Y021509D01*
X001070Y021628D02*
X003780Y021628D01*
X003780Y021746D02*
X001070Y021746D01*
X001070Y021865D02*
X003780Y021865D01*
X003780Y021983D02*
X001070Y021983D01*
X001070Y022102D02*
X003780Y022102D01*
X003780Y022220D02*
X001070Y022220D01*
X001070Y022339D02*
X003780Y022339D01*
X003780Y022457D02*
X001070Y022457D01*
X001070Y022576D02*
X003780Y022576D01*
X003780Y022695D02*
X001070Y022695D01*
X001070Y022813D02*
X003780Y022813D01*
X003780Y022932D02*
X001070Y022932D01*
X001070Y023050D02*
X003813Y023050D01*
X003931Y023169D02*
X001070Y023169D01*
X001070Y023287D02*
X004050Y023287D01*
X004168Y023406D02*
X001070Y023406D01*
X001070Y023524D02*
X004214Y023524D01*
X004214Y023643D02*
X001070Y023643D01*
X001070Y023761D02*
X004214Y023761D01*
X004214Y023880D02*
X001070Y023880D01*
X001070Y023999D02*
X004214Y023999D01*
X004214Y024117D02*
X001130Y024117D01*
X001248Y024236D02*
X004214Y024236D01*
X004214Y024354D02*
X004182Y024354D01*
X004810Y024473D02*
X004812Y024473D01*
X004810Y024591D02*
X004972Y024591D01*
X005021Y024710D02*
X004810Y024710D01*
X004810Y024828D02*
X004825Y024828D01*
X005121Y024591D02*
X005201Y024591D01*
X005201Y024473D02*
X005121Y024473D01*
X005121Y024354D02*
X005201Y024354D01*
X005201Y024236D02*
X005121Y024236D01*
X005121Y024117D02*
X005201Y024117D01*
X005201Y023999D02*
X005121Y023999D01*
X005121Y023880D02*
X005201Y023880D01*
X005201Y023761D02*
X005121Y023761D01*
X004952Y023761D02*
X004810Y023761D01*
X004810Y023643D02*
X006041Y023643D01*
X006282Y023643D02*
X007041Y023643D01*
X007282Y023643D02*
X008041Y023643D01*
X008282Y023643D02*
X009041Y023643D01*
X009282Y023643D02*
X010041Y023643D01*
X010282Y023643D02*
X011041Y023643D01*
X011282Y023643D02*
X012041Y023643D01*
X012282Y023643D02*
X013041Y023643D01*
X013282Y023643D02*
X014041Y023643D01*
X014282Y023643D02*
X015041Y023643D01*
X015282Y023643D02*
X016041Y023643D01*
X016282Y023643D02*
X017041Y023643D01*
X017282Y023643D02*
X018041Y023643D01*
X018282Y023643D02*
X019041Y023643D01*
X019282Y023643D02*
X020041Y023643D01*
X020282Y023643D02*
X021041Y023643D01*
X021282Y023643D02*
X022041Y023643D01*
X022282Y023643D02*
X026615Y023643D01*
X026615Y023761D02*
X022507Y023761D01*
X022619Y023880D02*
X026615Y023880D01*
X026710Y023999D02*
X022668Y023999D01*
X022696Y024117D02*
X026828Y024117D01*
X026947Y024236D02*
X022696Y024236D01*
X022664Y024354D02*
X027065Y024354D01*
X026615Y023524D02*
X004810Y023524D01*
X004810Y023406D02*
X026615Y023406D01*
X026615Y023287D02*
X004810Y023287D01*
X004768Y023169D02*
X026615Y023169D01*
X026615Y023050D02*
X004650Y023050D01*
X004742Y022918D02*
X004681Y022892D01*
X004625Y022855D01*
X004579Y022809D01*
X004542Y022753D01*
X004516Y022692D01*
X004503Y022627D01*
X004503Y022594D01*
X004840Y022594D01*
X004840Y022931D01*
X004807Y022931D01*
X004742Y022918D01*
X004840Y022813D02*
X004841Y022813D01*
X004840Y022695D02*
X004841Y022695D01*
X004841Y022594D02*
X004840Y022594D01*
X004840Y022593D01*
X004841Y022593D01*
X004841Y022594D01*
X004841Y022593D02*
X005003Y022593D01*
X005340Y022593D01*
X005340Y022256D01*
X005307Y022256D01*
X005242Y022269D01*
X005181Y022295D01*
X005125Y022332D01*
X005090Y022367D01*
X005055Y022332D01*
X005000Y022295D01*
X004939Y022269D01*
X004874Y022256D01*
X004841Y022256D01*
X004841Y022593D01*
X004840Y022593D02*
X004840Y022256D01*
X004807Y022256D01*
X004742Y022269D01*
X004681Y022295D01*
X004625Y022332D01*
X004579Y022379D01*
X004542Y022434D01*
X004516Y022495D01*
X004503Y022560D01*
X004503Y022593D01*
X004840Y022593D01*
X004840Y022576D02*
X004841Y022576D01*
X004840Y022457D02*
X004841Y022457D01*
X004840Y022339D02*
X004841Y022339D01*
X005063Y022339D02*
X005118Y022339D01*
X005340Y022339D02*
X005341Y022339D01*
X005340Y022457D02*
X005341Y022457D01*
X005340Y022576D02*
X005341Y022576D01*
X005340Y022695D02*
X005341Y022695D01*
X005340Y022813D02*
X005341Y022813D01*
X005723Y022932D02*
X004531Y022932D01*
X004583Y022813D02*
X004412Y022813D01*
X004377Y022695D02*
X004517Y022695D01*
X004503Y022576D02*
X004377Y022576D01*
X004377Y022457D02*
X004532Y022457D01*
X004618Y022339D02*
X004377Y022339D01*
X004377Y022220D02*
X033308Y022220D01*
X033308Y022102D02*
X029587Y022102D01*
X029669Y021983D02*
X033308Y021983D01*
X033308Y021865D02*
X029698Y021865D01*
X029687Y021746D02*
X029956Y021746D01*
X029808Y021628D02*
X029630Y021628D01*
X029728Y021509D02*
X029466Y021509D01*
X029214Y021509D02*
X028966Y021509D01*
X028714Y021509D02*
X028466Y021509D01*
X028214Y021509D02*
X027966Y021509D01*
X027714Y021509D02*
X027466Y021509D01*
X027214Y021509D02*
X026966Y021509D01*
X027087Y022102D02*
X027094Y022102D01*
X027587Y022102D02*
X027594Y022102D01*
X028087Y022102D02*
X028094Y022102D01*
X028587Y022102D02*
X028594Y022102D01*
X029087Y022102D02*
X029094Y022102D01*
X029591Y022339D02*
X033308Y022339D01*
X033308Y022457D02*
X029671Y022457D01*
X029698Y022576D02*
X033308Y022576D01*
X033308Y022695D02*
X029685Y022695D01*
X029626Y022813D02*
X033308Y022813D01*
X033308Y022932D02*
X029457Y022932D01*
X029223Y022932D02*
X029062Y022932D01*
X029062Y023050D02*
X033308Y023050D01*
X033308Y023169D02*
X029062Y023169D01*
X029062Y023287D02*
X033308Y023287D01*
X033308Y023406D02*
X029062Y023406D01*
X029062Y023524D02*
X033308Y023524D01*
X033631Y024354D02*
X033723Y024354D01*
X033723Y024473D02*
X022615Y024473D01*
X022497Y024591D02*
X033723Y024591D01*
X033723Y024710D02*
X022443Y024710D01*
X022574Y024828D02*
X033723Y024828D01*
X033723Y024947D02*
X022647Y024947D01*
X022696Y025065D02*
X033723Y025065D01*
X033723Y025184D02*
X022696Y025184D01*
X022685Y025303D02*
X033723Y025303D01*
X033723Y025421D02*
X022636Y025421D01*
X022549Y025540D02*
X032366Y025540D01*
X032443Y025463D02*
X032840Y025463D01*
X033122Y025744D01*
X033122Y026142D01*
X032840Y026423D01*
X032443Y026423D01*
X032162Y026142D01*
X032162Y025744D01*
X032443Y025463D01*
X032248Y025658D02*
X022382Y025658D01*
X022522Y025777D02*
X032162Y025777D01*
X032162Y025895D02*
X022625Y025895D01*
X022674Y026014D02*
X032162Y026014D01*
X032162Y026132D02*
X022696Y026132D01*
X022696Y026251D02*
X032271Y026251D01*
X032389Y026369D02*
X022658Y026369D01*
X022600Y026488D02*
X032486Y026488D01*
X032546Y026463D02*
X032370Y026536D01*
X032235Y026671D01*
X032162Y026847D01*
X032162Y027038D01*
X032235Y027215D01*
X032370Y027350D01*
X032546Y027423D01*
X032737Y027423D01*
X032913Y027350D01*
X033048Y027215D01*
X033122Y027038D01*
X033122Y026847D01*
X033048Y026671D01*
X032913Y026536D01*
X032737Y026463D01*
X032546Y026463D01*
X032797Y026488D02*
X033723Y026488D01*
X033723Y026606D02*
X032984Y026606D01*
X033071Y026725D02*
X033723Y026725D01*
X033723Y026844D02*
X033120Y026844D01*
X033122Y026962D02*
X033723Y026962D01*
X033723Y027081D02*
X033104Y027081D01*
X033055Y027199D02*
X033723Y027199D01*
X033723Y027318D02*
X032946Y027318D01*
X032818Y027517D02*
X032883Y027550D01*
X032941Y027592D01*
X032992Y027643D01*
X033035Y027702D01*
X033068Y027766D01*
X033090Y027835D01*
X033101Y027903D01*
X032682Y027903D01*
X032682Y027983D01*
X033101Y027983D01*
X033090Y028051D01*
X033068Y028120D01*
X033035Y028184D01*
X032992Y028243D01*
X032941Y028294D01*
X032883Y028336D01*
X032818Y028369D01*
X032749Y028392D01*
X032682Y028402D01*
X032682Y027983D01*
X032601Y027983D01*
X032601Y027903D01*
X032182Y027903D01*
X032193Y027835D01*
X032215Y027766D01*
X032248Y027702D01*
X032291Y027643D01*
X032342Y027592D01*
X032400Y027550D01*
X032465Y027517D01*
X032534Y027494D01*
X032601Y027484D01*
X032601Y027903D01*
X032682Y027903D01*
X032682Y027484D01*
X032749Y027494D01*
X032818Y027517D01*
X032890Y027555D02*
X033723Y027555D01*
X033723Y027673D02*
X033014Y027673D01*
X033076Y027792D02*
X033723Y027792D01*
X033723Y027910D02*
X032682Y027910D01*
X032601Y027910D02*
X022631Y027910D01*
X022681Y028029D02*
X032189Y028029D01*
X032193Y028051D02*
X032182Y027983D01*
X032601Y027983D01*
X032601Y028402D01*
X032534Y028392D01*
X032465Y028369D01*
X032400Y028336D01*
X032342Y028294D01*
X032291Y028243D01*
X032248Y028184D01*
X032215Y028120D01*
X032193Y028051D01*
X032230Y028148D02*
X022696Y028148D01*
X022696Y028266D02*
X032314Y028266D01*
X032512Y028385D02*
X022651Y028385D01*
X022585Y028503D02*
X033723Y028503D01*
X033723Y028385D02*
X032771Y028385D01*
X032682Y028385D02*
X032601Y028385D01*
X032601Y028266D02*
X032682Y028266D01*
X032682Y028148D02*
X032601Y028148D01*
X032601Y028029D02*
X032682Y028029D01*
X032682Y027792D02*
X032601Y027792D01*
X032601Y027673D02*
X032682Y027673D01*
X032682Y027555D02*
X032601Y027555D01*
X032393Y027555D02*
X022533Y027555D01*
X022630Y027436D02*
X033723Y027436D01*
X033723Y028029D02*
X033094Y028029D01*
X033054Y028148D02*
X033723Y028148D01*
X033723Y028266D02*
X032969Y028266D01*
X033723Y028622D02*
X022466Y028622D01*
X022486Y028740D02*
X033723Y028740D01*
X033723Y028859D02*
X022604Y028859D01*
X022659Y028977D02*
X033723Y028977D01*
X033723Y029096D02*
X022696Y029096D01*
X022696Y029214D02*
X033723Y029214D01*
X033723Y029333D02*
X022673Y029333D01*
X022624Y029452D02*
X033723Y029452D01*
X033723Y029570D02*
X022518Y029570D01*
X022392Y029689D02*
X033723Y029689D01*
X033723Y029807D02*
X022553Y029807D01*
X022638Y029926D02*
X033723Y029926D01*
X033723Y030044D02*
X022687Y030044D01*
X022696Y030163D02*
X033723Y030163D01*
X033723Y030281D02*
X022694Y030281D01*
X022645Y030400D02*
X033723Y030400D01*
X033723Y030518D02*
X022570Y030518D01*
X022433Y030637D02*
X033723Y030637D01*
X033723Y030756D02*
X022501Y030756D01*
X022616Y030874D02*
X033723Y030874D01*
X033723Y030993D02*
X032854Y030993D01*
X032818Y030977D02*
X033144Y031112D01*
X033393Y031362D01*
X033528Y031688D01*
X033528Y032041D01*
X033393Y032367D01*
X033144Y032616D01*
X032818Y032751D01*
X032465Y032751D01*
X032139Y032616D01*
X031890Y032367D01*
X031755Y032041D01*
X031755Y031688D01*
X031890Y031362D01*
X032139Y031112D01*
X032465Y030977D01*
X032818Y030977D01*
X033141Y031111D02*
X033723Y031111D01*
X033723Y031230D02*
X033261Y031230D01*
X033380Y031348D02*
X033723Y031348D01*
X033723Y031467D02*
X033437Y031467D01*
X033486Y031585D02*
X033723Y031585D01*
X033723Y031704D02*
X033528Y031704D01*
X033528Y031822D02*
X033723Y031822D01*
X033723Y031941D02*
X033528Y031941D01*
X033521Y032059D02*
X033723Y032059D01*
X033717Y032178D02*
X033471Y032178D01*
X033422Y032297D02*
X033702Y032297D01*
X033675Y032415D02*
X033345Y032415D01*
X033226Y032534D02*
X033648Y032534D01*
X033611Y032652D02*
X033056Y032652D01*
X033497Y032889D02*
X000684Y032889D01*
X000627Y032771D02*
X033554Y032771D01*
X033421Y033008D02*
X000759Y033008D01*
X000854Y033126D02*
X033327Y033126D01*
X033232Y033245D02*
X000949Y033245D01*
X001098Y033363D02*
X033083Y033363D01*
X032930Y033482D02*
X001250Y033482D01*
X001496Y033601D02*
X032684Y033601D01*
X032255Y033719D02*
X001926Y033719D01*
X001716Y032751D02*
X001363Y032751D01*
X001037Y032616D01*
X000787Y032367D01*
X000652Y032041D01*
X000652Y031688D01*
X000787Y031362D01*
X001037Y031112D01*
X001363Y030977D01*
X001716Y030977D01*
X002041Y031112D01*
X002291Y031362D01*
X002426Y031688D01*
X002426Y032041D01*
X002291Y032367D01*
X002041Y032616D01*
X001716Y032751D01*
X001954Y032652D02*
X005926Y032652D01*
X005768Y032534D02*
X005478Y032534D01*
X005596Y032415D02*
X005684Y032415D01*
X005678Y031941D02*
X005610Y031941D01*
X005491Y031822D02*
X005755Y031822D01*
X005894Y031704D02*
X005373Y031704D01*
X005416Y031585D02*
X005820Y031585D01*
X005705Y031467D02*
X005545Y031467D01*
X005608Y031348D02*
X005656Y031348D01*
X004906Y031585D02*
X002383Y031585D01*
X002426Y031704D02*
X004950Y031704D01*
X004831Y031822D02*
X002426Y031822D01*
X002426Y031941D02*
X004713Y031941D01*
X004681Y032059D02*
X002418Y032059D01*
X002369Y032178D02*
X004681Y032178D01*
X004681Y032297D02*
X002320Y032297D01*
X002242Y032415D02*
X004726Y032415D01*
X004845Y032534D02*
X002124Y032534D01*
X001124Y032652D02*
X000570Y032652D01*
X000533Y032534D02*
X000955Y032534D01*
X000836Y032415D02*
X000506Y032415D01*
X000479Y032297D02*
X000758Y032297D01*
X000709Y032178D02*
X000464Y032178D01*
X000457Y032059D02*
X000660Y032059D01*
X000652Y031941D02*
X000457Y031941D01*
X000457Y031822D02*
X000652Y031822D01*
X000652Y031704D02*
X000457Y031704D01*
X000457Y031585D02*
X000695Y031585D01*
X000744Y031467D02*
X000457Y031467D01*
X000457Y031348D02*
X000801Y031348D01*
X000920Y031230D02*
X000457Y031230D01*
X000457Y031111D02*
X001040Y031111D01*
X001326Y030993D02*
X000457Y030993D01*
X000457Y030874D02*
X004515Y030874D01*
X004637Y030993D02*
X001752Y030993D01*
X002038Y031111D02*
X004681Y031111D01*
X004681Y031230D02*
X002159Y031230D01*
X002277Y031348D02*
X004715Y031348D01*
X004778Y031467D02*
X002334Y031467D01*
X003779Y030163D02*
X000457Y030163D01*
X000457Y030281D02*
X003902Y030281D01*
X004024Y030400D02*
X000457Y030400D01*
X000457Y030518D02*
X004147Y030518D01*
X004270Y030637D02*
X000457Y030637D01*
X000457Y030756D02*
X004392Y030756D01*
X003721Y030044D02*
X000457Y030044D01*
X000457Y029926D02*
X003721Y029926D01*
X003721Y029807D02*
X000457Y029807D01*
X000457Y029689D02*
X003721Y029689D01*
X003721Y029570D02*
X000457Y029570D01*
X000457Y029452D02*
X003721Y029452D01*
X003721Y029333D02*
X000457Y029333D01*
X000457Y029214D02*
X003721Y029214D01*
X003721Y029096D02*
X000457Y029096D01*
X000457Y028977D02*
X003721Y028977D01*
X003721Y028859D02*
X000457Y028859D01*
X000457Y028740D02*
X003721Y028740D01*
X003721Y028622D02*
X000457Y028622D01*
X000457Y028503D02*
X003721Y028503D01*
X003721Y028385D02*
X000457Y028385D01*
X000457Y028266D02*
X003721Y028266D01*
X003721Y028148D02*
X000457Y028148D01*
X000457Y028029D02*
X003721Y028029D01*
X003721Y027910D02*
X000457Y027910D01*
X000457Y027792D02*
X003721Y027792D01*
X003721Y027673D02*
X000457Y027673D01*
X000457Y027555D02*
X003721Y027555D01*
X003721Y027436D02*
X000457Y027436D01*
X000457Y027318D02*
X003721Y027318D01*
X003721Y027199D02*
X000457Y027199D01*
X000457Y027081D02*
X003721Y027081D01*
X003721Y026962D02*
X000457Y026962D01*
X000457Y026844D02*
X003721Y026844D01*
X003721Y026725D02*
X000457Y026725D01*
X000457Y026606D02*
X003721Y026606D01*
X003721Y026488D02*
X000457Y026488D01*
X000457Y026369D02*
X003721Y026369D01*
X003721Y026251D02*
X000457Y026251D01*
X000457Y026132D02*
X003721Y026132D01*
X003721Y026014D02*
X000457Y026014D01*
X000457Y025895D02*
X003721Y025895D01*
X003721Y025777D02*
X000457Y025777D01*
X000457Y025658D02*
X003721Y025658D01*
X003721Y025540D02*
X000457Y025540D01*
X000457Y025421D02*
X003721Y025421D01*
X003721Y025303D02*
X000457Y025303D01*
X000457Y025184D02*
X003721Y025184D01*
X005301Y024710D02*
X005879Y024710D01*
X005826Y024591D02*
X005350Y024591D01*
X005510Y024473D02*
X005708Y024473D01*
X005659Y024354D02*
X005584Y024354D01*
X005617Y024236D02*
X005627Y024236D01*
X005618Y024117D02*
X005627Y024117D01*
X005654Y023999D02*
X005589Y023999D01*
X005518Y023880D02*
X005704Y023880D01*
X005815Y023761D02*
X005370Y023761D01*
X005957Y022932D02*
X006223Y022932D01*
X006457Y022932D02*
X006723Y022932D01*
X006957Y022932D02*
X007223Y022932D01*
X007457Y022932D02*
X007723Y022932D01*
X007957Y022932D02*
X008223Y022932D01*
X008457Y022932D02*
X008723Y022932D01*
X008957Y022932D02*
X009223Y022932D01*
X009457Y022932D02*
X009723Y022932D01*
X009957Y022932D02*
X010223Y022932D01*
X010457Y022932D02*
X010723Y022932D01*
X010957Y022932D02*
X011223Y022932D01*
X011457Y022932D02*
X011723Y022932D01*
X011957Y022932D02*
X012223Y022932D01*
X012457Y022932D02*
X012723Y022932D01*
X012957Y022932D02*
X013223Y022932D01*
X013457Y022932D02*
X013723Y022932D01*
X013957Y022932D02*
X014223Y022932D01*
X014457Y022932D02*
X014723Y022932D01*
X014957Y022932D02*
X015223Y022932D01*
X015457Y022932D02*
X015723Y022932D01*
X015957Y022932D02*
X016223Y022932D01*
X016457Y022932D02*
X016723Y022932D01*
X016957Y022932D02*
X017223Y022932D01*
X017457Y022932D02*
X017723Y022932D01*
X017957Y022932D02*
X018223Y022932D01*
X018457Y022932D02*
X018723Y022932D01*
X018957Y022932D02*
X019223Y022932D01*
X019457Y022932D02*
X019723Y022932D01*
X019957Y022932D02*
X020223Y022932D01*
X020457Y022932D02*
X020723Y022932D01*
X020957Y022932D02*
X021223Y022932D01*
X021457Y022932D02*
X021723Y022932D01*
X021957Y022932D02*
X022223Y022932D01*
X022457Y022932D02*
X022723Y022932D01*
X022957Y022932D02*
X023223Y022932D01*
X023457Y022932D02*
X023723Y022932D01*
X023957Y022932D02*
X024223Y022932D01*
X024457Y022932D02*
X024723Y022932D01*
X024957Y022932D02*
X025223Y022932D01*
X025457Y022932D02*
X025723Y022932D01*
X025957Y022932D02*
X026223Y022932D01*
X026457Y022932D02*
X026615Y022932D01*
X026587Y022102D02*
X026594Y022102D01*
X026094Y022102D02*
X026087Y022102D01*
X025594Y022102D02*
X025587Y022102D01*
X025094Y022102D02*
X025087Y022102D01*
X024594Y022102D02*
X024587Y022102D01*
X024094Y022102D02*
X024087Y022102D01*
X023594Y022102D02*
X023587Y022102D01*
X023094Y022102D02*
X023087Y022102D01*
X022594Y022102D02*
X022587Y022102D01*
X022094Y022102D02*
X022087Y022102D01*
X021594Y022102D02*
X021587Y022102D01*
X021094Y022102D02*
X021087Y022102D01*
X020594Y022102D02*
X020587Y022102D01*
X020094Y022102D02*
X020087Y022102D01*
X019594Y022102D02*
X019587Y022102D01*
X019094Y022102D02*
X019087Y022102D01*
X018594Y022102D02*
X018587Y022102D01*
X018094Y022102D02*
X018087Y022102D01*
X017594Y022102D02*
X017587Y022102D01*
X017094Y022102D02*
X017087Y022102D01*
X016594Y022102D02*
X016587Y022102D01*
X016094Y022102D02*
X016087Y022102D01*
X015594Y022102D02*
X015587Y022102D01*
X015094Y022102D02*
X015087Y022102D01*
X014594Y022102D02*
X014587Y022102D01*
X014094Y022102D02*
X014087Y022102D01*
X013594Y022102D02*
X013587Y022102D01*
X013094Y022102D02*
X013087Y022102D01*
X012594Y022102D02*
X012587Y022102D01*
X012094Y022102D02*
X012087Y022102D01*
X011594Y022102D02*
X011587Y022102D01*
X011094Y022102D02*
X011087Y022102D01*
X010594Y022102D02*
X010587Y022102D01*
X010094Y022102D02*
X010087Y022102D01*
X009594Y022102D02*
X009587Y022102D01*
X009094Y022102D02*
X009087Y022102D01*
X008594Y022102D02*
X008587Y022102D01*
X008094Y022102D02*
X008087Y022102D01*
X007594Y022102D02*
X007587Y022102D01*
X007094Y022102D02*
X007087Y022102D01*
X006594Y022102D02*
X006587Y022102D01*
X006094Y022102D02*
X006087Y022102D01*
X005594Y022102D02*
X005559Y022102D01*
X005341Y022102D02*
X005340Y022102D01*
X005340Y021983D02*
X005341Y021983D01*
X005340Y021865D02*
X005341Y021865D01*
X005340Y021746D02*
X005341Y021746D01*
X005340Y021628D02*
X005341Y021628D01*
X004841Y021628D02*
X004840Y021628D01*
X004840Y021746D02*
X004841Y021746D01*
X004840Y021865D02*
X004841Y021865D01*
X004840Y021983D02*
X004841Y021983D01*
X004840Y022102D02*
X004841Y022102D01*
X005059Y022102D02*
X005122Y022102D01*
X004622Y022102D02*
X004377Y022102D01*
X004377Y021983D02*
X004533Y021983D01*
X004503Y021865D02*
X004377Y021865D01*
X004377Y021746D02*
X004516Y021746D01*
X004579Y021628D02*
X004377Y021628D01*
X003780Y020679D02*
X001070Y020679D01*
X001070Y020561D02*
X003780Y020561D01*
X003780Y020442D02*
X001070Y020442D01*
X001070Y020324D02*
X003744Y020324D01*
X003625Y020205D02*
X001070Y020205D01*
X001070Y020087D02*
X003506Y020087D01*
X003388Y019968D02*
X001070Y019968D01*
X001070Y019850D02*
X003269Y019850D01*
X003151Y019731D02*
X001070Y019731D01*
X004337Y015819D02*
X007462Y015819D01*
X007585Y015819D02*
X013725Y015819D01*
X013713Y015824D02*
X013822Y015779D01*
X013941Y015779D01*
X014051Y015824D01*
X014074Y015848D01*
X014241Y015848D01*
X014264Y015824D01*
X014374Y015779D01*
X014492Y015779D01*
X014602Y015824D01*
X014686Y015908D01*
X014731Y016018D01*
X014731Y016136D01*
X014686Y016246D01*
X014602Y016330D01*
X014492Y016375D01*
X014374Y016375D01*
X014264Y016330D01*
X014241Y016306D01*
X014074Y016306D01*
X014051Y016330D01*
X013941Y016375D01*
X013822Y016375D01*
X013713Y016330D01*
X013629Y016246D01*
X013584Y016136D01*
X013584Y016018D01*
X013629Y015908D01*
X013713Y015824D01*
X013617Y015938D02*
X007766Y015938D01*
X007821Y016056D02*
X013584Y016056D01*
X013600Y016175D02*
X007822Y016175D01*
X007768Y016293D02*
X013677Y016293D01*
X014038Y015819D02*
X014276Y015819D01*
X014589Y015819D02*
X016873Y015819D01*
X016742Y015938D02*
X014698Y015938D01*
X014731Y016056D02*
X016693Y016056D01*
X016684Y016175D02*
X014715Y016175D01*
X014638Y016293D02*
X016709Y016293D01*
X016692Y016649D02*
X007275Y016649D01*
X006967Y016175D02*
X006955Y016175D01*
X006947Y016056D02*
X007135Y016056D01*
X007254Y015938D02*
X006881Y015938D01*
X005862Y015463D02*
X017596Y015463D01*
X017478Y015582D02*
X004337Y015582D01*
X004337Y015701D02*
X017393Y015701D01*
X017393Y015819D02*
X017269Y015819D01*
X017080Y017360D02*
X017062Y017360D01*
X017062Y017479D02*
X017080Y017479D01*
X017080Y017597D02*
X017062Y017597D01*
X018904Y014278D02*
X019351Y014278D01*
X019351Y014159D02*
X018904Y014159D01*
X018904Y014041D02*
X019351Y014041D01*
X019351Y013922D02*
X018904Y013922D01*
X018904Y013804D02*
X019351Y013804D01*
X019351Y013685D02*
X019011Y013685D01*
X019175Y013567D02*
X019351Y013567D01*
X019351Y013448D02*
X019219Y013448D01*
X019215Y013330D02*
X019351Y013330D01*
X018495Y009892D02*
X012202Y009892D01*
X012320Y009773D02*
X018495Y009773D01*
X018495Y009655D02*
X012439Y009655D01*
X012557Y009536D02*
X018495Y009536D01*
X018495Y009418D02*
X017458Y009418D01*
X017555Y009299D02*
X018495Y009299D01*
X018495Y009181D02*
X017585Y009181D01*
X017566Y009062D02*
X018495Y009062D01*
X018495Y008944D02*
X017485Y008944D01*
X017089Y008944D02*
X015868Y008944D01*
X015935Y008825D02*
X018495Y008825D01*
X018495Y008706D02*
X016103Y008706D01*
X016148Y008588D02*
X018495Y008588D01*
X018495Y008469D02*
X016145Y008469D01*
X016085Y008351D02*
X018495Y008351D01*
X018495Y008232D02*
X015951Y008232D01*
X016184Y008114D02*
X018429Y008114D01*
X018311Y007995D02*
X016278Y007995D01*
X016306Y007877D02*
X018192Y007877D01*
X018074Y007758D02*
X017764Y007758D01*
X017884Y007640D02*
X017955Y007640D01*
X017480Y007758D02*
X016285Y007758D01*
X015007Y009062D02*
X013032Y009062D01*
X012913Y009181D02*
X015126Y009181D01*
X015244Y009299D02*
X012795Y009299D01*
X012676Y009418D02*
X015363Y009418D01*
X014850Y011789D02*
X014385Y011789D01*
X014436Y011907D02*
X014852Y011907D01*
X014854Y012026D02*
X014511Y012026D01*
X014629Y012144D02*
X014856Y012144D01*
X014870Y012855D02*
X014904Y012855D01*
X015261Y012855D02*
X015298Y012855D01*
X012836Y013330D02*
X012740Y013330D01*
X012836Y013448D02*
X012622Y013448D01*
X012503Y013567D02*
X012836Y013567D01*
X012836Y013685D02*
X010213Y013685D01*
X010213Y013804D02*
X012836Y013804D01*
X012836Y013922D02*
X010213Y013922D01*
X010271Y014041D02*
X012836Y014041D01*
X012836Y014159D02*
X010282Y014159D01*
X010245Y014278D02*
X012836Y014278D01*
X009951Y009655D02*
X003790Y009655D01*
X004337Y014989D02*
X004402Y014989D01*
X004700Y014989D02*
X005504Y014989D01*
X004343Y015463D02*
X004337Y015463D01*
X005563Y022339D02*
X005590Y022339D01*
X006507Y023761D02*
X006815Y023761D01*
X006704Y023880D02*
X006619Y023880D01*
X007507Y023761D02*
X007815Y023761D01*
X007704Y023880D02*
X007619Y023880D01*
X008507Y023761D02*
X008815Y023761D01*
X008704Y023880D02*
X008619Y023880D01*
X009507Y023761D02*
X009815Y023761D01*
X009704Y023880D02*
X009619Y023880D01*
X010507Y023761D02*
X010815Y023761D01*
X010704Y023880D02*
X010619Y023880D01*
X011507Y023761D02*
X011815Y023761D01*
X011704Y023880D02*
X011619Y023880D01*
X012507Y023761D02*
X012815Y023761D01*
X012704Y023880D02*
X012619Y023880D01*
X013507Y023761D02*
X013815Y023761D01*
X013704Y023880D02*
X013619Y023880D01*
X014507Y023761D02*
X014815Y023761D01*
X014704Y023880D02*
X014619Y023880D01*
X015507Y023761D02*
X015815Y023761D01*
X015704Y023880D02*
X015619Y023880D01*
X016507Y023761D02*
X016815Y023761D01*
X016704Y023880D02*
X016619Y023880D01*
X017507Y023761D02*
X017815Y023761D01*
X017704Y023880D02*
X017619Y023880D01*
X018507Y023761D02*
X018815Y023761D01*
X018704Y023880D02*
X018619Y023880D01*
X019507Y023761D02*
X019815Y023761D01*
X019704Y023880D02*
X019619Y023880D01*
X020507Y023761D02*
X020815Y023761D01*
X020704Y023880D02*
X020619Y023880D01*
X021507Y023761D02*
X021815Y023761D01*
X021704Y023880D02*
X021619Y023880D01*
X022482Y026606D02*
X032299Y026606D01*
X032212Y026725D02*
X022471Y026725D01*
X022589Y026844D02*
X032163Y026844D01*
X032162Y026962D02*
X022653Y026962D01*
X022696Y027081D02*
X032179Y027081D01*
X032228Y027199D02*
X022696Y027199D01*
X022679Y027318D02*
X032338Y027318D01*
X032269Y027673D02*
X022355Y027673D01*
X022537Y027792D02*
X032207Y027792D01*
X032894Y026369D02*
X033723Y026369D01*
X033723Y026251D02*
X033012Y026251D01*
X033122Y026132D02*
X033723Y026132D01*
X033723Y026014D02*
X033122Y026014D01*
X033122Y025895D02*
X033723Y025895D01*
X033723Y025777D02*
X033122Y025777D01*
X033036Y025658D02*
X033723Y025658D01*
X033723Y025540D02*
X032917Y025540D01*
X033308Y021746D02*
X030457Y021746D01*
X030605Y021628D02*
X033308Y021628D01*
X033308Y021509D02*
X030685Y021509D01*
X030734Y021391D02*
X033308Y021391D01*
X033308Y021272D02*
X030739Y021272D01*
X030733Y021154D02*
X033308Y021154D01*
X033308Y021035D02*
X030684Y021035D01*
X030602Y020916D02*
X033308Y020916D01*
X033308Y020798D02*
X030449Y020798D01*
X031988Y020561D02*
X033174Y020561D01*
X033055Y020442D02*
X032107Y020442D01*
X032225Y020324D02*
X032936Y020324D01*
X032855Y020205D02*
X032344Y020205D01*
X032462Y020087D02*
X032855Y020087D01*
X032855Y019968D02*
X032581Y019968D01*
X032699Y019850D02*
X032855Y019850D01*
X032855Y019731D02*
X032797Y019731D01*
X032822Y019612D02*
X032855Y019612D01*
X032855Y019494D02*
X032822Y019494D01*
X032822Y019375D02*
X032855Y019375D01*
X032855Y019257D02*
X032822Y019257D01*
X032822Y019138D02*
X032855Y019138D01*
X032855Y019020D02*
X032822Y019020D01*
X032822Y018901D02*
X032855Y018901D01*
X032855Y018783D02*
X032822Y018783D01*
X032822Y018664D02*
X032855Y018664D01*
X032855Y018546D02*
X032822Y018546D01*
X032822Y018427D02*
X032855Y018427D01*
X032855Y018308D02*
X032822Y018308D01*
X032822Y018190D02*
X032855Y018190D01*
X032855Y018071D02*
X032822Y018071D01*
X032822Y017953D02*
X032855Y017953D01*
X032855Y017834D02*
X032822Y017834D01*
X032822Y017716D02*
X032855Y017716D01*
X032855Y017597D02*
X032822Y017597D01*
X032822Y017479D02*
X032855Y017479D01*
X032855Y017360D02*
X032822Y017360D01*
X032822Y017242D02*
X032855Y017242D01*
X032855Y017123D02*
X032822Y017123D01*
X032822Y017004D02*
X032855Y017004D01*
X032855Y016886D02*
X032822Y016886D01*
X032822Y016767D02*
X032855Y016767D01*
X032855Y016649D02*
X032822Y016649D01*
X032822Y016530D02*
X032855Y016530D01*
X032855Y016412D02*
X032822Y016412D01*
X032822Y016293D02*
X032855Y016293D01*
X032855Y016175D02*
X032822Y016175D01*
X032822Y016056D02*
X032855Y016056D01*
X032855Y015938D02*
X032822Y015938D01*
X032822Y015819D02*
X032855Y015819D01*
X032855Y015701D02*
X032822Y015701D01*
X032822Y015582D02*
X032855Y015582D01*
X032855Y015463D02*
X032822Y015463D01*
X032822Y015345D02*
X032855Y015345D01*
X032855Y015226D02*
X032822Y015226D01*
X032822Y015108D02*
X032855Y015108D01*
X032855Y014989D02*
X032822Y014989D01*
X032822Y014871D02*
X032855Y014871D01*
X032855Y014752D02*
X032822Y014752D01*
X032822Y014634D02*
X032855Y014634D01*
X032855Y014515D02*
X032822Y014515D01*
X032822Y014397D02*
X032855Y014397D01*
X032855Y014278D02*
X032822Y014278D01*
X032822Y014159D02*
X032855Y014159D01*
X032855Y014041D02*
X032822Y014041D01*
X032822Y013922D02*
X032855Y013922D01*
X032855Y013804D02*
X032822Y013804D01*
X032822Y013685D02*
X032855Y013685D01*
X032855Y013567D02*
X032822Y013567D01*
X032822Y013448D02*
X032855Y013448D01*
X032855Y013330D02*
X032822Y013330D01*
X032822Y013211D02*
X032855Y013211D01*
X032855Y013093D02*
X032822Y013093D01*
X032822Y012974D02*
X032855Y012974D01*
X032855Y012855D02*
X032822Y012855D01*
X032822Y012737D02*
X032855Y012737D01*
X032855Y012618D02*
X032822Y012618D01*
X032822Y012500D02*
X032855Y012500D01*
X032855Y012381D02*
X032822Y012381D01*
X032822Y012263D02*
X032855Y012263D01*
X032855Y012144D02*
X032822Y012144D01*
X032822Y012026D02*
X032855Y012026D01*
X030099Y013330D02*
X029623Y013330D01*
X029652Y013448D02*
X030099Y013448D01*
X030099Y013567D02*
X029632Y013567D01*
X029549Y013685D02*
X030099Y013685D01*
X029159Y013685D02*
X027089Y013685D01*
X027028Y014871D02*
X027576Y014871D01*
X027727Y014871D02*
X027808Y014871D01*
X027808Y014989D02*
X027727Y014989D01*
X027727Y015108D02*
X027808Y015108D01*
X027808Y015226D02*
X027727Y015226D01*
X027417Y014989D02*
X027146Y014989D01*
X027248Y015108D02*
X027344Y015108D01*
X027312Y015226D02*
X027248Y015226D01*
X027248Y015345D02*
X027311Y015345D01*
X027340Y015463D02*
X027266Y015463D01*
X027384Y015582D02*
X027412Y015582D01*
X027092Y015938D02*
X026541Y015938D01*
X026659Y015819D02*
X026973Y015819D01*
X028124Y015582D02*
X030924Y015582D01*
X030875Y008706D02*
X031100Y008706D01*
X030991Y008588D02*
X030912Y008588D01*
X030914Y006928D02*
X033723Y006928D01*
X033723Y006810D02*
X031072Y006810D01*
X031091Y006691D02*
X033723Y006691D01*
X033723Y006573D02*
X031089Y006573D01*
X031089Y006454D02*
X033723Y006454D01*
X033723Y006336D02*
X031089Y006336D01*
X031089Y006217D02*
X033723Y006217D01*
X033723Y006099D02*
X031089Y006099D01*
X031089Y005980D02*
X033723Y005980D01*
X033723Y005861D02*
X031089Y005861D01*
X031089Y005743D02*
X033723Y005743D01*
X033723Y005624D02*
X031135Y005624D01*
X031168Y005506D02*
X033723Y005506D01*
X033723Y005387D02*
X031151Y005387D01*
X031074Y005269D02*
X033723Y005269D01*
X033723Y005150D02*
X023426Y005150D01*
X023425Y005032D02*
X033723Y005032D01*
X033723Y004913D02*
X023425Y004913D01*
X023424Y004795D02*
X033723Y004795D01*
X033723Y004676D02*
X023424Y004676D01*
X023423Y004557D02*
X033723Y004557D01*
X033723Y004439D02*
X023422Y004439D01*
X023422Y004320D02*
X033723Y004320D01*
X033723Y004202D02*
X023421Y004202D01*
X023421Y004083D02*
X033723Y004083D01*
X033723Y003965D02*
X023420Y003965D01*
X023420Y003846D02*
X033723Y003846D01*
X033723Y003728D02*
X023419Y003728D01*
X023419Y003609D02*
X033723Y003609D01*
X033723Y003491D02*
X023418Y003491D01*
X023418Y003372D02*
X033723Y003372D01*
X033723Y003253D02*
X023417Y003253D01*
X023416Y003135D02*
X032252Y003135D01*
X032139Y003088D02*
X032465Y003223D01*
X032818Y003223D01*
X033144Y003088D01*
X033393Y002839D01*
X033528Y002513D01*
X033528Y002160D01*
X033393Y001834D01*
X033144Y001585D01*
X032818Y001450D01*
X032465Y001450D01*
X032139Y001585D01*
X031890Y001834D01*
X031755Y002160D01*
X031755Y002513D01*
X031890Y002839D01*
X032139Y003088D01*
X032067Y003016D02*
X023416Y003016D01*
X023415Y002898D02*
X031949Y002898D01*
X031865Y002779D02*
X023415Y002779D01*
X023414Y002661D02*
X031816Y002661D01*
X031767Y002542D02*
X023414Y002542D01*
X023413Y002424D02*
X031755Y002424D01*
X031755Y002305D02*
X023413Y002305D01*
X023412Y002187D02*
X031755Y002187D01*
X031793Y002068D02*
X023379Y002068D01*
X023270Y001949D02*
X031842Y001949D01*
X031893Y001831D02*
X023151Y001831D01*
X023033Y001712D02*
X032012Y001712D01*
X032130Y001594D02*
X022870Y001594D01*
X022775Y002187D02*
X020006Y002187D01*
X020030Y002377D02*
X020019Y002444D01*
X019997Y002513D01*
X019964Y002578D01*
X019922Y002636D01*
X019870Y002688D01*
X019812Y002730D01*
X019747Y002763D01*
X019678Y002785D01*
X019611Y002796D01*
X019611Y002377D01*
X020030Y002377D01*
X020023Y002424D02*
X022896Y002424D01*
X022896Y002542D02*
X019982Y002542D01*
X019897Y002661D02*
X022897Y002661D01*
X022897Y002779D02*
X019697Y002779D01*
X019611Y002779D02*
X019531Y002779D01*
X019444Y002779D02*
X018697Y002779D01*
X018678Y002785D02*
X018611Y002796D01*
X018611Y002377D01*
X019030Y002377D01*
X019019Y002444D01*
X018997Y002513D01*
X018964Y002578D01*
X018922Y002636D01*
X018870Y002688D01*
X018812Y002730D01*
X018747Y002763D01*
X018678Y002785D01*
X018611Y002779D02*
X018531Y002779D01*
X018444Y002779D02*
X017756Y002779D01*
X017925Y002661D02*
X018244Y002661D01*
X018159Y002542D02*
X018005Y002542D01*
X018051Y002424D02*
X018119Y002424D01*
X018051Y002305D02*
X018530Y002305D01*
X018611Y002305D02*
X019530Y002305D01*
X019611Y002305D02*
X022894Y002305D01*
X021462Y003016D02*
X021105Y003016D01*
X021187Y003135D02*
X021391Y003135D01*
X021379Y003253D02*
X021207Y003253D01*
X021178Y003372D02*
X021416Y003372D01*
X021458Y003491D02*
X021129Y003491D01*
X021129Y003609D02*
X021458Y003609D01*
X021458Y003728D02*
X021129Y003728D01*
X021129Y003846D02*
X021458Y003846D01*
X021458Y003965D02*
X021129Y003965D01*
X021129Y004083D02*
X021458Y004083D01*
X021458Y004202D02*
X021129Y004202D01*
X021129Y004320D02*
X021458Y004320D01*
X021458Y004439D02*
X021129Y004439D01*
X021129Y004557D02*
X021458Y004557D01*
X021458Y004676D02*
X021129Y004676D01*
X021129Y004795D02*
X021458Y004795D01*
X021458Y004913D02*
X021237Y004913D01*
X021355Y005032D02*
X021458Y005032D01*
X021474Y005150D02*
X021483Y005150D01*
X021209Y005506D02*
X017511Y005506D01*
X017628Y005624D02*
X021328Y005624D01*
X021091Y005387D02*
X017395Y005387D01*
X017278Y005269D02*
X020972Y005269D01*
X020853Y005150D02*
X017162Y005150D01*
X017150Y005032D02*
X020735Y005032D01*
X020690Y004913D02*
X017149Y004913D01*
X017148Y004795D02*
X020690Y004795D01*
X020690Y004676D02*
X017146Y004676D01*
X017145Y004557D02*
X020690Y004557D01*
X020690Y004439D02*
X017144Y004439D01*
X017143Y004320D02*
X020690Y004320D01*
X020690Y004202D02*
X017142Y004202D01*
X017140Y004083D02*
X020690Y004083D01*
X020690Y003965D02*
X017139Y003965D01*
X017138Y003846D02*
X020690Y003846D01*
X020690Y003728D02*
X017137Y003728D01*
X017136Y003609D02*
X020690Y003609D01*
X020690Y003491D02*
X017134Y003491D01*
X017133Y003372D02*
X020640Y003372D01*
X020611Y003253D02*
X017133Y003253D01*
X017101Y003135D02*
X020631Y003135D01*
X020714Y003016D02*
X017030Y003016D01*
X016756Y002779D02*
X017385Y002779D01*
X017216Y002661D02*
X016925Y002661D01*
X017005Y002542D02*
X017136Y002542D01*
X017091Y002424D02*
X017051Y002424D01*
X017051Y002305D02*
X017091Y002305D01*
X017055Y002187D02*
X017028Y002187D01*
X017431Y001831D02*
X017704Y001831D01*
X017809Y001712D02*
X017312Y001712D01*
X017194Y001594D02*
X017936Y001594D01*
X018080Y002187D02*
X018136Y002187D01*
X018531Y002424D02*
X018611Y002424D01*
X018611Y002542D02*
X018531Y002542D01*
X018531Y002661D02*
X018611Y002661D01*
X018897Y002661D02*
X019244Y002661D01*
X019159Y002542D02*
X018982Y002542D01*
X019023Y002424D02*
X019119Y002424D01*
X019136Y002187D02*
X019006Y002187D01*
X019531Y002424D02*
X019611Y002424D01*
X019611Y002542D02*
X019531Y002542D01*
X019531Y002661D02*
X019611Y002661D01*
X016599Y003016D02*
X016381Y003016D01*
X016475Y003135D02*
X016528Y003135D01*
X016517Y003253D02*
X016506Y003253D01*
X016385Y002779D02*
X015756Y002779D01*
X015925Y002661D02*
X016216Y002661D01*
X016136Y002542D02*
X016005Y002542D01*
X016051Y002424D02*
X016091Y002424D01*
X016091Y002305D02*
X016051Y002305D01*
X016028Y002187D02*
X016113Y002187D01*
X016162Y002068D02*
X015979Y002068D01*
X016028Y003016D02*
X015555Y003016D01*
X015673Y003135D02*
X015934Y003135D01*
X015906Y003253D02*
X015792Y003253D01*
X015910Y003372D02*
X015928Y003372D01*
X013584Y003491D02*
X013573Y003480D01*
X012075Y002424D02*
X005942Y002424D01*
X006032Y002305D02*
X011915Y002305D01*
X011871Y002187D02*
X006122Y002187D01*
X006212Y002068D02*
X011876Y002068D01*
X012644Y001475D02*
X032404Y001475D01*
X032879Y001475D02*
X033575Y001475D01*
X033518Y001357D02*
X012622Y001357D01*
X012536Y001238D02*
X033458Y001238D01*
X033363Y001120D02*
X012306Y001120D01*
X012187Y001001D02*
X033268Y001001D01*
X033153Y001594D02*
X033631Y001594D01*
X033658Y001712D02*
X033271Y001712D01*
X033390Y001831D02*
X033685Y001831D01*
X033712Y001949D02*
X033441Y001949D01*
X033490Y002068D02*
X033719Y002068D01*
X033723Y002187D02*
X033528Y002187D01*
X033528Y002305D02*
X033723Y002305D01*
X033723Y002424D02*
X033528Y002424D01*
X033516Y002542D02*
X033723Y002542D01*
X033723Y002661D02*
X033467Y002661D01*
X033418Y002779D02*
X033723Y002779D01*
X033723Y002898D02*
X033334Y002898D01*
X033216Y003016D02*
X033723Y003016D01*
X033723Y003135D02*
X033032Y003135D01*
X030651Y006099D02*
X023430Y006099D01*
X023431Y006217D02*
X030651Y006217D01*
X030651Y006336D02*
X023447Y006336D01*
X023571Y006454D02*
X030651Y006454D01*
X030651Y006573D02*
X023695Y006573D01*
X023836Y005980D02*
X023430Y005980D01*
X023429Y005861D02*
X023758Y005861D01*
X023741Y005743D02*
X023429Y005743D01*
X023428Y005624D02*
X023774Y005624D01*
X023878Y005506D02*
X023427Y005506D01*
X023427Y005387D02*
X024269Y005387D01*
X024253Y005506D02*
X024200Y005506D01*
X024347Y005269D02*
X023426Y005269D01*
X022266Y006217D02*
X018210Y006217D01*
X018094Y006099D02*
X022084Y006099D01*
X022029Y005980D02*
X017977Y005980D01*
X017861Y005861D02*
X022029Y005861D01*
X022077Y005743D02*
X017744Y005743D01*
X019040Y007047D02*
X020062Y007047D01*
X010359Y008588D02*
X010260Y008588D01*
X000551Y024591D02*
X000457Y024591D01*
X000457Y024710D02*
X000669Y024710D01*
X000788Y024828D02*
X000457Y024828D01*
X000457Y024947D02*
X000906Y024947D01*
X001025Y025065D02*
X000457Y025065D01*
X005497Y024828D02*
X005749Y024828D01*
X005676Y024947D02*
X005588Y024947D01*
X006639Y032415D02*
X006684Y032415D01*
X006768Y032534D02*
X006555Y032534D01*
X006397Y032652D02*
X006926Y032652D01*
X007397Y032652D02*
X007926Y032652D01*
X007768Y032534D02*
X007555Y032534D01*
X007639Y032415D02*
X007684Y032415D01*
X008397Y032652D02*
X008926Y032652D01*
X008768Y032534D02*
X008555Y032534D01*
X008639Y032415D02*
X008684Y032415D01*
X009397Y032652D02*
X009926Y032652D01*
X009768Y032534D02*
X009555Y032534D01*
X009639Y032415D02*
X009684Y032415D01*
X010397Y032652D02*
X010926Y032652D01*
X010768Y032534D02*
X010555Y032534D01*
X010639Y032415D02*
X010684Y032415D01*
X011397Y032652D02*
X011926Y032652D01*
X011768Y032534D02*
X011555Y032534D01*
X011639Y032415D02*
X011684Y032415D01*
X012397Y032652D02*
X012926Y032652D01*
X012768Y032534D02*
X012555Y032534D01*
X012639Y032415D02*
X012684Y032415D01*
X013397Y032652D02*
X013926Y032652D01*
X013768Y032534D02*
X013555Y032534D01*
X013639Y032415D02*
X013684Y032415D01*
X014397Y032652D02*
X014926Y032652D01*
X014768Y032534D02*
X014555Y032534D01*
X014639Y032415D02*
X014684Y032415D01*
X015397Y032652D02*
X015926Y032652D01*
X015768Y032534D02*
X015555Y032534D01*
X015639Y032415D02*
X015684Y032415D01*
X016397Y032652D02*
X016926Y032652D01*
X016768Y032534D02*
X016555Y032534D01*
X016639Y032415D02*
X016684Y032415D01*
X017397Y032652D02*
X017926Y032652D01*
X017768Y032534D02*
X017555Y032534D01*
X017639Y032415D02*
X017684Y032415D01*
X018397Y032652D02*
X018926Y032652D01*
X018768Y032534D02*
X018555Y032534D01*
X018639Y032415D02*
X018684Y032415D01*
X019397Y032652D02*
X019926Y032652D01*
X019768Y032534D02*
X019555Y032534D01*
X019639Y032415D02*
X019684Y032415D01*
X020397Y032652D02*
X020926Y032652D01*
X020768Y032534D02*
X020555Y032534D01*
X020639Y032415D02*
X020684Y032415D01*
X021397Y032652D02*
X021926Y032652D01*
X021768Y032534D02*
X021555Y032534D01*
X021639Y032415D02*
X021684Y032415D01*
X022397Y032652D02*
X032227Y032652D01*
X032057Y032534D02*
X022555Y032534D01*
X022639Y032415D02*
X031938Y032415D01*
X031861Y032297D02*
X022688Y032297D01*
X022696Y032178D02*
X031812Y032178D01*
X031763Y032059D02*
X022693Y032059D01*
X022644Y031941D02*
X031755Y031941D01*
X031755Y031822D02*
X022568Y031822D01*
X022429Y031704D02*
X031755Y031704D01*
X031797Y031585D02*
X022503Y031585D01*
X022617Y031467D02*
X031846Y031467D01*
X031904Y031348D02*
X022666Y031348D01*
X022696Y031230D02*
X032022Y031230D01*
X032142Y031111D02*
X022696Y031111D01*
X022666Y030993D02*
X032429Y030993D01*
X029000Y023709D02*
X029062Y023648D01*
X029062Y023643D01*
D20*
X026657Y020408D02*
X025023Y020408D01*
X026657Y020408D02*
X031775Y020408D01*
X032563Y019620D01*
X032563Y011187D01*
X032551Y011589D01*
X026768Y015289D02*
X026027Y014549D01*
X026027Y011116D01*
X026027Y007140D01*
X025771Y006884D01*
X023646Y006884D01*
X023173Y006431D01*
X023153Y002199D01*
X022799Y001845D01*
X018055Y001825D01*
X017602Y002337D01*
X017571Y002337D01*
X017039Y001805D01*
X006086Y001805D01*
X005594Y002455D01*
X004433Y002455D01*
X018646Y013695D02*
X018646Y014837D01*
X018960Y015152D01*
X020004Y015152D01*
X020043Y015191D01*
X025220Y015191D01*
X025417Y015191D01*
X018921Y013400D02*
X018646Y013695D01*
D21*
X018161Y024171D03*
X017161Y024171D03*
X016161Y024171D03*
X015161Y024171D03*
X014161Y024171D03*
X013161Y024171D03*
X012161Y024171D03*
X011161Y024171D03*
X010161Y024171D03*
X009161Y024171D03*
X008161Y024171D03*
X007161Y024171D03*
X006161Y024171D03*
X006161Y025171D03*
X007161Y025171D03*
X008161Y025171D03*
X009161Y025171D03*
X010161Y025171D03*
X011161Y025171D03*
X012161Y025171D03*
X013161Y025171D03*
X014161Y025171D03*
X015161Y025171D03*
X016161Y025171D03*
X017161Y025171D03*
X018161Y025171D03*
X019161Y025171D03*
X020161Y025171D03*
X020161Y024171D03*
X019161Y024171D03*
X021161Y024171D03*
X022161Y024171D03*
X022161Y025171D03*
X021161Y025171D03*
X021161Y026171D03*
X020161Y026171D03*
X019161Y026171D03*
X018161Y026171D03*
X017161Y026171D03*
X016161Y026171D03*
X015161Y026171D03*
X014161Y026171D03*
X013161Y026171D03*
X012161Y026171D03*
X011161Y026171D03*
X010161Y026171D03*
X009161Y026171D03*
X008161Y026171D03*
X007161Y026171D03*
X006161Y026171D03*
X006161Y027171D03*
X007161Y027171D03*
X008161Y027171D03*
X009161Y027171D03*
X010161Y027171D03*
X011161Y027171D03*
X012161Y027171D03*
X013161Y027171D03*
X014161Y027171D03*
X015161Y027171D03*
X016161Y027171D03*
X017161Y027171D03*
X018161Y027171D03*
X019161Y027171D03*
X020161Y027171D03*
X021161Y027171D03*
X022161Y027171D03*
X022161Y026171D03*
X022161Y028171D03*
X021161Y028171D03*
X020161Y028171D03*
X019161Y028171D03*
X018161Y028171D03*
X017161Y028171D03*
X016161Y028171D03*
X015161Y028171D03*
X014161Y028171D03*
X013161Y028171D03*
X012161Y028171D03*
X011161Y028171D03*
X010161Y028171D03*
X009161Y028171D03*
X008161Y028171D03*
X007161Y028171D03*
X006161Y028171D03*
X006161Y029171D03*
X007161Y029171D03*
X008161Y029171D03*
X009161Y029171D03*
X010161Y029171D03*
X011161Y029171D03*
X012161Y029171D03*
X013161Y029171D03*
X014161Y029171D03*
X015161Y029171D03*
X016161Y029171D03*
X017161Y029171D03*
X018161Y029171D03*
X019161Y029171D03*
X020161Y029171D03*
X021161Y029171D03*
X022161Y029171D03*
X022161Y030171D03*
X021161Y030171D03*
X020161Y030171D03*
X019161Y030171D03*
X018161Y030171D03*
X017161Y030171D03*
X016161Y030171D03*
X015161Y030171D03*
X014161Y030171D03*
X013161Y030171D03*
X012161Y030171D03*
X011161Y030171D03*
X010161Y030171D03*
X009161Y030171D03*
X008161Y030171D03*
X007161Y030171D03*
X006161Y030171D03*
X006161Y031171D03*
X007161Y031171D03*
X008161Y031171D03*
X009161Y031171D03*
X010161Y031171D03*
X011161Y031171D03*
X012161Y031171D03*
X013161Y031171D03*
X014161Y031171D03*
X015161Y031171D03*
X016161Y031171D03*
X017161Y031171D03*
X018161Y031171D03*
X019161Y031171D03*
X020161Y031171D03*
X021161Y031171D03*
X022161Y031171D03*
X022161Y032171D03*
X021161Y032171D03*
X020161Y032171D03*
X019161Y032171D03*
X018161Y032171D03*
X017161Y032171D03*
X016161Y032171D03*
X015161Y032171D03*
X014161Y032171D03*
X013161Y032171D03*
X012161Y032171D03*
X011161Y032171D03*
X010161Y032171D03*
X009161Y032171D03*
X008161Y032171D03*
X007161Y032171D03*
X006161Y032171D03*
M02*
