%
M48
M72
T01C0.0236
T02C0.0400
%
T01
X5565Y4679
X5958Y5033
X5171Y5033
X4777Y4698
X4383Y5053
X3990Y4698
X3576Y5053
X3202Y4698
T02
X982Y832
X1982Y832
X2982Y832
X3982Y832
X4982Y832
X5982Y832
X6982Y832
X7982Y832
X7982Y1832
X6982Y1832
X5982Y1832
X4982Y1832
X3982Y1832
X2982Y1832
X1982Y1832
X982Y1832
M30
