G75*
G70*
%OFA0B0*%
%FSLAX24Y24*%
%IPPOS*%
%LPD*%
%AMOC8*
5,1,8,0,0,1.08239X$1,22.5*
%
%ADD10R,0.0190X0.0710*%
%ADD11R,0.0946X0.1261*%
%ADD12OC8,0.0680*%
%ADD13C,0.0476*%
D10*
X003006Y004088D03*
X003202Y004088D03*
X003399Y004088D03*
X003596Y004088D03*
X003793Y004088D03*
X003990Y004088D03*
X004187Y004088D03*
X004383Y004088D03*
X004580Y004088D03*
X004777Y004088D03*
X004974Y004088D03*
X005171Y004088D03*
X005368Y004088D03*
X005565Y004088D03*
X005761Y004088D03*
X005958Y004088D03*
D11*
X006883Y004915D03*
X002080Y004915D03*
D12*
X000982Y000832D03*
X001982Y000832D03*
X002982Y000832D03*
X003982Y000832D03*
X004982Y000832D03*
X005982Y000832D03*
X006982Y000832D03*
X007982Y000832D03*
X007982Y001832D03*
X006982Y001832D03*
X005982Y001832D03*
X004982Y001832D03*
X003982Y001832D03*
X002982Y001832D03*
X001982Y001832D03*
X000982Y001832D03*
D13*
X003202Y004698D03*
X003576Y005053D03*
X003990Y004698D03*
X004383Y005053D03*
X004777Y004698D03*
X005171Y005033D03*
X005565Y004679D03*
X005958Y005033D03*
M02*
