G75*
G70*
%OFA0B0*%
%FSLAX24Y24*%
%IPPOS*%
%LPD*%
%AMOC8*
5,1,8,0,0,1.08239X$1,22.5*
%
%ADD10OC8,0.0600*%
%ADD11C,0.0100*%
%ADD12C,0.0396*%
D10*
X000982Y000832D03*
X001982Y000832D03*
X002982Y000832D03*
X003982Y000832D03*
X004982Y000832D03*
X005982Y000832D03*
X006982Y000832D03*
X007982Y000832D03*
X007982Y001832D03*
X006982Y001832D03*
X005982Y001832D03*
X004982Y001832D03*
X003982Y001832D03*
X002982Y001832D03*
X001982Y001832D03*
X000982Y001832D03*
D11*
X003202Y003974D01*
X003202Y004698D01*
X003354Y004783D02*
X000601Y004783D01*
X000601Y004881D02*
X003271Y004881D01*
X003281Y004856D02*
X003376Y004760D01*
X003376Y003541D01*
X002118Y002282D01*
X001795Y002282D01*
X001532Y002019D01*
X001532Y001646D01*
X001795Y001382D01*
X002168Y001382D01*
X002432Y001646D01*
X002432Y002019D01*
X002426Y002025D01*
X003659Y003258D01*
X003770Y003369D01*
X003770Y002903D01*
X003149Y002282D01*
X002795Y002282D01*
X002532Y002019D01*
X002532Y001646D01*
X002795Y001382D01*
X003168Y001382D01*
X003432Y001646D01*
X003432Y001999D01*
X004167Y002735D01*
X004164Y002298D01*
X004149Y002282D01*
X003795Y002282D01*
X003532Y002019D01*
X003532Y001646D01*
X003795Y001382D01*
X004168Y001382D01*
X004432Y001646D01*
X004432Y001999D01*
X004506Y002073D01*
X004557Y002124D01*
X004557Y002060D01*
X004557Y002044D01*
X004532Y002019D01*
X004532Y001646D01*
X004795Y001382D01*
X005168Y001382D01*
X005432Y001646D01*
X005432Y002019D01*
X005168Y002282D01*
X004959Y002282D01*
X004961Y002570D01*
X005010Y002522D01*
X005067Y002464D01*
X005068Y002464D01*
X005532Y001999D01*
X005532Y001646D01*
X005795Y001382D01*
X006168Y001382D01*
X006432Y001646D01*
X006432Y002019D01*
X006168Y002282D01*
X005815Y002282D01*
X005352Y002745D01*
X005365Y004386D01*
X005367Y004384D01*
X005369Y004383D01*
X005384Y003228D01*
X005384Y003147D01*
X005385Y003146D01*
X005385Y003144D01*
X005444Y003087D01*
X006532Y001999D01*
X006532Y001646D01*
X006795Y001382D01*
X007168Y001382D01*
X007432Y001646D01*
X007432Y002019D01*
X007168Y002282D01*
X006815Y002282D01*
X005783Y003314D01*
X005777Y003754D01*
X005796Y003735D01*
X005852Y003677D01*
X005854Y003677D01*
X007532Y001999D01*
X007532Y001646D01*
X007795Y001382D01*
X008168Y001382D01*
X008363Y001577D01*
X008363Y001088D01*
X008168Y001282D01*
X007795Y001282D01*
X007532Y001019D01*
X007532Y000646D01*
X007577Y000601D01*
X007387Y000601D01*
X007432Y000646D01*
X007432Y001019D01*
X007168Y001282D01*
X006795Y001282D01*
X006532Y001019D01*
X006532Y000646D01*
X006577Y000601D01*
X006387Y000601D01*
X006432Y000646D01*
X006432Y001019D01*
X006168Y001282D01*
X005795Y001282D01*
X005532Y001019D01*
X005532Y000646D01*
X005577Y000601D01*
X005387Y000601D01*
X005432Y000646D01*
X005432Y001019D01*
X005168Y001282D01*
X004795Y001282D01*
X004532Y001019D01*
X004532Y000646D01*
X004577Y000601D01*
X004387Y000601D01*
X004432Y000646D01*
X004432Y001019D01*
X004168Y001282D01*
X003795Y001282D01*
X003532Y001019D01*
X003532Y000646D01*
X003577Y000601D01*
X003387Y000601D01*
X003432Y000646D01*
X003432Y001019D01*
X003168Y001282D01*
X002795Y001282D01*
X002532Y001019D01*
X002532Y000646D01*
X002577Y000601D01*
X002387Y000601D01*
X002432Y000646D01*
X002432Y001019D01*
X002168Y001282D01*
X001795Y001282D01*
X001532Y001019D01*
X001532Y000646D01*
X001577Y000601D01*
X001387Y000601D01*
X001432Y000646D01*
X001432Y001019D01*
X001168Y001282D01*
X000795Y001282D01*
X000601Y001088D01*
X000601Y001577D01*
X000795Y001382D01*
X000932Y001382D01*
X000932Y001782D01*
X001032Y001782D01*
X001032Y001382D01*
X001168Y001382D01*
X001432Y001646D01*
X001432Y001782D01*
X001032Y001782D01*
X001032Y001882D01*
X001432Y001882D01*
X001432Y002019D01*
X001168Y002282D01*
X001032Y002282D01*
X001032Y001882D01*
X000932Y001882D01*
X000932Y002282D01*
X000795Y002282D01*
X000601Y002088D01*
X000601Y006000D01*
X008363Y006000D01*
X008363Y002088D01*
X008168Y002282D01*
X007815Y002282D01*
X006140Y003957D01*
X006153Y004737D01*
X006155Y004738D01*
X006253Y004836D01*
X006306Y004964D01*
X006306Y005102D01*
X006253Y005230D01*
X006155Y005328D01*
X006028Y005381D01*
X005889Y005381D01*
X005761Y005328D01*
X005663Y005230D01*
X005610Y005102D01*
X005610Y005027D01*
X005519Y005027D01*
X005519Y005102D01*
X005466Y005230D01*
X005368Y005328D01*
X005240Y005381D01*
X005102Y005381D01*
X004974Y005328D01*
X004876Y005230D01*
X004823Y005102D01*
X004823Y005046D01*
X004732Y005046D01*
X004732Y005122D01*
X004679Y005250D01*
X004581Y005348D01*
X004453Y005401D01*
X004314Y005401D01*
X004186Y005348D01*
X004088Y005250D01*
X004035Y005122D01*
X004035Y005046D01*
X003924Y005046D01*
X003924Y005122D01*
X003871Y005250D01*
X003774Y005348D01*
X003646Y005401D01*
X003507Y005401D01*
X003379Y005348D01*
X003281Y005250D01*
X003228Y005122D01*
X003228Y004983D01*
X003281Y004856D01*
X003230Y004980D02*
X000601Y004980D01*
X000601Y005078D02*
X003228Y005078D01*
X003251Y005177D02*
X000601Y005177D01*
X000601Y005275D02*
X003307Y005275D01*
X003442Y005374D02*
X000601Y005374D01*
X000601Y005473D02*
X008363Y005473D01*
X008363Y005374D02*
X006045Y005374D01*
X005872Y005374D02*
X005257Y005374D01*
X005084Y005374D02*
X004518Y005374D01*
X004653Y005275D02*
X004921Y005275D01*
X004854Y005177D02*
X004709Y005177D01*
X004732Y005078D02*
X004823Y005078D01*
X005171Y005033D02*
X005151Y002663D01*
X005982Y001832D01*
X006317Y001531D02*
X006647Y001531D01*
X006548Y001629D02*
X006415Y001629D01*
X006432Y001728D02*
X006532Y001728D01*
X006532Y001826D02*
X006432Y001826D01*
X006432Y001925D02*
X006532Y001925D01*
X006508Y002024D02*
X006427Y002024D01*
X006409Y002122D02*
X006328Y002122D01*
X006311Y002221D02*
X006230Y002221D01*
X006212Y002319D02*
X005778Y002319D01*
X005679Y002418D02*
X006114Y002418D01*
X006015Y002516D02*
X005581Y002516D01*
X005482Y002615D02*
X005917Y002615D01*
X005818Y002713D02*
X005384Y002713D01*
X005352Y002812D02*
X005719Y002812D01*
X005621Y002910D02*
X005353Y002910D01*
X005354Y003009D02*
X005522Y003009D01*
X005423Y003107D02*
X005355Y003107D01*
X005356Y003206D02*
X005384Y003206D01*
X005383Y003305D02*
X005356Y003305D01*
X005357Y003403D02*
X005382Y003403D01*
X005381Y003502D02*
X005358Y003502D01*
X005359Y003600D02*
X005379Y003600D01*
X005378Y003699D02*
X005360Y003699D01*
X005361Y003797D02*
X005376Y003797D01*
X005375Y003896D02*
X005361Y003896D01*
X005362Y003994D02*
X005374Y003994D01*
X005363Y004093D02*
X005373Y004093D01*
X005364Y004191D02*
X005371Y004191D01*
X005365Y004290D02*
X005370Y004290D01*
X005565Y004679D02*
X005584Y003230D01*
X006982Y001832D01*
X007317Y001531D02*
X007647Y001531D01*
X007548Y001629D02*
X007415Y001629D01*
X007432Y001728D02*
X007532Y001728D01*
X007532Y001826D02*
X007432Y001826D01*
X007432Y001925D02*
X007532Y001925D01*
X007508Y002024D02*
X007427Y002024D01*
X007409Y002122D02*
X007328Y002122D01*
X007311Y002221D02*
X007230Y002221D01*
X007212Y002319D02*
X006778Y002319D01*
X006679Y002418D02*
X007114Y002418D01*
X007015Y002516D02*
X006581Y002516D01*
X006482Y002615D02*
X006917Y002615D01*
X006818Y002713D02*
X006384Y002713D01*
X006285Y002812D02*
X006719Y002812D01*
X006621Y002910D02*
X006187Y002910D01*
X006088Y003009D02*
X006522Y003009D01*
X006424Y003107D02*
X005989Y003107D01*
X005891Y003206D02*
X006325Y003206D01*
X006227Y003305D02*
X005792Y003305D01*
X005782Y003403D02*
X006128Y003403D01*
X006030Y003502D02*
X005781Y003502D01*
X005779Y003600D02*
X005931Y003600D01*
X005831Y003699D02*
X005778Y003699D01*
X005939Y003876D02*
X007982Y001832D01*
X008317Y001531D02*
X008363Y001531D01*
X008363Y001432D02*
X008218Y001432D01*
X008363Y001334D02*
X000601Y001334D01*
X000601Y001432D02*
X000746Y001432D01*
X000647Y001531D02*
X000601Y001531D01*
X000932Y001531D02*
X001032Y001531D01*
X001032Y001629D02*
X000932Y001629D01*
X000932Y001728D02*
X001032Y001728D01*
X001032Y001826D02*
X001532Y001826D01*
X001532Y001728D02*
X001432Y001728D01*
X001415Y001629D02*
X001548Y001629D01*
X001647Y001531D02*
X001317Y001531D01*
X001218Y001432D02*
X001746Y001432D01*
X001748Y001235D02*
X001215Y001235D01*
X001314Y001137D02*
X001650Y001137D01*
X001551Y001038D02*
X001412Y001038D01*
X001432Y000940D02*
X001532Y000940D01*
X001532Y000841D02*
X001432Y000841D01*
X001432Y000742D02*
X001532Y000742D01*
X001534Y000644D02*
X001430Y000644D01*
X000650Y001137D02*
X000601Y001137D01*
X000601Y001235D02*
X000748Y001235D01*
X000932Y001432D02*
X001032Y001432D01*
X001032Y001925D02*
X000932Y001925D01*
X000932Y002024D02*
X001032Y002024D01*
X001032Y002122D02*
X000932Y002122D01*
X000932Y002221D02*
X001032Y002221D01*
X001230Y002221D02*
X001734Y002221D01*
X001635Y002122D02*
X001328Y002122D01*
X001427Y002024D02*
X001537Y002024D01*
X001532Y001925D02*
X001432Y001925D01*
X001982Y001864D02*
X001982Y001832D01*
X001982Y001864D02*
X003576Y003458D01*
X003576Y005053D01*
X003576Y005072D01*
X003846Y005275D02*
X004114Y005275D01*
X004058Y005177D02*
X003902Y005177D01*
X003924Y005078D02*
X004035Y005078D01*
X004383Y005053D02*
X004364Y002214D01*
X003982Y001832D01*
X004317Y001531D02*
X004647Y001531D01*
X004548Y001629D02*
X004415Y001629D01*
X004432Y001728D02*
X004532Y001728D01*
X004532Y001826D02*
X004432Y001826D01*
X004432Y001925D02*
X004532Y001925D01*
X004537Y002024D02*
X004456Y002024D01*
X004555Y002122D02*
X004557Y002122D01*
X004757Y002057D02*
X004982Y001832D01*
X004757Y002057D02*
X004777Y004698D01*
X005519Y005078D02*
X005610Y005078D01*
X005641Y005177D02*
X005488Y005177D01*
X005421Y005275D02*
X005708Y005275D01*
X005958Y005033D02*
X005939Y003876D01*
X006141Y003994D02*
X008363Y003994D01*
X008363Y003896D02*
X006201Y003896D01*
X006300Y003797D02*
X008363Y003797D01*
X008363Y003699D02*
X006398Y003699D01*
X006497Y003600D02*
X008363Y003600D01*
X008363Y003502D02*
X006595Y003502D01*
X006694Y003403D02*
X008363Y003403D01*
X008363Y003305D02*
X006792Y003305D01*
X006891Y003206D02*
X008363Y003206D01*
X008363Y003107D02*
X006989Y003107D01*
X007088Y003009D02*
X008363Y003009D01*
X008363Y002910D02*
X007187Y002910D01*
X007285Y002812D02*
X008363Y002812D01*
X008363Y002713D02*
X007384Y002713D01*
X007482Y002615D02*
X008363Y002615D01*
X008363Y002516D02*
X007581Y002516D01*
X007679Y002418D02*
X008363Y002418D01*
X008363Y002319D02*
X007778Y002319D01*
X008230Y002221D02*
X008363Y002221D01*
X008363Y002122D02*
X008328Y002122D01*
X007746Y001432D02*
X007218Y001432D01*
X007215Y001235D02*
X007748Y001235D01*
X007650Y001137D02*
X007314Y001137D01*
X007412Y001038D02*
X007551Y001038D01*
X007532Y000940D02*
X007432Y000940D01*
X007432Y000841D02*
X007532Y000841D01*
X007532Y000742D02*
X007432Y000742D01*
X007430Y000644D02*
X007534Y000644D01*
X008314Y001137D02*
X008363Y001137D01*
X008363Y001235D02*
X008215Y001235D01*
X006748Y001235D02*
X006215Y001235D01*
X006314Y001137D02*
X006650Y001137D01*
X006551Y001038D02*
X006412Y001038D01*
X006432Y000940D02*
X006532Y000940D01*
X006532Y000841D02*
X006432Y000841D01*
X006432Y000742D02*
X006532Y000742D01*
X006534Y000644D02*
X006430Y000644D01*
X005748Y001235D02*
X005215Y001235D01*
X005314Y001137D02*
X005650Y001137D01*
X005551Y001038D02*
X005412Y001038D01*
X005432Y000940D02*
X005532Y000940D01*
X005532Y000841D02*
X005432Y000841D01*
X005432Y000742D02*
X005532Y000742D01*
X005534Y000644D02*
X005430Y000644D01*
X004748Y001235D02*
X004215Y001235D01*
X004314Y001137D02*
X004650Y001137D01*
X004551Y001038D02*
X004412Y001038D01*
X004432Y000940D02*
X004532Y000940D01*
X004532Y000841D02*
X004432Y000841D01*
X004432Y000742D02*
X004532Y000742D01*
X004534Y000644D02*
X004430Y000644D01*
X003748Y001235D02*
X003215Y001235D01*
X003314Y001137D02*
X003650Y001137D01*
X003551Y001038D02*
X003412Y001038D01*
X003432Y000940D02*
X003532Y000940D01*
X003532Y000841D02*
X003432Y000841D01*
X003432Y000742D02*
X003532Y000742D01*
X003534Y000644D02*
X003430Y000644D01*
X002748Y001235D02*
X002215Y001235D01*
X002314Y001137D02*
X002650Y001137D01*
X002551Y001038D02*
X002412Y001038D01*
X002432Y000940D02*
X002532Y000940D01*
X002532Y000841D02*
X002432Y000841D01*
X002432Y000742D02*
X002532Y000742D01*
X002534Y000644D02*
X002430Y000644D01*
X002218Y001432D02*
X002746Y001432D01*
X002647Y001531D02*
X002317Y001531D01*
X002415Y001629D02*
X002548Y001629D01*
X002532Y001728D02*
X002432Y001728D01*
X002432Y001826D02*
X002532Y001826D01*
X002532Y001925D02*
X002432Y001925D01*
X002427Y002024D02*
X002537Y002024D01*
X002523Y002122D02*
X002635Y002122D01*
X002622Y002221D02*
X002734Y002221D01*
X002720Y002319D02*
X003186Y002319D01*
X003284Y002418D02*
X002819Y002418D01*
X002917Y002516D02*
X003383Y002516D01*
X003482Y002615D02*
X003016Y002615D01*
X003114Y002713D02*
X003580Y002713D01*
X003679Y002812D02*
X003213Y002812D01*
X003311Y002910D02*
X003770Y002910D01*
X003770Y003009D02*
X003410Y003009D01*
X003508Y003107D02*
X003770Y003107D01*
X003770Y003206D02*
X003607Y003206D01*
X003705Y003305D02*
X003770Y003305D01*
X003337Y003502D02*
X000601Y003502D01*
X000601Y003600D02*
X003376Y003600D01*
X003376Y003699D02*
X000601Y003699D01*
X000601Y003797D02*
X003376Y003797D01*
X003376Y003896D02*
X000601Y003896D01*
X000601Y003994D02*
X003376Y003994D01*
X003376Y004093D02*
X000601Y004093D01*
X000601Y004191D02*
X003376Y004191D01*
X003376Y004290D02*
X000601Y004290D01*
X000601Y004389D02*
X003376Y004389D01*
X003376Y004487D02*
X000601Y004487D01*
X000601Y004586D02*
X003376Y004586D01*
X003376Y004684D02*
X000601Y004684D01*
X000601Y005571D02*
X008363Y005571D01*
X008363Y005670D02*
X000601Y005670D01*
X000601Y005768D02*
X008363Y005768D01*
X008363Y005867D02*
X000601Y005867D01*
X000601Y005965D02*
X008363Y005965D01*
X008363Y005275D02*
X006208Y005275D01*
X006275Y005177D02*
X008363Y005177D01*
X008363Y005078D02*
X006306Y005078D01*
X006306Y004980D02*
X008363Y004980D01*
X008363Y004881D02*
X006272Y004881D01*
X006200Y004783D02*
X008363Y004783D01*
X008363Y004684D02*
X006152Y004684D01*
X006151Y004586D02*
X008363Y004586D01*
X008363Y004487D02*
X006149Y004487D01*
X006147Y004389D02*
X008363Y004389D01*
X008363Y004290D02*
X006146Y004290D01*
X006144Y004191D02*
X008363Y004191D01*
X008363Y004093D02*
X006142Y004093D01*
X004249Y005374D02*
X003710Y005374D01*
X003990Y004698D02*
X003970Y004620D01*
X003970Y002820D01*
X002982Y001832D01*
X003317Y001531D02*
X003647Y001531D01*
X003548Y001629D02*
X003415Y001629D01*
X003432Y001728D02*
X003532Y001728D01*
X003532Y001826D02*
X003432Y001826D01*
X003432Y001925D02*
X003532Y001925D01*
X003537Y002024D02*
X003456Y002024D01*
X003554Y002122D02*
X003635Y002122D01*
X003653Y002221D02*
X003734Y002221D01*
X003752Y002319D02*
X004165Y002319D01*
X004165Y002418D02*
X003850Y002418D01*
X003949Y002516D02*
X004166Y002516D01*
X004167Y002615D02*
X004047Y002615D01*
X004146Y002713D02*
X004167Y002713D01*
X004961Y002516D02*
X005015Y002516D01*
X004960Y002418D02*
X005114Y002418D01*
X005212Y002319D02*
X004959Y002319D01*
X005230Y002221D02*
X005311Y002221D01*
X005328Y002122D02*
X005409Y002122D01*
X005427Y002024D02*
X005508Y002024D01*
X005532Y001925D02*
X005432Y001925D01*
X005432Y001826D02*
X005532Y001826D01*
X005532Y001728D02*
X005432Y001728D01*
X005415Y001629D02*
X005548Y001629D01*
X005647Y001531D02*
X005317Y001531D01*
X005218Y001432D02*
X005746Y001432D01*
X006218Y001432D02*
X006746Y001432D01*
X004746Y001432D02*
X004218Y001432D01*
X003746Y001432D02*
X003218Y001432D01*
X002154Y002319D02*
X000601Y002319D01*
X000601Y002418D02*
X002253Y002418D01*
X002351Y002516D02*
X000601Y002516D01*
X000601Y002615D02*
X002450Y002615D01*
X002549Y002713D02*
X000601Y002713D01*
X000601Y002812D02*
X002647Y002812D01*
X002746Y002910D02*
X000601Y002910D01*
X000601Y003009D02*
X002844Y003009D01*
X002943Y003107D02*
X000601Y003107D01*
X000601Y003206D02*
X003041Y003206D01*
X003140Y003305D02*
X000601Y003305D01*
X000601Y003403D02*
X003238Y003403D01*
X000734Y002221D02*
X000601Y002221D01*
X000601Y002122D02*
X000635Y002122D01*
D12*
X003202Y004698D03*
X003576Y005053D03*
X003990Y004698D03*
X004383Y005053D03*
X004777Y004698D03*
X005171Y005033D03*
X005565Y004679D03*
X005958Y005033D03*
M02*
