G75*
G70*
%OFA0B0*%
%FSLAX24Y24*%
%IPPOS*%
%LPD*%
%AMOC8*
5,1,8,0,0,1.08239X$1,22.5*
%
%ADD10R,0.0110X0.0630*%
%ADD11R,0.0866X0.1181*%
%ADD12OC8,0.0600*%
%ADD13C,0.0396*%
%ADD14C,0.0100*%
D10*
X003006Y004088D03*
X003202Y004088D03*
X003399Y004088D03*
X003596Y004088D03*
X003793Y004088D03*
X003990Y004088D03*
X004187Y004088D03*
X004383Y004088D03*
X004580Y004088D03*
X004777Y004088D03*
X004974Y004088D03*
X005171Y004088D03*
X005368Y004088D03*
X005565Y004088D03*
X005761Y004088D03*
X005958Y004088D03*
D11*
X006883Y004915D03*
X002080Y004915D03*
D12*
X000982Y000832D03*
X001982Y000832D03*
X002982Y000832D03*
X003982Y000832D03*
X004982Y000832D03*
X005982Y000832D03*
X006982Y000832D03*
X007982Y000832D03*
X007982Y001832D03*
X006982Y001832D03*
X005982Y001832D03*
X004982Y001832D03*
X003982Y001832D03*
X002982Y001832D03*
X001982Y001832D03*
X000982Y001832D03*
D13*
X003202Y004698D03*
X003576Y005053D03*
X003990Y004698D03*
X004383Y005053D03*
X004777Y004698D03*
X005171Y005033D03*
X005565Y004679D03*
X005958Y005033D03*
D14*
X005958Y004088D01*
X005761Y004088D02*
X005761Y003714D01*
X006844Y002631D01*
X007946Y002631D01*
X008498Y002080D01*
X008498Y001348D01*
X007982Y000832D01*
X007474Y001324D02*
X006982Y000832D01*
X007474Y001324D02*
X007474Y002080D01*
X007238Y002317D01*
X006726Y002317D01*
X005368Y003675D01*
X005368Y004088D01*
X005171Y004088D02*
X005171Y005033D01*
X005421Y005275D02*
X005708Y005275D01*
X005663Y005230D02*
X005610Y005102D01*
X005610Y005027D01*
X005519Y005027D01*
X005519Y005102D01*
X005466Y005230D01*
X005368Y005328D01*
X005240Y005381D01*
X005102Y005381D01*
X004974Y005328D01*
X004876Y005230D01*
X004823Y005102D01*
X004823Y005046D01*
X004732Y005046D01*
X004732Y005122D01*
X004679Y005250D01*
X004581Y005348D01*
X004453Y005401D01*
X004314Y005401D01*
X004186Y005348D01*
X004088Y005250D01*
X004035Y005122D01*
X004035Y005046D01*
X003924Y005046D01*
X003924Y005122D01*
X003871Y005250D01*
X003774Y005348D01*
X003646Y005401D01*
X003507Y005401D01*
X003379Y005348D01*
X003281Y005250D01*
X003228Y005122D01*
X003228Y004983D01*
X003281Y004856D01*
X003376Y004760D01*
X003376Y004553D01*
X003282Y004553D01*
X003281Y004552D01*
X003277Y004553D01*
X003203Y004553D01*
X003203Y004474D01*
X003202Y004474D01*
X003202Y004553D01*
X003127Y004553D01*
X003124Y004552D01*
X003123Y004553D01*
X002888Y004553D01*
X002800Y004465D01*
X002800Y003713D01*
X001368Y002280D01*
X001269Y002182D01*
X001168Y002282D01*
X001032Y002282D01*
X001032Y001882D01*
X000932Y001882D01*
X000932Y002282D01*
X000795Y002282D01*
X000601Y002088D01*
X000601Y006000D01*
X008363Y006000D01*
X008363Y002498D01*
X008029Y002831D01*
X007864Y002831D01*
X006927Y002831D01*
X006105Y003653D01*
X006163Y003711D01*
X006163Y004465D01*
X006158Y004470D01*
X006158Y004741D01*
X006253Y004836D01*
X006306Y004964D01*
X006306Y004965D01*
X006833Y004965D01*
X006833Y004865D01*
X006300Y004865D01*
X006300Y004305D01*
X006311Y004266D01*
X006330Y004232D01*
X006358Y004204D01*
X006392Y004185D01*
X006431Y004174D01*
X006834Y004174D01*
X006834Y004865D01*
X006933Y004865D01*
X006933Y004174D01*
X007336Y004174D01*
X007374Y004185D01*
X007409Y004204D01*
X007437Y004232D01*
X007456Y004266D01*
X007466Y004305D01*
X007466Y004865D01*
X006934Y004865D01*
X006934Y004965D01*
X007466Y004965D01*
X007466Y005525D01*
X007456Y005563D01*
X007437Y005598D01*
X007409Y005626D01*
X007374Y005645D01*
X007336Y005655D01*
X006933Y005655D01*
X006933Y004965D01*
X006834Y004965D01*
X006834Y005655D01*
X006431Y005655D01*
X006392Y005645D01*
X006358Y005626D01*
X006330Y005598D01*
X006311Y005563D01*
X006300Y005525D01*
X006300Y005117D01*
X006253Y005230D01*
X006155Y005328D01*
X006028Y005381D01*
X005889Y005381D01*
X005761Y005328D01*
X005663Y005230D01*
X005641Y005177D02*
X005488Y005177D01*
X005519Y005078D02*
X005610Y005078D01*
X005872Y005374D02*
X005257Y005374D01*
X005084Y005374D02*
X004518Y005374D01*
X004653Y005275D02*
X004921Y005275D01*
X004854Y005177D02*
X004709Y005177D01*
X004732Y005078D02*
X004823Y005078D01*
X004777Y004698D02*
X004777Y004088D01*
X004580Y004088D02*
X004580Y002966D01*
X005466Y002080D01*
X005466Y001317D01*
X004982Y000832D01*
X004482Y001332D02*
X003982Y000832D01*
X003458Y001309D02*
X002982Y000832D01*
X003458Y001309D02*
X003458Y002080D01*
X003793Y002415D01*
X003793Y004088D01*
X003990Y004088D02*
X003990Y004679D01*
X003990Y004698D01*
X004035Y005078D02*
X003924Y005078D01*
X003902Y005177D02*
X004058Y005177D01*
X004114Y005275D02*
X003846Y005275D01*
X003710Y005374D02*
X004249Y005374D01*
X004383Y005053D02*
X004383Y005033D01*
X004383Y004088D01*
X004187Y004088D02*
X004187Y002415D01*
X004482Y002120D01*
X004482Y001332D01*
X005982Y000832D02*
X006490Y001340D01*
X006490Y002080D01*
X004974Y003596D01*
X004974Y004088D01*
X005565Y004088D02*
X005565Y004679D01*
X006158Y004684D02*
X006300Y004684D01*
X006300Y004586D02*
X006158Y004586D01*
X006158Y004487D02*
X006300Y004487D01*
X006300Y004389D02*
X006163Y004389D01*
X006163Y004290D02*
X006304Y004290D01*
X006381Y004191D02*
X006163Y004191D01*
X006163Y004093D02*
X008363Y004093D01*
X008363Y004191D02*
X007386Y004191D01*
X007463Y004290D02*
X008363Y004290D01*
X008363Y004389D02*
X007466Y004389D01*
X007466Y004487D02*
X008363Y004487D01*
X008363Y004586D02*
X007466Y004586D01*
X007466Y004684D02*
X008363Y004684D01*
X008363Y004783D02*
X007466Y004783D01*
X007466Y004980D02*
X008363Y004980D01*
X008363Y005078D02*
X007466Y005078D01*
X007466Y005177D02*
X008363Y005177D01*
X008363Y005275D02*
X007466Y005275D01*
X007466Y005374D02*
X008363Y005374D01*
X008363Y005473D02*
X007466Y005473D01*
X007452Y005571D02*
X008363Y005571D01*
X008363Y005670D02*
X000601Y005670D01*
X000601Y005571D02*
X001512Y005571D01*
X001507Y005563D02*
X001497Y005525D01*
X001497Y004965D01*
X002030Y004965D01*
X002030Y004865D01*
X001497Y004865D01*
X001497Y004305D01*
X001507Y004266D01*
X001527Y004232D01*
X001555Y004204D01*
X001589Y004185D01*
X001627Y004174D01*
X002030Y004174D01*
X002030Y004865D01*
X002130Y004865D01*
X002130Y004174D01*
X002533Y004174D01*
X002571Y004185D01*
X002605Y004204D01*
X002633Y004232D01*
X002653Y004266D01*
X002663Y004305D01*
X002663Y004865D01*
X002130Y004865D01*
X002130Y004965D01*
X002030Y004965D01*
X002030Y005655D01*
X001627Y005655D01*
X001589Y005645D01*
X001555Y005626D01*
X001527Y005598D01*
X001507Y005563D01*
X001497Y005473D02*
X000601Y005473D01*
X000601Y005374D02*
X001497Y005374D01*
X001497Y005275D02*
X000601Y005275D01*
X000601Y005177D02*
X001497Y005177D01*
X001497Y005078D02*
X000601Y005078D01*
X000601Y004980D02*
X001497Y004980D01*
X001497Y004783D02*
X000601Y004783D01*
X000601Y004881D02*
X002030Y004881D01*
X002080Y004915D02*
X002986Y004915D01*
X002986Y005328D01*
X003104Y005446D01*
X006234Y005446D01*
X006765Y004915D01*
X006883Y004915D01*
X006833Y004881D02*
X006272Y004881D01*
X006300Y004783D02*
X006200Y004783D01*
X006275Y005177D02*
X006300Y005177D01*
X006300Y005275D02*
X006208Y005275D01*
X006300Y005374D02*
X006045Y005374D01*
X006300Y005473D02*
X002663Y005473D01*
X002663Y005525D02*
X002653Y005563D01*
X002633Y005598D01*
X002605Y005626D01*
X002571Y005645D01*
X002533Y005655D01*
X002130Y005655D01*
X002130Y004965D01*
X002663Y004965D01*
X002663Y005525D01*
X002649Y005571D02*
X006315Y005571D01*
X006834Y005571D02*
X006933Y005571D01*
X006933Y005473D02*
X006834Y005473D01*
X006834Y005374D02*
X006933Y005374D01*
X006933Y005275D02*
X006834Y005275D01*
X006834Y005177D02*
X006933Y005177D01*
X006933Y005078D02*
X006834Y005078D01*
X006834Y004980D02*
X006933Y004980D01*
X006934Y004881D02*
X008363Y004881D01*
X008363Y003994D02*
X006163Y003994D01*
X006163Y003896D02*
X008363Y003896D01*
X008363Y003797D02*
X006163Y003797D01*
X006151Y003699D02*
X008363Y003699D01*
X008363Y003600D02*
X006158Y003600D01*
X006257Y003502D02*
X008363Y003502D01*
X008363Y003403D02*
X006355Y003403D01*
X006454Y003305D02*
X008363Y003305D01*
X008363Y003206D02*
X006552Y003206D01*
X006651Y003107D02*
X008363Y003107D01*
X008363Y003009D02*
X006749Y003009D01*
X006848Y002910D02*
X008363Y002910D01*
X008363Y002812D02*
X008049Y002812D01*
X008147Y002713D02*
X008363Y002713D01*
X008363Y002615D02*
X008246Y002615D01*
X008345Y002516D02*
X008363Y002516D01*
X006933Y004191D02*
X006834Y004191D01*
X006834Y004290D02*
X006933Y004290D01*
X006933Y004389D02*
X006834Y004389D01*
X006834Y004487D02*
X006933Y004487D01*
X006933Y004586D02*
X006834Y004586D01*
X006834Y004684D02*
X006933Y004684D01*
X006933Y004783D02*
X006834Y004783D01*
X008363Y005768D02*
X000601Y005768D01*
X000601Y005867D02*
X008363Y005867D01*
X008363Y005965D02*
X000601Y005965D01*
X002030Y005571D02*
X002130Y005571D01*
X002130Y005473D02*
X002030Y005473D01*
X002030Y005374D02*
X002130Y005374D01*
X002130Y005275D02*
X002030Y005275D01*
X002030Y005177D02*
X002130Y005177D01*
X002130Y005078D02*
X002030Y005078D01*
X002030Y004980D02*
X002130Y004980D01*
X002130Y004881D02*
X003271Y004881D01*
X003354Y004783D02*
X002663Y004783D01*
X002663Y004684D02*
X003376Y004684D01*
X003376Y004586D02*
X002663Y004586D01*
X002663Y004487D02*
X002822Y004487D01*
X002800Y004389D02*
X002663Y004389D01*
X002659Y004290D02*
X002800Y004290D01*
X002800Y004191D02*
X002583Y004191D01*
X002800Y004093D02*
X000601Y004093D01*
X000601Y004191D02*
X001577Y004191D01*
X001501Y004290D02*
X000601Y004290D01*
X000601Y004389D02*
X001497Y004389D01*
X001497Y004487D02*
X000601Y004487D01*
X000601Y004586D02*
X001497Y004586D01*
X001497Y004684D02*
X000601Y004684D01*
X000601Y003994D02*
X002800Y003994D01*
X002800Y003896D02*
X000601Y003896D01*
X000601Y003797D02*
X002800Y003797D01*
X002786Y003699D02*
X000601Y003699D01*
X000601Y003600D02*
X002687Y003600D01*
X002589Y003502D02*
X000601Y003502D01*
X000601Y003403D02*
X002490Y003403D01*
X002392Y003305D02*
X000601Y003305D01*
X000601Y003206D02*
X002293Y003206D01*
X002195Y003107D02*
X000601Y003107D01*
X000601Y003009D02*
X002096Y003009D01*
X001998Y002910D02*
X000601Y002910D01*
X000601Y002812D02*
X001899Y002812D01*
X001801Y002713D02*
X000601Y002713D01*
X000601Y002615D02*
X001702Y002615D01*
X001603Y002516D02*
X000601Y002516D01*
X000601Y002418D02*
X001505Y002418D01*
X001406Y002319D02*
X000601Y002319D01*
X000601Y002221D02*
X000734Y002221D01*
X000635Y002122D02*
X000601Y002122D01*
X000932Y002122D02*
X001032Y002122D01*
X001032Y002221D02*
X000932Y002221D01*
X000932Y002024D02*
X001032Y002024D01*
X001032Y001925D02*
X000932Y001925D01*
X000932Y001782D02*
X001032Y001782D01*
X001032Y001382D01*
X001168Y001382D01*
X001250Y001464D01*
X001250Y001384D01*
X001149Y001282D01*
X000795Y001282D01*
X000601Y001088D01*
X000601Y001577D01*
X000795Y001382D01*
X000932Y001382D01*
X000932Y001782D01*
X000932Y001728D02*
X001032Y001728D01*
X001032Y001629D02*
X000932Y001629D01*
X000932Y001531D02*
X001032Y001531D01*
X001032Y001432D02*
X000932Y001432D01*
X000746Y001432D02*
X000601Y001432D01*
X000601Y001334D02*
X001200Y001334D01*
X001218Y001432D02*
X001250Y001432D01*
X001450Y001301D02*
X000982Y000832D01*
X000650Y001137D02*
X000601Y001137D01*
X000601Y001235D02*
X000748Y001235D01*
X000647Y001531D02*
X000601Y001531D01*
X001450Y001301D02*
X001450Y002080D01*
X003006Y003635D01*
X003006Y004088D01*
X003202Y004088D02*
X003202Y004698D01*
X002986Y004915D01*
X003228Y005078D02*
X002663Y005078D01*
X002663Y004980D02*
X003230Y004980D01*
X003251Y005177D02*
X002663Y005177D01*
X002663Y005275D02*
X003307Y005275D01*
X003442Y005374D02*
X002663Y005374D01*
X002130Y004783D02*
X002030Y004783D01*
X002030Y004684D02*
X002130Y004684D01*
X002130Y004586D02*
X002030Y004586D01*
X002030Y004487D02*
X002130Y004487D01*
X002130Y004389D02*
X002030Y004389D01*
X002030Y004290D02*
X002130Y004290D01*
X002130Y004191D02*
X002030Y004191D01*
X003202Y004474D02*
X003202Y004474D01*
X003202Y004487D02*
X003203Y004487D01*
X003576Y004108D02*
X003596Y004088D01*
X003576Y004108D02*
X003576Y005053D01*
X003399Y004088D02*
X003399Y003006D01*
X002474Y002080D01*
X002474Y001324D01*
X001982Y000832D01*
X001308Y002221D02*
X001230Y002221D01*
M02*
