G75*
G70*
%OFA0B0*%
%FSLAX24Y24*%
%IPPOS*%
%LPD*%
%AMOC8*
5,1,8,0,0,1.08239X$1,22.5*
%
%ADD10R,0.0110X0.0630*%
%ADD11R,0.0866X0.1102*%
%ADD12R,0.0315X0.0276*%
%ADD13R,0.0433X0.0394*%
%ADD14R,0.0394X0.0591*%
%ADD15C,0.0100*%
%ADD16C,0.0236*%
%ADD17C,0.0079*%
D10*
X002317Y004454D03*
X002513Y004454D03*
X002710Y004454D03*
X002907Y004454D03*
X003104Y004454D03*
X003301Y004454D03*
X003498Y004454D03*
X003694Y004454D03*
X003891Y004454D03*
X004088Y004454D03*
X004285Y004454D03*
X004482Y004454D03*
X004679Y004454D03*
X004876Y004454D03*
X005072Y004454D03*
X005269Y004454D03*
X005466Y004454D03*
X005663Y004454D03*
X005860Y004454D03*
X006057Y004454D03*
X006254Y004454D03*
X006450Y004454D03*
X006647Y004454D03*
X006844Y004454D03*
D11*
X007769Y005242D03*
X001391Y005242D03*
D12*
X002021Y003214D03*
X002533Y003214D03*
X003006Y003214D03*
X003478Y003214D03*
X003950Y003214D03*
X004620Y003214D03*
X004620Y002703D03*
X003950Y002703D03*
X003478Y002703D03*
X003006Y002703D03*
X002533Y002703D03*
X002021Y002703D03*
X002533Y002250D03*
X002533Y001738D03*
X008104Y001521D03*
X008104Y002033D03*
D13*
X001982Y002191D03*
X001982Y001521D03*
D14*
X006943Y001403D03*
X007494Y001403D03*
X007494Y002191D03*
X006943Y002191D03*
D15*
X000398Y003125D02*
X000398Y000489D01*
X008566Y000489D01*
X008566Y003125D01*
X008486Y003045D01*
X008251Y002948D01*
X007996Y002948D01*
X007761Y003045D01*
X007581Y003225D01*
X007483Y003461D01*
X007483Y003716D01*
X007581Y003951D01*
X007761Y004131D01*
X007996Y004229D01*
X008251Y004229D01*
X008486Y004131D01*
X008566Y004052D01*
X008566Y007259D01*
X008486Y007179D01*
X008251Y007082D01*
X007996Y007082D01*
X007761Y007179D01*
X007581Y007359D01*
X007483Y007595D01*
X007483Y007850D01*
X007581Y008085D01*
X007758Y008263D01*
X001205Y008263D01*
X001383Y008085D01*
X001481Y007850D01*
X001481Y007595D01*
X001383Y007359D01*
X001203Y007179D01*
X000968Y007082D01*
X000713Y007082D01*
X000477Y007179D01*
X000398Y007259D01*
X000398Y004052D01*
X000477Y004131D01*
X000713Y004229D01*
X000968Y004229D01*
X001203Y004131D01*
X001383Y003951D01*
X001478Y003722D01*
X001525Y003769D01*
X001596Y003839D01*
X001596Y003878D01*
X001636Y003976D01*
X001712Y004052D01*
X001810Y004093D01*
X001917Y004093D01*
X002016Y004052D01*
X002091Y003976D01*
X002132Y003878D01*
X002132Y003847D01*
X002234Y003847D01*
X002376Y003990D01*
X002199Y003990D01*
X002111Y004077D01*
X002111Y004832D01*
X002199Y004919D01*
X002434Y004919D01*
X002435Y004918D01*
X002439Y004919D01*
X002510Y004919D01*
X002510Y005100D01*
X002510Y005266D01*
X002560Y005316D01*
X002560Y005354D01*
X002601Y005453D01*
X002676Y005528D01*
X002775Y005569D01*
X002882Y005569D01*
X002980Y005528D01*
X003056Y005453D01*
X003089Y005372D01*
X003157Y005372D01*
X003256Y005331D01*
X003331Y005256D01*
X003372Y005157D01*
X003372Y005051D01*
X003331Y004952D01*
X003304Y004925D01*
X003304Y004919D01*
X003418Y004919D01*
X003615Y004919D01*
X003812Y004919D01*
X004009Y004919D01*
X004205Y004919D01*
X004268Y004919D01*
X004255Y004933D01*
X004214Y005031D01*
X004214Y005138D01*
X004255Y005236D01*
X004330Y005312D01*
X004429Y005352D01*
X004489Y005352D01*
X004489Y005394D01*
X004530Y005492D01*
X004606Y005568D01*
X004704Y005608D01*
X004811Y005608D01*
X004909Y005568D01*
X004985Y005492D01*
X005026Y005394D01*
X005026Y005340D01*
X005045Y005320D01*
X005045Y005163D01*
X005045Y004986D01*
X004978Y004919D01*
X004993Y004919D01*
X004994Y004918D01*
X004998Y004919D01*
X005072Y004919D01*
X005072Y004840D01*
X005072Y004840D01*
X005073Y004840D01*
X005073Y004919D01*
X005147Y004919D01*
X005151Y004918D01*
X005152Y004919D01*
X005266Y004919D01*
X005266Y004925D01*
X005239Y004952D01*
X005198Y005051D01*
X005198Y005157D01*
X005239Y005256D01*
X005314Y005331D01*
X005413Y005372D01*
X005519Y005372D01*
X005618Y005331D01*
X005693Y005256D01*
X005734Y005157D01*
X005734Y005051D01*
X005693Y004952D01*
X005666Y004925D01*
X005666Y004919D01*
X005743Y004919D01*
X005939Y004919D01*
X006136Y004919D01*
X006371Y004919D01*
X006530Y004919D01*
X006727Y004919D01*
X006961Y004919D01*
X007049Y004832D01*
X007049Y004077D01*
X006961Y003990D01*
X006727Y003990D01*
X006650Y003990D01*
X006650Y002603D01*
X006684Y002636D01*
X006753Y002636D01*
X006753Y003025D01*
X006715Y003062D01*
X006674Y003161D01*
X006674Y003268D01*
X006715Y003366D01*
X006791Y003442D01*
X006889Y003482D01*
X006996Y003482D01*
X007094Y003442D01*
X007170Y003366D01*
X007211Y003268D01*
X007211Y003161D01*
X007170Y003062D01*
X007132Y003025D01*
X007132Y002636D01*
X007201Y002636D01*
X007222Y002616D01*
X007239Y002626D01*
X007277Y002636D01*
X007445Y002636D01*
X007445Y002239D01*
X007542Y002239D01*
X007542Y002636D01*
X007710Y002636D01*
X007748Y002626D01*
X007783Y002606D01*
X007811Y002578D01*
X007830Y002544D01*
X007841Y002506D01*
X007841Y002277D01*
X007854Y002291D01*
X007889Y002311D01*
X007927Y002321D01*
X008085Y002321D01*
X008085Y002052D01*
X008123Y002052D01*
X008411Y002052D01*
X008411Y002191D01*
X008401Y002229D01*
X008381Y002263D01*
X008354Y002291D01*
X008319Y002311D01*
X008281Y002321D01*
X008123Y002321D01*
X008123Y002052D01*
X008123Y002014D01*
X008411Y002014D01*
X008411Y001876D01*
X008401Y001838D01*
X008381Y001803D01*
X008355Y001777D01*
X008411Y001721D01*
X008411Y001321D01*
X008324Y001234D01*
X008304Y001234D01*
X008304Y001092D01*
X008304Y000927D01*
X008166Y000789D01*
X008049Y000672D01*
X007143Y000672D01*
X006978Y000672D01*
X006860Y000790D01*
X006743Y000907D01*
X006743Y000958D01*
X006684Y000958D01*
X006596Y001046D01*
X006596Y001203D01*
X004919Y001203D01*
X004753Y001203D01*
X004285Y001672D01*
X004210Y001597D01*
X004045Y001597D01*
X003559Y001597D01*
X003531Y001570D01*
X003433Y001529D01*
X003326Y001529D01*
X003228Y001570D01*
X003152Y001645D01*
X003111Y001744D01*
X003111Y001782D01*
X002832Y002061D01*
X002830Y002054D01*
X002811Y002020D01*
X002785Y001994D01*
X002841Y001938D01*
X002841Y001538D01*
X002753Y001450D01*
X002705Y001450D01*
X002694Y001439D01*
X002577Y001321D01*
X002348Y001321D01*
X002348Y001262D01*
X002261Y001175D01*
X001703Y001175D01*
X001615Y001262D01*
X001615Y001321D01*
X001604Y001321D01*
X001525Y001400D01*
X001525Y001400D01*
X001408Y001517D01*
X001408Y003285D01*
X001383Y003225D01*
X001203Y003045D01*
X000968Y002948D01*
X000713Y002948D01*
X000477Y003045D01*
X000398Y003125D01*
X000398Y003100D02*
X000423Y003100D01*
X000398Y003001D02*
X000584Y003001D01*
X000398Y002903D02*
X001408Y002903D01*
X001408Y003001D02*
X001096Y003001D01*
X001257Y003100D02*
X001408Y003100D01*
X001408Y003198D02*
X001356Y003198D01*
X001408Y002804D02*
X000398Y002804D01*
X000398Y002705D02*
X001408Y002705D01*
X001408Y002607D02*
X000398Y002607D01*
X000398Y002508D02*
X001408Y002508D01*
X001408Y002410D02*
X000398Y002410D01*
X000398Y002311D02*
X001408Y002311D01*
X001408Y002213D02*
X000398Y002213D01*
X000398Y002114D02*
X001408Y002114D01*
X001408Y002016D02*
X000398Y002016D01*
X000398Y001917D02*
X001408Y001917D01*
X001408Y001819D02*
X000398Y001819D01*
X000398Y001720D02*
X001408Y001720D01*
X001408Y001621D02*
X000398Y001621D01*
X000398Y001523D02*
X001408Y001523D01*
X001501Y001424D02*
X000398Y001424D01*
X000398Y001326D02*
X001599Y001326D01*
X001650Y001227D02*
X000398Y001227D01*
X000398Y001129D02*
X006596Y001129D01*
X006611Y001030D02*
X000398Y001030D01*
X000398Y000932D02*
X006743Y000932D01*
X006816Y000833D02*
X000398Y000833D01*
X000398Y000735D02*
X006915Y000735D01*
X007061Y000872D02*
X006943Y000990D01*
X006943Y001403D01*
X004836Y001403D01*
X004285Y001954D01*
X004128Y001797D01*
X003380Y001797D01*
X003006Y002171D01*
X003006Y002703D01*
X002533Y002703D01*
X002021Y002703D01*
X002021Y002289D01*
X001982Y002250D01*
X001982Y002191D01*
X002533Y002250D02*
X002730Y002250D01*
X002809Y002171D01*
X002809Y001994D01*
X002966Y001836D01*
X002966Y001266D01*
X002680Y001424D02*
X004532Y001424D01*
X004631Y001326D02*
X002581Y001326D01*
X002494Y001521D02*
X001982Y001521D01*
X001687Y001521D01*
X001608Y001600D01*
X001608Y003569D01*
X001864Y003825D01*
X002081Y003987D02*
X002373Y003987D01*
X002356Y003923D02*
X002179Y003923D01*
X002128Y003888D02*
X002274Y003888D01*
X002356Y003923D02*
X002513Y004080D01*
X002513Y004454D01*
X002513Y005616D01*
X002336Y005616D01*
X002080Y005262D01*
X001391Y005242D01*
X001341Y005268D02*
X000398Y005268D01*
X000398Y005366D02*
X000808Y005366D01*
X000808Y005292D02*
X001341Y005292D01*
X001341Y005192D01*
X000808Y005192D01*
X000808Y004671D01*
X000819Y004633D01*
X000838Y004599D01*
X000866Y004571D01*
X000900Y004551D01*
X000939Y004541D01*
X001341Y004541D01*
X001341Y005192D01*
X001441Y005192D01*
X001441Y004541D01*
X001844Y004541D01*
X001882Y004551D01*
X001916Y004571D01*
X001944Y004599D01*
X001964Y004633D01*
X001974Y004671D01*
X001974Y005192D01*
X001441Y005192D01*
X001441Y005292D01*
X001341Y005292D01*
X001341Y005943D01*
X000939Y005943D01*
X000900Y005933D01*
X000866Y005913D01*
X000838Y005885D01*
X000819Y005851D01*
X000808Y005813D01*
X000808Y005292D01*
X000808Y005169D02*
X000398Y005169D01*
X000398Y005071D02*
X000808Y005071D01*
X000808Y004972D02*
X000398Y004972D01*
X000398Y004873D02*
X000808Y004873D01*
X000808Y004775D02*
X000398Y004775D01*
X000398Y004676D02*
X000808Y004676D01*
X000859Y004578D02*
X000398Y004578D01*
X000398Y004479D02*
X002111Y004479D01*
X002111Y004381D02*
X000398Y004381D01*
X000398Y004282D02*
X002111Y004282D01*
X002111Y004184D02*
X001077Y004184D01*
X001249Y004085D02*
X001792Y004085D01*
X001935Y004085D02*
X002111Y004085D01*
X001647Y003987D02*
X001348Y003987D01*
X001409Y003888D02*
X001600Y003888D01*
X001546Y003789D02*
X001450Y003789D01*
X002021Y003569D02*
X002100Y003647D01*
X002317Y003647D01*
X002710Y004041D01*
X002710Y004454D01*
X002710Y005183D01*
X002828Y005301D01*
X002613Y005465D02*
X001974Y005465D01*
X001974Y005563D02*
X002761Y005563D01*
X002896Y005563D02*
X004601Y005563D01*
X004519Y005465D02*
X003044Y005465D01*
X003172Y005366D02*
X004489Y005366D01*
X004286Y005268D02*
X003320Y005268D01*
X003367Y005169D02*
X004227Y005169D01*
X004214Y005071D02*
X003372Y005071D01*
X003339Y004972D02*
X004238Y004972D01*
X004482Y005084D02*
X004482Y004454D01*
X004285Y004454D02*
X004285Y001954D01*
X004085Y002037D02*
X004045Y001997D01*
X003559Y001997D01*
X003531Y002024D01*
X003433Y002065D01*
X003394Y002065D01*
X003205Y002254D01*
X003205Y002415D01*
X003225Y002415D01*
X003245Y002435D01*
X003263Y002425D01*
X003301Y002415D01*
X003459Y002415D01*
X003459Y002683D01*
X003497Y002683D01*
X003497Y002415D01*
X003655Y002415D01*
X003693Y002425D01*
X003714Y002437D01*
X003735Y002425D01*
X003773Y002415D01*
X003931Y002415D01*
X003931Y002683D01*
X003969Y002683D01*
X003969Y002415D01*
X004085Y002415D01*
X004085Y002037D01*
X004085Y002037D01*
X004063Y002016D02*
X003540Y002016D01*
X003714Y002073D02*
X003714Y002663D01*
X003675Y002703D01*
X003478Y002703D01*
X003497Y002705D02*
X003931Y002705D01*
X003931Y002721D02*
X003931Y002684D01*
X003643Y002684D01*
X003497Y002684D01*
X003497Y002721D01*
X003643Y002721D01*
X003931Y002721D01*
X003950Y002703D02*
X003675Y002703D01*
X003497Y002607D02*
X003459Y002607D01*
X003459Y002508D02*
X003497Y002508D01*
X003205Y002410D02*
X004085Y002410D01*
X004085Y002311D02*
X003205Y002311D01*
X003247Y002213D02*
X004085Y002213D01*
X004085Y002114D02*
X003345Y002114D01*
X002977Y001917D02*
X002841Y001917D01*
X002806Y002016D02*
X002878Y002016D01*
X002806Y002231D02*
X002552Y002231D01*
X002552Y002269D01*
X002806Y002269D01*
X002806Y002254D01*
X002806Y002231D01*
X002841Y001819D02*
X003075Y001819D01*
X003121Y001720D02*
X002841Y001720D01*
X002841Y001621D02*
X003176Y001621D01*
X002825Y001523D02*
X004434Y001523D01*
X004335Y001621D02*
X004235Y001621D01*
X004729Y001227D02*
X002313Y001227D01*
X002494Y001521D02*
X002533Y001561D01*
X002533Y001738D01*
X003931Y002508D02*
X003969Y002508D01*
X003969Y002607D02*
X003931Y002607D01*
X003950Y003214D02*
X003950Y003569D01*
X004088Y003706D01*
X004088Y004454D01*
X003891Y004454D02*
X003891Y004002D01*
X003813Y003923D01*
X003576Y003706D02*
X003498Y003785D01*
X003498Y004454D01*
X003301Y004454D02*
X003301Y003569D01*
X003419Y003451D01*
X003419Y003214D01*
X003478Y003214D01*
X003419Y003214D02*
X003006Y003214D01*
X002966Y003510D02*
X002592Y003510D01*
X002533Y003451D01*
X002533Y003214D01*
X002966Y003510D02*
X003104Y003647D01*
X003104Y004454D01*
X003104Y005104D01*
X002510Y005071D02*
X001974Y005071D01*
X001974Y005169D02*
X002510Y005169D01*
X002512Y005268D02*
X001441Y005268D01*
X001441Y005292D02*
X001974Y005292D01*
X001974Y005813D01*
X001964Y005851D01*
X001944Y005885D01*
X001916Y005913D01*
X001882Y005933D01*
X001844Y005943D01*
X001441Y005943D01*
X001441Y005292D01*
X001441Y005366D02*
X001341Y005366D01*
X001341Y005465D02*
X001441Y005465D01*
X001441Y005563D02*
X001341Y005563D01*
X001341Y005662D02*
X001441Y005662D01*
X001441Y005760D02*
X001341Y005760D01*
X001341Y005859D02*
X001441Y005859D01*
X001960Y005859D02*
X007201Y005859D01*
X007196Y005851D02*
X007186Y005813D01*
X007186Y005292D01*
X007719Y005292D01*
X007719Y005192D01*
X007186Y005192D01*
X007186Y004671D01*
X007196Y004633D01*
X007216Y004599D01*
X007244Y004571D01*
X007278Y004551D01*
X007316Y004541D01*
X007719Y004541D01*
X007719Y005192D01*
X007819Y005192D01*
X007819Y004541D01*
X008222Y004541D01*
X008260Y004551D01*
X008294Y004571D01*
X008322Y004599D01*
X008342Y004633D01*
X008352Y004671D01*
X008352Y005192D01*
X007819Y005192D01*
X007819Y005292D01*
X007719Y005292D01*
X007719Y005943D01*
X007316Y005943D01*
X007278Y005933D01*
X007244Y005913D01*
X007216Y005885D01*
X007196Y005851D01*
X007186Y005760D02*
X001974Y005760D01*
X001974Y005662D02*
X007186Y005662D01*
X007186Y005563D02*
X004914Y005563D01*
X004954Y005616D02*
X002513Y005616D01*
X002565Y005366D02*
X001974Y005366D01*
X001974Y004972D02*
X002510Y004972D01*
X002153Y004873D02*
X001974Y004873D01*
X001974Y004775D02*
X002111Y004775D01*
X002111Y004676D02*
X001974Y004676D01*
X001924Y004578D02*
X002111Y004578D01*
X001441Y004578D02*
X001341Y004578D01*
X001341Y004676D02*
X001441Y004676D01*
X001441Y004775D02*
X001341Y004775D01*
X001341Y004873D02*
X001441Y004873D01*
X001441Y004972D02*
X001341Y004972D01*
X001341Y005071D02*
X001441Y005071D01*
X001441Y005169D02*
X001341Y005169D01*
X000808Y005465D02*
X000398Y005465D01*
X000398Y005563D02*
X000808Y005563D01*
X000808Y005662D02*
X000398Y005662D01*
X000398Y005760D02*
X000808Y005760D01*
X000823Y005859D02*
X000398Y005859D01*
X000398Y005957D02*
X008566Y005957D01*
X008566Y005859D02*
X008338Y005859D01*
X008342Y005851D02*
X008322Y005885D01*
X008294Y005913D01*
X008260Y005933D01*
X008222Y005943D01*
X007819Y005943D01*
X007819Y005292D01*
X008352Y005292D01*
X008352Y005813D01*
X008342Y005851D01*
X008352Y005760D02*
X008566Y005760D01*
X008566Y005662D02*
X008352Y005662D01*
X008352Y005563D02*
X008566Y005563D01*
X008566Y005465D02*
X008352Y005465D01*
X008352Y005366D02*
X008566Y005366D01*
X008566Y005268D02*
X007819Y005268D01*
X007769Y005242D02*
X007179Y005242D01*
X006824Y005596D01*
X005171Y005596D01*
X005072Y005498D01*
X004954Y005616D01*
X004996Y005465D02*
X007186Y005465D01*
X007186Y005366D02*
X005534Y005366D01*
X005398Y005366D02*
X005026Y005366D01*
X005045Y005268D02*
X005251Y005268D01*
X005203Y005169D02*
X005045Y005169D01*
X005045Y005071D02*
X005198Y005071D01*
X005231Y004972D02*
X005031Y004972D01*
X005072Y004873D02*
X005073Y004873D01*
X005466Y005104D02*
X005466Y004454D01*
X005269Y004454D02*
X005269Y003864D01*
X005191Y003785D01*
X005525Y003687D02*
X005525Y003943D01*
X005663Y004080D01*
X005663Y004454D01*
X005860Y004454D02*
X005860Y003903D01*
X005820Y003864D01*
X006057Y004061D02*
X006096Y004021D01*
X006096Y003687D01*
X005919Y003510D01*
X005840Y003510D01*
X005860Y003155D02*
X006254Y003549D01*
X006254Y004454D01*
X006057Y004454D02*
X006057Y004061D01*
X006650Y003987D02*
X007616Y003987D01*
X007714Y004085D02*
X007049Y004085D01*
X007049Y004184D02*
X007887Y004184D01*
X008360Y004184D02*
X008566Y004184D01*
X008566Y004282D02*
X007049Y004282D01*
X007049Y004381D02*
X008566Y004381D01*
X008566Y004479D02*
X007049Y004479D01*
X007049Y004578D02*
X007237Y004578D01*
X007186Y004676D02*
X007049Y004676D01*
X007049Y004775D02*
X007186Y004775D01*
X007186Y004873D02*
X007007Y004873D01*
X007186Y004972D02*
X005702Y004972D01*
X005734Y005071D02*
X007186Y005071D01*
X007186Y005169D02*
X005729Y005169D01*
X005682Y005268D02*
X007719Y005268D01*
X007719Y005366D02*
X007819Y005366D01*
X007819Y005465D02*
X007719Y005465D01*
X007719Y005563D02*
X007819Y005563D01*
X007819Y005662D02*
X007719Y005662D01*
X007719Y005760D02*
X007819Y005760D01*
X007819Y005859D02*
X007719Y005859D01*
X008566Y006056D02*
X000398Y006056D01*
X000398Y006154D02*
X008566Y006154D01*
X008566Y006253D02*
X000398Y006253D01*
X000398Y006352D02*
X008566Y006352D01*
X008566Y006450D02*
X000398Y006450D01*
X000398Y006549D02*
X008566Y006549D01*
X008566Y006647D02*
X000398Y006647D01*
X000398Y006746D02*
X008566Y006746D01*
X008566Y006844D02*
X000398Y006844D01*
X000398Y006943D02*
X008566Y006943D01*
X008566Y007041D02*
X000398Y007041D01*
X000398Y007140D02*
X000572Y007140D01*
X000418Y007238D02*
X000398Y007238D01*
X001108Y007140D02*
X007855Y007140D01*
X007701Y007238D02*
X001262Y007238D01*
X001361Y007337D02*
X007603Y007337D01*
X007549Y007436D02*
X001415Y007436D01*
X001456Y007534D02*
X007508Y007534D01*
X007483Y007633D02*
X001481Y007633D01*
X001481Y007731D02*
X007483Y007731D01*
X007483Y007830D02*
X001481Y007830D01*
X001448Y007928D02*
X007516Y007928D01*
X007556Y008027D02*
X001407Y008027D01*
X001343Y008125D02*
X007621Y008125D01*
X007719Y008224D02*
X001244Y008224D01*
X005072Y005498D02*
X005072Y004454D01*
X004876Y004454D02*
X004876Y004021D01*
X004797Y003943D01*
X004797Y003785D01*
X006450Y004454D02*
X006450Y002447D01*
X006313Y002309D01*
X006057Y002073D01*
X005958Y002073D01*
X006650Y002607D02*
X006655Y002607D01*
X006650Y002705D02*
X006753Y002705D01*
X006753Y002804D02*
X006650Y002804D01*
X006650Y002903D02*
X006753Y002903D01*
X006753Y003001D02*
X006650Y003001D01*
X006650Y003100D02*
X006700Y003100D01*
X006674Y003198D02*
X006650Y003198D01*
X006650Y003297D02*
X006686Y003297D01*
X006650Y003395D02*
X006744Y003395D01*
X006650Y003494D02*
X007483Y003494D01*
X007483Y003592D02*
X006650Y003592D01*
X006650Y003691D02*
X007483Y003691D01*
X007514Y003789D02*
X006650Y003789D01*
X006650Y003888D02*
X007554Y003888D01*
X007510Y003395D02*
X007141Y003395D01*
X007199Y003297D02*
X007551Y003297D01*
X007608Y003198D02*
X007211Y003198D01*
X007185Y003100D02*
X007706Y003100D01*
X007867Y003001D02*
X007132Y003001D01*
X007132Y002903D02*
X008566Y002903D01*
X008566Y003001D02*
X008380Y003001D01*
X008541Y003100D02*
X008566Y003100D01*
X008566Y002804D02*
X007132Y002804D01*
X007132Y002705D02*
X008566Y002705D01*
X008566Y002607D02*
X007781Y002607D01*
X007840Y002508D02*
X008566Y002508D01*
X008566Y002410D02*
X007841Y002410D01*
X007841Y002311D02*
X007891Y002311D01*
X008085Y002311D02*
X008123Y002311D01*
X008123Y002213D02*
X008085Y002213D01*
X008085Y002114D02*
X008123Y002114D01*
X008104Y002033D02*
X007651Y002033D01*
X007494Y002191D01*
X007494Y002781D01*
X007395Y002880D01*
X007277Y002880D01*
X007445Y002607D02*
X007542Y002607D01*
X007542Y002508D02*
X007445Y002508D01*
X007445Y002410D02*
X007542Y002410D01*
X007542Y002311D02*
X007445Y002311D01*
X008123Y002016D02*
X008566Y002016D01*
X008566Y002114D02*
X008411Y002114D01*
X008406Y002213D02*
X008566Y002213D01*
X008566Y002311D02*
X008317Y002311D01*
X008411Y001917D02*
X008566Y001917D01*
X008566Y001819D02*
X008390Y001819D01*
X008411Y001720D02*
X008566Y001720D01*
X008566Y001621D02*
X008411Y001621D01*
X008411Y001523D02*
X008566Y001523D01*
X008566Y001424D02*
X008411Y001424D01*
X008411Y001326D02*
X008566Y001326D01*
X008566Y001227D02*
X008304Y001227D01*
X008304Y001129D02*
X008566Y001129D01*
X008566Y001030D02*
X008304Y001030D01*
X008304Y000932D02*
X008566Y000932D01*
X008566Y000833D02*
X008210Y000833D01*
X008112Y000735D02*
X008566Y000735D01*
X008566Y000636D02*
X000398Y000636D01*
X000398Y000538D02*
X008566Y000538D01*
X008104Y001010D02*
X007966Y000872D01*
X007061Y000872D01*
X008104Y001010D02*
X008104Y001521D01*
X008533Y004085D02*
X008566Y004085D01*
X008566Y004578D02*
X008302Y004578D01*
X008352Y004676D02*
X008566Y004676D01*
X008566Y004775D02*
X008352Y004775D01*
X008352Y004873D02*
X008566Y004873D01*
X008566Y004972D02*
X008352Y004972D01*
X008352Y005071D02*
X008566Y005071D01*
X008566Y005169D02*
X008352Y005169D01*
X007819Y005169D02*
X007719Y005169D01*
X007719Y005071D02*
X007819Y005071D01*
X007819Y004972D02*
X007719Y004972D01*
X007719Y004873D02*
X007819Y004873D01*
X007819Y004775D02*
X007719Y004775D01*
X007719Y004676D02*
X007819Y004676D01*
X007819Y004578D02*
X007719Y004578D01*
X008392Y007140D02*
X008566Y007140D01*
X008566Y007238D02*
X008546Y007238D01*
X002907Y004454D02*
X002907Y003864D01*
X002828Y003785D01*
X002021Y003569D02*
X002021Y003214D01*
X000604Y004184D02*
X000398Y004184D01*
X000398Y004085D02*
X000431Y004085D01*
D16*
X001332Y004277D03*
X001864Y003825D03*
X002179Y003923D03*
X002828Y003785D03*
X003576Y003706D03*
X003813Y003923D03*
X004797Y003785D03*
X005191Y003785D03*
X005525Y003687D03*
X005820Y003864D03*
X005840Y003510D03*
X005860Y003155D03*
X006943Y003214D03*
X007277Y002880D03*
X005958Y002073D03*
X004679Y001994D03*
X003714Y002073D03*
X003380Y001797D03*
X002966Y001266D03*
X003104Y005104D03*
X002828Y005301D03*
X004482Y005084D03*
X004757Y005340D03*
X005466Y005104D03*
D17*
X004856Y005065D02*
X004856Y005242D01*
X004757Y005340D01*
X004856Y005065D02*
X004679Y004888D01*
X004679Y004454D01*
X004620Y003214D02*
X005230Y003214D01*
X005663Y002781D01*
X005663Y001954D01*
X005820Y001797D01*
X006194Y001797D01*
X006569Y002171D01*
X006923Y002171D01*
X006943Y002191D01*
X006943Y003214D01*
X004620Y002703D02*
X004620Y002053D01*
X004679Y001994D01*
M02*
