G75*
G70*
%OFA0B0*%
%FSLAX24Y24*%
%IPPOS*%
%LPD*%
%AMOC8*
5,1,8,0,0,1.08239X$1,22.5*
%
%ADD10C,0.0050*%
%ADD11C,0.0030*%
%ADD12C,0.0039*%
D10*
X000648Y000538D02*
X000648Y000763D01*
X000723Y000838D01*
X000873Y000838D01*
X000949Y000763D01*
X000949Y000538D01*
X001099Y000538D02*
X000648Y000538D01*
X000949Y000688D02*
X001099Y000838D01*
X001024Y000998D02*
X000873Y000998D01*
X000798Y001073D01*
X000798Y001223D01*
X000873Y001298D01*
X000949Y001298D01*
X000949Y000998D01*
X001024Y000998D02*
X001099Y001073D01*
X001099Y001223D01*
X000798Y001458D02*
X001099Y001609D01*
X000798Y001759D01*
X000798Y001919D02*
X000873Y001919D01*
X000873Y001994D01*
X000798Y001994D01*
X000798Y001919D01*
X001024Y001919D02*
X001024Y001994D01*
X001099Y001994D01*
X001099Y001919D01*
X001024Y001919D01*
X001099Y002149D02*
X000798Y002149D01*
X000648Y002299D01*
X000798Y002449D01*
X001099Y002449D01*
X000873Y002449D02*
X000873Y002149D01*
X001824Y002525D02*
X002218Y002525D01*
X002218Y003391D01*
X001824Y003391D01*
X001824Y002525D01*
X002336Y002525D02*
X002730Y002525D01*
X002730Y003391D01*
X002336Y003391D01*
X002336Y002525D01*
X002809Y002525D02*
X003202Y002525D01*
X003202Y003391D01*
X002809Y003391D01*
X002809Y002525D01*
X004423Y002525D02*
X004817Y002525D01*
X004817Y003391D01*
X004423Y003391D01*
X004423Y002525D01*
X006706Y002545D02*
X006706Y001049D01*
X007730Y001049D01*
X007730Y002545D01*
X006706Y002545D01*
X007376Y000813D02*
X007378Y000834D01*
X007384Y000854D01*
X007393Y000874D01*
X007405Y000891D01*
X007420Y000905D01*
X007438Y000917D01*
X007458Y000925D01*
X007478Y000930D01*
X007499Y000931D01*
X007520Y000928D01*
X007540Y000922D01*
X007559Y000911D01*
X007576Y000898D01*
X007589Y000882D01*
X007600Y000864D01*
X007608Y000844D01*
X007612Y000824D01*
X007612Y000802D01*
X007608Y000782D01*
X007600Y000762D01*
X007589Y000744D01*
X007576Y000728D01*
X007559Y000715D01*
X007540Y000704D01*
X007520Y000698D01*
X007499Y000695D01*
X007478Y000696D01*
X007458Y000701D01*
X007438Y000709D01*
X007420Y000721D01*
X007405Y000735D01*
X007393Y000752D01*
X007384Y000772D01*
X007378Y000792D01*
X007376Y000813D01*
D11*
X005930Y000859D02*
X005560Y000859D01*
X005560Y001044D01*
X005621Y001106D01*
X005745Y001106D01*
X005806Y001044D01*
X005806Y000859D01*
X005806Y000982D02*
X005930Y001106D01*
X005745Y001227D02*
X005745Y001474D01*
X005930Y001412D02*
X005560Y001412D01*
X005745Y001227D01*
X005412Y001241D02*
X005165Y001488D01*
X005104Y001488D01*
X005042Y001426D01*
X005042Y001303D01*
X005104Y001241D01*
X004900Y001241D02*
X004900Y001488D01*
X004900Y001364D02*
X004530Y001364D01*
X004654Y001241D01*
X004592Y001119D02*
X004530Y001058D01*
X004530Y000934D01*
X004592Y000873D01*
X004839Y000873D01*
X004900Y000934D01*
X004900Y001058D01*
X004839Y001119D01*
X005042Y001058D02*
X005042Y000934D01*
X005104Y000873D01*
X005350Y000873D01*
X005412Y000934D01*
X005412Y001058D01*
X005350Y001119D01*
X005412Y001241D02*
X005412Y001488D01*
X005104Y001119D02*
X005042Y001058D01*
X004414Y001106D02*
X004291Y000982D01*
X004291Y001044D02*
X004291Y000859D01*
X004414Y000859D02*
X004044Y000859D01*
X004044Y001044D01*
X004106Y001106D01*
X004229Y001106D01*
X004291Y001044D01*
X004414Y001227D02*
X004414Y001474D01*
X004414Y001351D02*
X004044Y001351D01*
X004167Y001227D01*
X003902Y001289D02*
X003902Y001412D01*
X003841Y001474D01*
X003779Y001474D01*
X003717Y001412D01*
X003717Y001351D01*
X003717Y001412D02*
X003655Y001474D01*
X003594Y001474D01*
X003532Y001412D01*
X003532Y001289D01*
X003594Y001227D01*
X003594Y001106D02*
X003532Y001044D01*
X003532Y000859D01*
X003902Y000859D01*
X003779Y000859D02*
X003779Y001044D01*
X003717Y001106D01*
X003594Y001106D01*
X003779Y000982D02*
X003902Y001106D01*
X003841Y001227D02*
X003902Y001289D01*
X003391Y001227D02*
X003144Y001474D01*
X003082Y001474D01*
X003020Y001412D01*
X003020Y001289D01*
X003082Y001227D01*
X003082Y001106D02*
X003205Y001106D01*
X003267Y001044D01*
X003267Y000859D01*
X003391Y000859D02*
X003020Y000859D01*
X003020Y001044D01*
X003082Y001106D01*
X003267Y000982D02*
X003391Y001106D01*
X003391Y001227D02*
X003391Y001474D01*
X002741Y001249D02*
X002741Y001126D01*
X002679Y001064D01*
X002555Y001188D02*
X002555Y001249D01*
X002617Y001311D01*
X002679Y001311D01*
X002741Y001249D01*
X002555Y001249D02*
X002494Y001311D01*
X002432Y001311D01*
X002370Y001249D01*
X002370Y001126D01*
X002432Y001064D01*
X002432Y000943D02*
X002370Y000881D01*
X002370Y000758D01*
X002432Y000696D01*
X002679Y000696D01*
X002741Y000758D01*
X002741Y000881D01*
X002679Y000943D01*
X002223Y000937D02*
X002223Y000690D01*
X001852Y000690D01*
X001976Y001058D02*
X001852Y001182D01*
X002223Y001182D01*
X002223Y001305D02*
X002223Y001058D01*
X007921Y002352D02*
X007983Y002290D01*
X008230Y002290D01*
X008292Y002352D01*
X008292Y002476D01*
X008230Y002537D01*
X008107Y002659D02*
X008107Y002906D01*
X008292Y002844D02*
X007921Y002844D01*
X008107Y002659D01*
X007983Y002537D02*
X007921Y002476D01*
X007921Y002352D01*
X005559Y006910D02*
X005559Y007281D01*
X005374Y007096D01*
X005621Y007096D01*
X005252Y007157D02*
X005252Y007219D01*
X005191Y007281D01*
X005067Y007281D01*
X005006Y007219D01*
X005252Y007157D02*
X005006Y006910D01*
X005252Y006910D01*
X004884Y006849D02*
X004637Y006849D01*
X004516Y006972D02*
X004454Y006910D01*
X004331Y006910D01*
X004269Y006972D01*
X004269Y007219D01*
X004331Y007281D01*
X004454Y007281D01*
X004516Y007219D01*
X004147Y007281D02*
X003901Y007281D01*
X003901Y006910D01*
X003901Y007096D02*
X004024Y007096D01*
X003779Y007281D02*
X003532Y007281D01*
X003532Y006910D01*
X003532Y007096D02*
X003656Y007096D01*
D12*
X003675Y003391D02*
X003281Y003391D01*
X003281Y002525D01*
X003675Y002525D01*
X003675Y003391D01*
X003754Y003391D02*
X004147Y003391D01*
X004147Y002525D01*
X003754Y002525D01*
X003754Y003391D01*
X002730Y002427D02*
X002336Y002427D01*
X002336Y001561D01*
X002730Y001561D01*
X002730Y002427D01*
X002238Y002427D02*
X001726Y002427D01*
X001726Y001285D01*
X002238Y001285D01*
X002238Y002427D01*
X007907Y002210D02*
X007907Y001344D01*
X008301Y001344D01*
X008301Y002210D01*
X007907Y002210D01*
M02*
