G75*
G70*
%OFA0B0*%
%FSLAX24Y24*%
%IPPOS*%
%LPD*%
%AMOC8*
5,1,8,0,0,1.08239X$1,22.5*
%
%ADD10C,0.0867*%
%ADD11R,0.0190X0.0710*%
%ADD12R,0.0946X0.1182*%
%ADD13R,0.0395X0.0356*%
%ADD14R,0.0513X0.0474*%
%ADD15R,0.0474X0.0671*%
D10*
X000840Y003588D03*
X000840Y007722D03*
X008124Y007722D03*
X008124Y003588D03*
D11*
X006844Y004454D03*
X006647Y004454D03*
X006450Y004454D03*
X006254Y004454D03*
X006057Y004454D03*
X005860Y004454D03*
X005663Y004454D03*
X005466Y004454D03*
X005269Y004454D03*
X005072Y004454D03*
X004876Y004454D03*
X004679Y004454D03*
X004482Y004454D03*
X004285Y004454D03*
X004088Y004454D03*
X003891Y004454D03*
X003694Y004454D03*
X003498Y004454D03*
X003301Y004454D03*
X003104Y004454D03*
X002907Y004454D03*
X002710Y004454D03*
X002513Y004454D03*
X002317Y004454D03*
D12*
X001391Y005242D03*
X007769Y005242D03*
D13*
X004620Y003214D03*
X003950Y003214D03*
X003478Y003214D03*
X003006Y003214D03*
X002533Y003214D03*
X002021Y003214D03*
X002021Y002703D03*
X002533Y002703D03*
X003006Y002703D03*
X003478Y002703D03*
X003950Y002703D03*
X004620Y002703D03*
X002533Y002250D03*
X002533Y001738D03*
X008104Y001521D03*
X008104Y002033D03*
D14*
X001982Y001521D03*
X001982Y002191D03*
D15*
X006943Y002191D03*
X007494Y002191D03*
X007494Y001403D03*
X006943Y001403D03*
M02*
