%
M48
M72
T01C0.0118
T02C0.0787
%
T01
X2966Y1266
X3380Y1797
X3714Y2073
X4679Y1994
X5958Y2073
X7277Y2880
X6943Y3214
X5860Y3155
X5840Y3510
X5525Y3687
X5820Y3864
X5191Y3785
X4797Y3785
X3813Y3923
X3576Y3706
X2828Y3785
X2179Y3923
X1864Y3825
X1332Y4277
X2828Y5301
X3104Y5104
X4482Y5084
X4757Y5340
X5466Y5104
T02
X8124Y3588
X8124Y7722
X840Y7722
X840Y3588
M30
